<?xml version="1.0" standalone="no"?>
<!DOCTYPE svg PUBLIC "-//W3C//DTD SVG 1.1//EN" "http://www.w3.org/Graphics/SVG/1.1/DTD/svg11.dtd">
<svg xmlns="http://www.w3.org/2000/svg">
<defs >
<font id="Rokkitt" horiz-adv-x="531" ><font-face
    font-family="Rokkitt Medium"
    units-per-em="1000"
    panose-1="0 0 0 0 0 0 0 0 0 0"
    ascent="817"
    descent="-320"
    alphabetic="0" />
<glyph unicode=" " horiz-adv-x="308" />
<glyph unicode="!" horiz-adv-x="188" d="M60 158L42 417V590H134V417L117 158H60ZM89 -7Q64 -7 47 9T30 48Q30 72 47 87T89 103Q114 103 131 88T148 48Q148 25 131 9T89 -7Z" />
<glyph unicode="&quot;" horiz-adv-x="327" d="M71 422L51 636H144L127 422H71ZM203 422L183 636H276L259 422H203Z" />
<glyph unicode="#" horiz-adv-x="575" d="M96 -3L121 165H34L38 222H133L155 368H54L58 427H167L191 584H262L238 427H383L407 584H478L453 427H545L541 368H442L420 222H525L521 165H408L383 -3H312L337 165H192L166 -3H96ZM204 222H349L370 368H226L204 222Z" />
<glyph unicode="$" horiz-adv-x="545" d="M237 -88V661H295V-88H237ZM298 -10Q258 -10 221 2T156 38T114 93H129V0H51V192H122Q129 153 150 123T207 76T288 58Q335 58 361 80T388 143Q388 176 376 194T337 224T263 242L228 249Q144 264 96 305T48 419Q48 469 70
504T134 559T229 578Q291 578 337 553T403 482H381V567H456V405H387Q381 428 367 452T324 493T244 510Q197 510 172 488T147 431Q147 392 176 371T263 339L290 334Q356 323 398 303T462 249T484 160Q484 112 462 74T399 13T298 -10Z" />
<glyph unicode="%" horiz-adv-x="751" d="M186 291Q145 291 113 309T63 361T44 436Q44 478 62 510T113 560T186 578Q248 578 288 538T329 436Q329 394 311 361T260 310T186 291ZM186 342Q221 343 242 369T264 436Q264 476 243 501T186 528Q152 527 130 502T108
436Q108 395 130 369T186 342ZM564 -11Q523 -11 491 7T441 59T422 134Q422 196 462 236T564 276Q626 276 666 236T707 134Q707 92 689 59T638 8T564 -11ZM564 41Q599 41 621 67T643 134Q643 174 621 200T564 226Q531 226 509 200T486 134Q486 93 508 67T564 41ZM161
-1L535 570H591L218 -1H161Z" />
<glyph unicode="&amp;" horiz-adv-x="661" d="M256 -10Q194 -10 148 13T77 76T52 167Q52 207 69 238T120 293T199 335Q171 368 156 399T140 465Q140 500 159 528T213 572T296 588Q341 588 374 572T425 530T443 470Q443 423 413 385T318 317L441 173Q454 191 464
214T481 261T492 306H619V242L551 241Q545 220 536 198T514 154T489 116L531 65H619V0H475L431 57Q396 24 352 7T256 -10ZM269 62Q303 62 332 73T385 111L240 284Q194 266 171 238T147 170Q147 142 162 117T204 77T269 62ZM277 369Q322 389 343 413T364 467Q364
496 346 512T296 529Q263 529 245 514T226 470Q226 447 240 423T277 369Z" />
<glyph unicode="&apos;" horiz-adv-x="195" d="M71 422L51 636H144L127 422H71Z" />
<glyph unicode="(" horiz-adv-x="299" d="M264 -70Q194 -44 146 6T74 120T49 255Q49 325 73 390T146 505T264 581L266 526Q228 504 203 463T166 369T153 256Q153 197 165 144T203 49T266 -15L264 -70Z" />
<glyph unicode=")" horiz-adv-x="299" d="M53 -70L52 -15Q90 7 115 48T153 143T166 256Q166 315 153 368T115 463T52 526L53 581Q124 555 172 505T244 390T269 255Q269 185 245 121T172 6T53 -70Z" />
<glyph unicode="*" horiz-adv-x="454" d="M143 201L77 249L203 379L28 412L50 486L215 406L187 585H269L240 406L406 486L428 412L253 379L379 249L312 201L228 364L143 201Z" />
<glyph unicode="+" horiz-adv-x="578" d="M255 60V250H72V311H255V501H323V311H506V250H323V60H255Z" />
<glyph unicode="," horiz-adv-x="250" d="M61 -120V-79Q91 -75 103 -58T116 0H62V103H170V18Q170 -49 145 -84T61 -120Z" />
<glyph unicode="-" horiz-adv-x="357" d="M53 202V267H304V202H53Z" />
<glyph unicode="." horiz-adv-x="245" d="M60 0V102H165V0H60Z" />
<glyph unicode="/" horiz-adv-x="343" d="M10 -140L292 597H371L89 -140H10Z" />
<glyph unicode="0" horiz-adv-x="547" d="M273 -11Q165 -11 110 66T54 286Q54 421 109 499T273 577Q382 577 437 500T493 286Q493 143 438 66T273 -11ZM273 58Q334 58 365 116T397 286Q397 395 366 451T273 508Q213 508 182 452T150 286Q150 174 181 116T273 58Z" />
<glyph unicode="1" horiz-adv-x="339" d="M44 0V64H132V492L44 478L41 540L228 567V64H313V0H44Z" />
<glyph unicode="2" horiz-adv-x="477" d="M41 0V61L207 226Q250 269 277 300T317 358T330 418Q330 456 308 482T237 509Q189 509 162 482T134 404Q134 390 136 375T142 344H57Q53 360 51 376T48 408Q48 458 71 496T139 555T247 577Q330 577 377 536T424 429Q424
387 406 350T351 274T263 183L113 34L97 67H355V169H429V0H41Z" />
<glyph unicode="3" horiz-adv-x="497" d="M248 -10Q168 -10 114 23T30 117L106 154Q127 110 162 86T247 62Q300 62 329 87T359 156Q359 210 320 236T199 262V326Q274 326 313 351T352 424Q352 461 326 483T250 506Q202 506 168 481T121 411L43 443Q58 486 88 515T160
561T254 577Q342 577 392 537T443 431Q443 391 423 360T369 311T291 290V304Q362 302 408 262T455 153Q455 102 430 66T358 10T248 -10Z" />
<glyph unicode="4" horiz-adv-x="484" d="M184 0V64H276V155H16L8 210L277 567H365V216H452V155H365V64H434V0H184ZM89 216H276V467L89 216Z" />
<glyph unicode="5" horiz-adv-x="511" d="M254 -11Q186 -11 135 14T43 80L92 141Q124 107 162 86T249 65Q309 65 342 96T375 178Q375 229 345 259T259 289Q224 289 194 276T140 239L69 267L76 567H437V421H359V499H151L144 272L122 302Q149 332 190 348T280 364Q372
364 420 313T468 180Q468 119 441 77T366 12T254 -11Z" />
<glyph unicode="6" horiz-adv-x="482" d="M245 -10Q184 -10 138 13T66 80T40 182Q40 223 48 256T78 330T139 427L265 616L336 568L146 288L136 305Q148 322 167 336T211 358T268 366Q318 366 358 344T423 280T447 183Q447 126 421 83T350 15T245 -10ZM246 60Q298
60 327 94T357 182Q357 236 329 268T250 300Q218 300 192 286T150 245T133 180Q133 130 161 95T246 60Z" />
<glyph unicode="7" horiz-adv-x="455" d="M128 0L317 501H97V407H16V567H415V506L223 0H128Z" />
<glyph unicode="8" horiz-adv-x="487" d="M244 -11Q176 -11 129 10T58 68T33 151Q33 202 62 239T142 294Q94 316 73 348T52 425Q52 471 75 505T142 558T244 577Q303 577 346 559T413 508T437 429Q437 382 414 348T343 294Q398 277 426 242T454 154Q454 107 429
69T357 10T244 -11ZM243 51Q295 51 324 79T353 154Q353 205 316 229T202 268Q186 263 170 248T142 209T130 154Q130 108 160 80T243 51ZM283 318Q295 323 309 337T333 373T344 423Q344 464 319 489T247 514Q200 514 175 489T149 422Q149 375 184 351T283 318Z"
/>
<glyph unicode="9" horiz-adv-x="482" d="M218 -49L146 -1L337 280L347 263Q335 245 316 232T271 210T215 201Q164 201 124 224T59 288T35 384Q35 442 61 485T133 553T238 578Q298 578 344 554T417 487T443 386Q443 345 434 311T404 238T344 140L218 -49ZM233
267Q264 267 290 281T333 322T349 388Q349 438 321 472T237 507Q184 507 155 473T125 385Q125 332 153 300T233 267Z" />
<glyph unicode=":" horiz-adv-x="245" d="M60 0V102H165V0H60ZM60 293V395H165V293H60Z" />
<glyph unicode=";" horiz-adv-x="250" d="M61 -120V-79Q91 -75 103 -58T116 0H62V103H170V18Q170 -49 145 -84T61 -120ZM60 293V395H165V293H60Z" />
<glyph unicode="&lt;" horiz-adv-x="519" d="M467 64L72 254V312L467 502V432L146 283L467 134V64Z" />
<glyph unicode="=" horiz-adv-x="561" d="M72 340V401H489V340H72ZM72 168V229H489V168H72Z" />
<glyph unicode="&gt;" horiz-adv-x="519" d="M52 64L447 254V312L52 502V432L373 283L52 134V64Z" />
<glyph unicode="?" horiz-adv-x="419" d="M145 157V166Q145 203 154 229T181 277T225 325Q257 358 271 384T286 444Q286 483 264 503T207 523Q166 523 144 500T119 433H23Q25 489 51 525T118 579T210 597Q293 597 341 557T389 452Q389 406 365 373T300 300Q275
276 261 258T241 219T235 166V157H145ZM190 -8Q165 -8 148 8T131 48Q131 72 148 87T190 103Q216 103 233 88T250 48Q250 24 233 8T190 -8Z" />
<glyph unicode="@" horiz-adv-x="711" d="M384 -27Q300 -27 237 -2T134 65T73 161T53 271Q53 331 74 388T137 491T240 565T380 593Q454 593 506 572T591 514T639 432T655 340Q655 294 640 251T600 175T543 124T477 111Q462 114 451 122T436 146T434 189Q418 155
390 132T321 109Q287 109 258 126T210 176T191 258Q191 307 210 353T268 431T365 462Q403 462 430 439T462 382L476 454H531L482 231Q474 192 476 173T488 151Q504 146 524 158T563 195T595 257T608 339Q608 393 582 440T505 516T377 546Q300 546 240 511T145 413T110
270Q110 195 142 139T235 51T384 19Q439 19 484 32T564 72L593 37Q553 6 502 -10T384 -27ZM331 154Q363 154 388 177T428 239T443 324Q443 368 421 391T359 415Q325 415 300 392T261 332T248 257Q248 215 268 185T331 154Z" />
<glyph unicode="A" horiz-adv-x="690" d="M26 0V66H95L252 501H191V567H499V501H436L598 66H663V0H416V66H488L438 214H241L191 66H261V0H26ZM260 278H418L343 500H338L260 278Z" />
<glyph unicode="B" horiz-adv-x="601" d="M41 0V66H114V501H41V567H335Q434 567 483 531T533 427Q533 380 509 349T441 304Q483 295 510 275T550 225T564 160Q564 117 543 81T475 22T352 0H41ZM219 67H333Q398 67 427 93T456 167Q456 211 426 238T330 265H219V67ZM219
331H322Q378 331 403 354T428 419Q428 463 400 482T307 501H219V331Z" />
<glyph unicode="C" horiz-adv-x="679" d="M350 -11Q282 -11 227 10T130 70T68 163T46 284Q46 370 83 436T188 540T345 577Q402 577 446 560T520 512T563 440L536 448V567H610V387L545 386Q515 447 470 474T360 502Q296 502 250 474T178 396T153 285Q153 235 168
195T210 125T275 80T356 64Q398 64 434 77T499 120T543 197L623 163Q602 102 562 64T468 8T350 -11Z" />
<glyph unicode="D" horiz-adv-x="697" d="M42 0V66H114V501H42V567H358Q433 567 487 544T579 482T633 392T651 288Q651 225 633 173T579 82T487 22T359 0H42ZM220 66H345Q397 66 435 83T496 129T531 199T543 287Q543 329 531 367T496 436T435 483T347 501H220V66Z" />
<glyph unicode="E" horiz-adv-x="601" d="M41 0V66H114V501H41V567H547V391H472V501H219V326H371V389H424V195H371V260H219V67H477V181H551V0H41Z" />
<glyph unicode="F" horiz-adv-x="560" d="M41 0V66H114V501H41V567H539V387H465V501H219V327H367V387H421V197H367V260H219V66H294V0H41Z" />
<glyph unicode="G" horiz-adv-x="697" d="M359 -10Q262 -10 192 27T83 131T45 284Q45 372 84 437T192 540T352 577Q439 577 495 541T578 445L545 452V567H623V384H555Q528 442 480 472T366 503Q302 503 255 477T183 403T157 288Q157 220 182 170T253 92T363 65Q402
66 435 76T494 106T533 159T548 235L595 224H433V292H650V259Q650 196 630 146T573 61T481 8T359 -10Z" />
<glyph unicode="H" horiz-adv-x="711" d="M41 0V66H114V501H41V567H292V501H219V324H492V501H419V567H670V501H597V66H670V0H419V66H492V257H219V66H292V0H41Z" />
<glyph unicode="I" horiz-adv-x="351" d="M50 0V66H122V501H50V567H301V501H228V66H301V0H50Z" />
<glyph unicode="J" horiz-adv-x="342" d="M28 -117V-36H82Q120 -36 132 -14T144 48V503H70V567H317V503H248V52Q248 -5 234 -42T187 -98T100 -117H28Z" />
<glyph unicode="K" horiz-adv-x="651" d="M41 0V66H114V501H41V567H292V501H219V299L435 501H374V567H616V501H549L323 288L555 66H623V0H372V66H432L219 269V66H292V0H41Z" />
<glyph unicode="L" horiz-adv-x="537" d="M41 0V66H114V503H41V567H292V503H219V66H433V234H511V0H41Z" />
<glyph unicode="M" horiz-adv-x="845" d="M42 0V66H113V501H42V567H258L427 195L588 567H803V501H733V66H803V0H564V66H632V477L434 27H395L194 477V66H262V0H42Z" />
<glyph unicode="N" horiz-adv-x="716" d="M43 0V66H117V501H43V567H238L539 136V501H463V567H688V501H615V0H510L192 459V66H268V0H43Z" />
<glyph unicode="O" horiz-adv-x="714" d="M357 -11Q286 -11 229 11T131 74T68 168T46 282Q46 343 68 396T130 490T228 554T357 577Q427 577 484 554T583 491T646 397T668 282Q668 221 646 168T583 75T485 12T357 -11ZM357 64Q403 64 440 81T504 128T543 197T557
283Q557 329 544 369T504 439T441 486T357 503Q309 503 273 486T210 439T171 368T158 282Q158 236 171 197T210 127T272 81T357 64Z" />
<glyph unicode="P" horiz-adv-x="581" d="M41 0V66H114V501H41V567H329Q436 567 493 526T550 403Q550 318 493 275T329 231H257V297H321Q379 297 410 324T441 402Q441 450 414 475T334 501H219V66H294V0H41Z" />
<glyph unicode="Q" horiz-adv-x="712" d="M533 -146Q464 -146 410 -111T317 -8Q254 -2 204 22T119 86T65 175T46 282Q46 343 68 396T130 490T228 554T357 577Q427 577 484 554T583 491T646 397T668 282Q668 227 650 178T599 90T517 26T409 -7Q431 -39 461 -58T535
-78Q551 -78 567 -76T601 -68L602 -135Q585 -140 568 -143T533 -146ZM357 64Q403 64 440 81T504 128T543 197T557 283Q557 329 544 369T504 439T441 486T357 503Q309 503 273 486T210 439T171 368T158 282Q158 236 171 197T210 127T272 81T357 64Z" />
<glyph unicode="R" horiz-adv-x="642" d="M41 0V66H114V501H41V567H351Q413 567 459 551T530 500T556 413Q556 374 542 344T497 293T418 263L538 67H614V0H463L317 252H255V320H339Q382 320 406 333T440 368T450 414Q450 438 439 457T406 489T350 501H219V66H291V0H41Z" />
<glyph unicode="S" horiz-adv-x="541" d="M314 -10Q273 -10 237 2T172 38T129 93H145V0H67V192H138Q145 153 166 123T223 76T304 58Q350 58 376 80T403 143Q403 176 391 194T352 224T279 242L244 249Q160 264 112 305T63 419Q63 469 85 504T149 559T245 578Q306
578 352 553T418 482H397V567H472V405H403Q397 428 383 452T339 493T259 510Q213 510 188 488T162 431Q162 392 191 371T279 339L305 334Q371 323 414 303T478 249T499 160Q499 112 477 74T414 13T314 -10Z" />
<glyph unicode="T" horiz-adv-x="582" d="M165 0V66H239V501H99V366H25V567H556V366H482V501H344V66H418V0H165Z" />
<glyph unicode="U" horiz-adv-x="676" d="M341 -10Q257 -10 204 17T124 93T98 206V501H28V567H275V501H203V198Q203 155 220 125T269 78T346 62Q395 62 428 78T480 124T498 198V501H431V567H654V501H583V201Q583 130 553 84T469 14T341 -10Z" />
<glyph unicode="V" horiz-adv-x="654" d="M289 0L82 501H16V567H263V501H190L338 115L482 501H412V567H638V501H574L373 0H289Z" />
<glyph unicode="W" horiz-adv-x="920" d="M247 0L86 501H22V567H251V501H183L293 137L431 555H502L640 137L749 501H679V567H898V501H833L678 0H598L462 401L327 0H247Z" />
<glyph unicode="X" horiz-adv-x="650" d="M30 0V64H99L262 289L106 502H37V567H280V502H218L330 343L441 502H378V567H608V502H539L384 292L550 64H620V0H373V64H437L317 238L198 64H262V0H30Z" />
<glyph unicode="Y" horiz-adv-x="643" d="M194 0V66H271V234L83 501H13V567H266V501H198L334 300L467 501H397V567H630V501H558L376 235V66H455V0H194Z" />
<glyph unicode="Z" horiz-adv-x="580" d="M56 0V64L390 501H142V374H69V567H524V508L187 66H458V203H532V0H56Z" />
<glyph unicode="[" horiz-adv-x="323" d="M101 -93V608H276V547H192V-31H276V-93H101Z" />
<glyph unicode="\" horiz-adv-x="324" d="M252 -140L20 597H98L330 -140H252Z" />
<glyph unicode="]" horiz-adv-x="323" d="M47 -93V-31H131V547H47V608H222V-93H47Z" />
<glyph unicode="^" horiz-adv-x="488" d="M38 280L205 599H283L449 280H367L245 527L120 280H38Z" />
<glyph unicode="_" horiz-adv-x="453" d="M6 -86V-39H447V-86H6Z" />
<glyph unicode="`" horiz-adv-x="349" d="M191 473L100 626H198L249 473H191Z" />
<glyph unicode="a" horiz-adv-x="463" d="M171 -11Q110 -11 74 22T37 106Q37 151 58 178T116 218T195 230Q229 230 263 224T326 209L298 204V252Q298 296 275 317T210 339Q182 339 146 330T76 303L51 361Q90 383 135 394T220 405Q274 405 312 388T371 337T391
259V62H449V0H311L301 58H331Q294 23 257 6T171 -11ZM193 47Q226 47 258 61T325 106L298 70V181L320 162Q298 170 269 175T208 180Q176 180 150 166T124 112Q124 84 142 66T193 47Z" />
<glyph unicode="b" horiz-adv-x="525" d="M183 577V337L159 339Q189 370 230 387T314 405Q368 405 410 382T477 313T502 203Q502 136 475 89T403 16T303 -10Q257 -10 221 7T156 57L181 45L180 0H22V62H89V515H24V577H183ZM283 333Q252 333 219 318T159 272L183
315V72L160 116Q184 90 215 75T279 60Q332 60 368 95T404 197Q404 263 370 298T283 333Z" />
<glyph unicode="c" horiz-adv-x="466" d="M241 -10Q178 -10 129 17T52 91T24 201Q24 262 50 308T123 380T228 406Q285 406 322 381T370 318H352V397H424V249H359Q351 290 323 313T248 337Q210 337 181 321T135 274T118 204Q118 162 135 130T182 80T253 62Q302
62 334 80T392 127L426 70Q395 34 349 12T241 -10Z" />
<glyph unicode="d" horiz-adv-x="518" d="M222 -11Q168 -11 124 14T53 86T26 198Q26 264 51 310T120 380T216 405Q260 405 300 389T369 343L345 334V515H277V577H439V62H498V0H348L347 51H374Q345 22 308 6T222 -11ZM249 60Q285 60 315 73T370 111L345 72V320L369
280Q342 306 309 320T242 334Q207 334 181 318T139 271T123 193Q123 151 140 121T185 76T249 60Z" />
<glyph unicode="e" horiz-adv-x="460" d="M247 -12Q183 -12 133 14T53 87T23 197Q23 261 51 307T126 380T234 406Q295 406 338 381T405 309T429 201V180H93L94 231H338Q338 265 325 290T288 327T233 340Q199 340 173 324T131 278T116 206Q116 160 133 128T180
78T251 60Q293 60 329 76T393 118L423 61Q394 30 350 9T247 -12Z" />
<glyph unicode="f" horiz-adv-x="316" d="M35 0V62H106V333H36V395H106V470Q106 509 120 538T165 584T242 601Q293 601 327 578T366 501L294 483Q291 510 281 525T247 540Q225 540 213 524T200 470V395H314V333H200V62H293V0H35Z" />
<glyph unicode="g" horiz-adv-x="519" d="M240 -190Q201 -190 162 -183T84 -164L101 -97Q137 -107 169 -113T231 -120Q289 -120 321 -93T353 -10V53L380 61Q349 28 310 12T227 -4Q171 -4 126 20T54 90T28 200Q28 265 53 311T124 380T225 404Q267 404 309 386T374
339L354 337V395H508V333H447V-1Q447 -67 421 -109T348 -170T240 -190ZM244 336Q210 336 183 320T141 273T126 196Q126 154 142 125T187 80T251 65Q283 65 317 79T378 119L353 75L352 320L377 281Q349 306 314 321T244 336Z" />
<glyph unicode="h" horiz-adv-x="526" d="M12 0V62H79V515H13V577H173V339L141 332Q184 364 227 384T316 405Q373 405 410 370T448 272V62H515V0H295V62H354V255Q354 293 336 314T286 336Q251 336 215 320T147 278L173 321V62H231V0H12Z" />
<glyph unicode="i" horiz-adv-x="271" d="M20 0V62H90V333H21V395H183V62H249V0H20ZM127 478Q100 478 82 494T64 537Q64 564 82 580T127 597Q154 597 171 581T189 537Q190 511 172 495T127 478Z" />
<glyph unicode="j" horiz-adv-x="262" d="M2 -155V-83H43Q84 -83 97 -64T111 -3V331H33V395H206V15Q206 -37 194 -75T147 -134T47 -155H2ZM143 478Q116 478 98 495T80 538Q80 564 98 580T143 597Q170 597 188 581T206 538Q206 512 188 495T143 478Z" />
<glyph unicode="k" horiz-adv-x="508" d="M23 0V62H91V515H25V577H185V211L344 333H277V395H491V333H436L279 209L425 62H493V0H371L185 194V62H245V0H23Z" />
<glyph unicode="l" horiz-adv-x="264" d="M24 0V62H91V515H26V577H185V62H245V0H24Z" />
<glyph unicode="m" horiz-adv-x="795" d="M20 0V62H90V333H21V395H180L181 346L152 336Q193 367 235 386T320 405Q383 405 417 367T451 270V62H518V0H298V62H358V255Q358 293 340 314T289 336Q259 336 224 322T154 283L183 320V62H247V0H20ZM572 0V62H631V255Q631
293 613 314T562 336Q531 336 499 323T437 288L422 335Q463 366 504 385T594 405Q650 405 687 370T725 272V62H791V0H572Z" />
<glyph unicode="n" horiz-adv-x="524" d="M20 0V62H90V333H20V395H180L181 342L151 336Q193 367 235 386T322 405Q379 405 416 370T453 272V62H520V0H301V62H360V255Q360 293 342 314T290 336Q258 336 225 322T154 281L183 321V62H247V0H20Z" />
<glyph unicode="o" horiz-adv-x="478" d="M238 -12Q174 -12 126 14T50 88T23 198Q23 261 50 307T125 380T238 406Q303 406 351 380T427 308T454 199Q454 136 427 89T352 15T238 -12ZM238 61Q276 61 303 78T346 126T362 199Q362 240 347 270T304 316T238 333Q201
333 174 317T131 270T116 198Q116 157 131 126T173 78T238 61Z" />
<glyph unicode="p" horiz-adv-x="517" d="M17 -159V-97H83V333H19V395H170L172 350L145 336Q176 368 217 386T304 405Q358 405 400 381T467 312T492 202Q492 136 466 89T394 16T294 -10Q263 -10 237 -2T190 18T160 47L177 54L176 -97H250V-159H17ZM270 60Q323
60 359 95T395 197Q395 262 361 297T274 333Q257 333 235 327T190 308T152 274L176 320L177 80L154 112Q177 87 207 74T270 60Z" />
<glyph unicode="q" horiz-adv-x="532" d="M280 -163V-98H354V58L377 55Q349 24 308 7T224 -11Q170 -11 125 14T53 86T26 197Q26 264 52 310T122 380T219 405Q265 405 308 387T382 336L356 346L358 395H512V333H448V-98H513V-163H280ZM248 60Q282 60 316 75T377
115L354 77V316L379 275Q349 304 313 319T241 334Q207 334 180 318T138 270T122 193Q122 150 139 121T184 76T248 60Z" />
<glyph unicode="r" horiz-adv-x="393" d="M31 0V62H100V333H31V395H194V276L179 277Q191 325 209 351T251 389T297 401Q318 401 337 396T376 382L355 300Q338 311 320 316T282 322Q248 322 222 295T195 215L194 62H260V0H31Z" />
<glyph unicode="s" horiz-adv-x="438" d="M250 -10Q218 -10 189 -2T138 21T105 55L123 49V0H56V135H117L123 73L106 117Q120 84 156 66T232 48Q266 48 288 61T311 99Q311 128 291 139T227 161L177 171Q118 186 87 211T55 291Q55 345 96 375T201 405Q228 405 255
398T304 378T334 346L314 349V397H383V264H321L310 350L328 292Q323 308 306 320T265 339T219 346Q191 346 169 334T146 297Q146 276 162 265T214 246L262 235Q303 226 333 213T381 175T399 107Q399 68 378 42T323 3T250 -10Z" />
<glyph unicode="t" horiz-adv-x="308" d="M198 0Q140 0 110 28T80 117V333H19V395H80V528L174 556V395H274V333H174V127Q174 92 185 78T225 63H281V0H198Z" />
<glyph unicode="u" horiz-adv-x="518" d="M205 -10Q159 -10 130 8T86 57T72 124V333H11V395H167V136Q167 101 183 81T235 60Q274 60 307 78T371 130L346 84V333H282V395H439V62H507V0H351L347 62L376 69Q337 32 295 11T205 -10Z" />
<glyph unicode="v" horiz-adv-x="513" d="M216 0L65 333H6V395H224V333H166L267 92L367 333H310V395H508V333H451L299 0H216Z" />
<glyph unicode="w" horiz-adv-x="714" d="M175 0L55 333H7V395H192V333H143L228 86L313 333H262V395H455V333H404L492 85L571 333H521V395H705V333H655L538 0H450L357 258L264 0H175Z" />
<glyph unicode="x" horiz-adv-x="507" d="M21 0V62H74L200 202L82 333H24V395H227V333H176L256 240L336 333H285V395H486V333H424L309 204L437 62H490V0H284V62H342L252 162L164 62H218V0H21Z" />
<glyph unicode="y" horiz-adv-x="520" d="M98 -162V-89H140Q166 -89 182 -85T209 -67T231 -26L251 25H218L71 333H6V395H222V333H167L275 90L373 333H310V395H518V333H461L309 -24Q289 -71 272 -101T227 -147T147 -162H98Z" />
<glyph unicode="z" horiz-adv-x="443" d="M46 0V58L288 335H114V256H50V395H398V335L154 59H338V147H404V0H46Z" />
<glyph unicode="{" horiz-adv-x="334" d="M257 -76Q207 -76 179 -64T139 -27T125 32T122 110Q122 153 117 181T94 224T40 238V299Q75 299 92 313T116 356T122 428Q122 470 124 504T138 562T178 600T257 613H298V554Q260 554 241 548T215 525T208 474Q208 419 205
383T194 324T169 289T123 268Q150 260 166 248T192 216T204 162T207 79Q207 38 212 17T236 -11T298 -18V-76H257Z" />
<glyph unicode="|" horiz-adv-x="165" d="M44 -140V597H121V-140H44Z" />
<glyph unicode="}" horiz-adv-x="334" d="M53 -76V-18Q96 -18 115 -11T139 16T144 77Q144 128 147 161T159 215T184 248T229 268Q199 276 183 289T158 324T146 382T143 474Q143 508 137 525T111 548T53 554V613H94Q144 613 172 600T212 563T226 505T229 429Q229
386 235 357T258 314T311 299V238Q276 238 259 224T235 182T229 110Q229 67 227 33T212 -26T172 -63T94 -76H53Z" />
<glyph unicode="~" horiz-adv-x="538" d="M360 223Q327 223 297 237T238 264T183 278Q164 278 152 268T138 235H72Q75 272 89 295T127 330T178 342Q214 342 243 329T299 301T355 287Q375 287 386 298T400 330H466Q463 295 449 271T411 235T360 223Z" />
<glyph unicode="&#xa0;" horiz-adv-x="308" />
<glyph unicode="&#xa1;" horiz-adv-x="173" d="M65 281L47 22V-151H139V22L122 281H65ZM94 446Q69 446 52 430T35 391Q35 367 52 352T94 336Q119 336 136 351T153 391Q153 414 136 430T94 446Z" />
<glyph unicode="&#xa2;" horiz-adv-x="466" d="M215 -88V483H273V-88H215ZM241 -10Q178 -10 129 17T52 91T24 201Q24 262 50 308T123 380T228 406Q285 406 322 381T370 318H352V397H424V249H359Q351 290 323 313T248 337Q210 337 181 321T135 274T118 204Q118
162 135 130T182 80T253 62Q302 62 334 80T392 127L426 70Q395 34 349 12T241 -10Z" />
<glyph unicode="&#xa3;" horiz-adv-x="528" d="M148 -10Q97 -10 68 16T38 83Q38 123 66 151T142 180Q172 180 196 169T242 142T284 109T325 81T371 70Q405 70 420 89T436 145H500V138Q500 70 471 31T380 -8Q344 -8 317 5T267 39T227 80T189 114T146 128Q124 128
110 116T96 82Q96 61 110 49T146 37Q171 37 188 51T215 90T225 147Q225 179 214 205T187 256T154 304T127 356T115 418Q115 468 137 503T201 558T297 578Q389 578 432 535T475 419H392Q392 462 371 487T304 512Q261 512 237 486T212 415Q212 386 220 361T242 312T268
264T290 215T299 159Q299 113 280 74T226 13T148 -10ZM69 264V319H430V264H69Z" />
<glyph unicode="&#xa4;" horiz-adv-x="617" d="M309 46Q237 46 181 78T92 167T59 294Q59 365 91 420T180 508T309 541Q380 541 436 509T525 421T558 294Q558 223 526 167T437 79T309 46ZM89 27L42 74L129 156L172 115L89 27ZM528 27L445 115L488 156L575 74L528
27ZM309 126Q356 126 393 148T452 208T474 294Q474 342 452 379T393 439T309 461Q261 461 224 439T165 380T143 294Q143 246 165 208T224 148T309 126ZM127 433L42 513L89 560L170 474L127 433ZM491 434L447 474L528 560L575 513L491 434Z" />
<glyph unicode="&#xa5;" horiz-adv-x="641" d="M136 227V275H506V227H136ZM136 131V180H506V131H136ZM192 0V66H270V234L82 501H12V567H265V501H196L333 300L465 501H396V567H628V501H557L375 235V66H453V0H192Z" />
<glyph unicode="&#xa6;" horiz-adv-x="165" d="M44 297V597H121V297H44ZM44 -140V160H121V-140H44Z" />
<glyph unicode="&#xa7;" horiz-adv-x="447" d="M227 -84Q171 -84 139 -71T92 -35T77 12Q77 39 93 52T135 65Q135 13 161 -17T235 -48Q280 -48 302 -26T325 35Q325 58 316 74T277 110T188 158Q142 181 115 202T75 248T63 303Q63 332 80 354T122 387Q104 403 93
426T81 484Q81 542 123 574T232 607Q279 607 309 595T355 562T370 516Q370 495 355 482T309 468Q308 493 301 516T277 555T229 570Q190 570 169 550T147 491Q147 465 158 448T193 419T249 389Q303 362 337 339T388 291T405 233Q405 203 391 177T353 136Q367 120
374 99T381 52Q381 -8 343 -46T227 -84ZM322 162Q332 171 336 183T341 211Q341 230 332 246T299 280T234 319Q224 324 212 330T188 342T166 354T148 365Q136 358 130 346T123 319Q123 295 133 279T168 248T236 210Q264 197 285 185T322 162Z" />
<glyph unicode="&#xa8;" horiz-adv-x="515" d="M155 463Q131 463 116 477T100 514Q100 539 115 552T155 566Q178 566 193 553T209 514Q209 491 194 477T155 463ZM361 463Q338 463 323 477T308 514Q308 539 323 552T361 566Q385 566 400 553T416 514Q416 491 401
477T361 463Z" />
<glyph unicode="&#xa9;" horiz-adv-x="748" d="M373 -14Q305 -14 248 8T148 72T83 169T59 292Q59 358 82 414T148 511T247 574T373 597Q442 597 499 575T599 511T665 414T689 292Q689 225 666 170T600 73T500 9T373 -14ZM373 36Q447 36 503 69T591 159T624 291Q624
365 592 423T503 514T373 547Q301 547 245 514T157 423T124 291Q124 217 156 160T245 69T373 36ZM379 121Q330 121 291 142T230 202T208 291Q208 331 221 362T257 416T311 449T375 461Q406 461 432 450T472 419V454H520V342H474Q467 376 442 395T381 414Q352 414
327 400T285 359T269 293Q269 255 284 227T324 183T381 167Q412 167 441 182T490 222L526 193Q504 160 464 141T379 121Z" />
<glyph unicode="&#xaa;" horiz-adv-x="379" d="M131 245Q80 245 51 272T21 339Q21 375 39 397T87 428T154 438Q173 438 193 436T231 431V457Q231 521 160 521Q138 521 109 514T53 490L30 539Q59 559 96 568T168 577Q211 577 242 564T291 524T309 462V306H359V252H242L237
280Q216 263 190 254T131 245ZM148 294Q170 294 192 301T231 323V388Q219 391 202 393T165 396Q137 396 116 385T94 342Q94 321 108 308T148 294Z" />
<glyph unicode="&#xab;" horiz-adv-x="485" d="M376 84L230 286L376 488H445L339 287L445 84H376ZM178 84L33 286L178 488H248L142 287L248 84H178Z" />
<glyph unicode="&#xac;" horiz-adv-x="532" d="M401 129V250H72V311H460V129H401Z" />
<glyph unicode="&#xad;" horiz-adv-x="357" d="M53 202V267H304V202H53Z" />
<glyph unicode="&#xae;" horiz-adv-x="748" d="M370 -11Q300 -11 243 12T145 77T83 173T61 291Q61 355 82 409T144 505T242 570T370 594Q442 594 499 571T596 506T659 409T681 291Q681 228 659 173T597 77T499 13T370 -11ZM370 40Q426 40 471 59T549 112T599 192T616
290Q616 342 599 388T550 469T472 523T370 543Q313 543 268 524T191 469T142 388T124 290Q124 238 141 192T190 112T267 59T370 40ZM231 140V171H275V429H230V460H389Q438 460 466 437T495 375Q495 344 475 322T418 293L487 171H532V140H455L375 288H321V171H363V140H231ZM321
321H388Q416 321 432 335T449 375Q449 400 433 414T390 429H321V321Z" />
<glyph unicode="&#xaf;" horiz-adv-x="424" d="M100 472V526H324V472H100Z" />
<glyph unicode="&#xb0;" horiz-adv-x="239" d="M120 376Q66 376 34 411T2 492Q2 538 34 573T120 608Q173 608 205 573T237 492Q237 446 205 411T120 376ZM121 414Q155 414 175 437T195 492Q195 523 175 546T120 570Q85 570 65 547T44 492Q44 461 64 438T121 414Z" />
<glyph unicode="&#xb1;" horiz-adv-x="577" d="M255 151V326H72V386H255V558H322V386H505V326H322V151H255ZM72 42V102H505V42H72Z" />
<glyph unicode="&#xb2;" horiz-adv-x="310" d="M25 298V342L123 430Q166 469 188 497T209 558Q208 582 194 597T149 613Q117 613 100 593T82 537Q82 528 83 518T88 497H29Q25 509 23 521T21 545Q21 580 36 607T80 651T151 668Q210 668 243 638T277 560Q277 513
248 477T166 396L73 314L61 349H231V407H283V298H25Z" />
<glyph unicode="&#xb3;" horiz-adv-x="320" d="M162 285Q108 285 70 308T20 374L74 401Q85 372 108 356T163 340Q193 340 211 355T229 399Q229 428 206 442T132 457L131 504Q179 504 199 518T219 559Q219 583 203 598T158 613Q128 613 108 598T78 558L22 582Q37
622 74 645T160 668Q218 668 252 641T287 567Q287 527 256 502T168 475V492Q235 491 267 463T300 389Q300 340 262 313T162 285Z" />
<glyph unicode="&#xb4;" horiz-adv-x="349" d="M100 473L150 626H249L157 473H100Z" />
<glyph unicode="&#xb5;" horiz-adv-x="529" d="M84 -133V333H23V395H179V136Q179 101 196 81T249 60Q280 60 306 72T358 106V333H294V395H451V62H519V0H363L361 42Q332 18 301 4T236 -10Q217 -10 203 -6T179 5V-133H84Z" />
<glyph unicode="&#xb6;" horiz-adv-x="547" d="M235 -2V63H348V242H225Q169 242 131 264T73 322T53 403Q53 447 73 483T135 541T243 563H514V499H438V63H513V-2H235ZM252 306L348 307V499H252V306Z" />
<glyph unicode="&#xb7;" horiz-adv-x="235" d="M118 216Q93 216 77 232T60 270Q60 293 76 308T118 324Q142 324 158 309T175 270Q175 248 159 232T118 216Z" />
<glyph unicode="&#xb8;" horiz-adv-x="364" d="M188 -183Q143 -183 100 -162V-130Q116 -135 130 -138T157 -141Q174 -141 184 -135T195 -114Q195 -100 181 -92T137 -82L169 0H208L192 -58Q230 -62 247 -80T265 -121Q265 -154 242 -168T188 -183Z" />
<glyph unicode="&#xb9;" horiz-adv-x="229" d="M20 298V346H79V601L22 593L21 638L150 656V346H209V298H20Z" />
<glyph unicode="&#xba;" horiz-adv-x="411" d="M205 245Q154 245 115 265T53 324T30 412Q30 463 52 499T115 556T205 577Q257 577 296 557T358 500T381 412Q381 362 358 324T296 266T205 245ZM205 303Q232 303 253 316T287 353T300 412Q300 446 288 469T254 506T205
519Q179 519 158 506T124 469T111 411Q111 378 123 354T157 317T205 303Z" />
<glyph unicode="&#xbb;" horiz-adv-x="477" d="M241 84L346 287L241 488H311L456 287L311 84H241ZM44 84L149 287L44 488H113L258 287L113 84H44Z" />
<glyph unicode="&#xbc;" horiz-adv-x="719" d="M44 476V524H103V779L46 771L45 816L174 834V524H233V476H44ZM138 -1L512 570H569L196 -1H138ZM492 0V47H548V95H379L373 133L548 358H613V139H676V95H613V47H668V0H492ZM438 139H548V282L438 139Z" />
<glyph unicode="&#xbd;" horiz-adv-x="748" d="M44 475V523H103V778L46 770L45 815L174 833V523H233V475H44ZM136 -1L510 570H567L194 -1H136ZM446 0V44L544 132Q587 171 609 199T630 260Q629 284 615 299T570 315Q538 315 521 295T503 239Q503 230 504 220T509
199H450Q446 211 444 223T442 247Q442 282 457 309T501 353T572 370Q631 370 664 340T698 262Q698 215 669 179T587 98L494 16L482 51H652V109H704V0H446Z" />
<glyph unicode="&#xbe;" horiz-adv-x="788" d="M186 461Q132 461 94 484T44 550L98 577Q109 548 132 532T187 516Q217 516 235 531T253 575Q253 604 230 618T156 633L155 680Q203 680 223 694T243 735Q243 759 227 774T182 789Q152 789 132 774T102 734L46 758Q61
798 98 821T184 844Q242 844 276 817T311 743Q311 703 280 678T192 651V668Q259 667 291 639T324 565Q324 516 286 489T186 461ZM211 -1L585 570H642L269 -1H211ZM561 0V47H617V95H448L442 133L617 358H682V139H745V95H682V47H737V0H561ZM507 139H617V282L507 139Z"
/>
<glyph unicode="&#xbf;" horiz-adv-x="417" d="M281 278V269Q281 232 272 206T245 158T201 110Q169 77 155 51T140 -9Q140 -48 162 -68T219 -88Q260 -88 282 -65T307 2H403Q401 -54 375 -90T308 -144T216 -162Q133 -162 85 -122T37 -17Q37 29 61 62T126 135Q151
159 165 177T185 216T191 269V278H281ZM236 443Q261 443 278 427T295 387Q295 363 278 348T236 332Q210 332 193 347T176 387Q176 411 193 427T236 443Z" />
<glyph unicode="&#xc0;" horiz-adv-x="690" d="M26 0V66H95L252 501H191V567H499V501H436L598 66H663V0H416V66H488L438 214H241L191 66H261V0H26ZM260 278H418L343 500H338L260 278ZM315 645L224 798H322L373 645H315Z" />
<glyph unicode="&#xc1;" horiz-adv-x="690" d="M26 0V66H95L252 501H191V567H499V501H436L598 66H663V0H416V66H488L438 214H241L191 66H261V0H26ZM260 278H418L343 500H338L260 278ZM317 645L367 798H466L374 645H317Z" />
<glyph unicode="&#xc2;" horiz-adv-x="690" d="M26 0V66H95L252 501H191V567H499V501H436L598 66H663V0H416V66H488L438 214H241L191 66H261V0H26ZM260 278H418L343 500H338L260 278ZM212 624L296 786H394L478 624H412L345 746L278 624H212Z" />
<glyph unicode="&#xc3;" horiz-adv-x="690" d="M26 0V66H95L252 501H191V567H499V501H436L598 66H663V0H416V66H488L438 214H241L191 66H261V0H26ZM260 278H418L343 500H338L260 278ZM410 642Q387 642 362 652T313 672T273 682Q245 682 240 647H198Q203 702 226
726T283 750Q304 750 328 741T376 721T414 710Q430 710 439 718T453 747H493Q489 699 469 671T410 642Z" />
<glyph unicode="&#xc4;" horiz-adv-x="690" d="M26 0V66H95L252 501H191V567H499V501H436L598 66H663V0H416V66H488L438 214H241L191 66H261V0H26ZM260 278H418L343 500H338L260 278ZM242 635Q218 635 203 649T187 686Q187 711 202 724T242 738Q265 738 280 725T296
686Q296 663 281 649T242 635ZM448 635Q425 635 410 649T395 686Q395 711 410 724T448 738Q472 738 487 725T503 686Q503 663 488 649T448 635Z" />
<glyph unicode="&#xc5;" horiz-adv-x="690" d="M26 0V66H95L252 501H191V567H499V501H436L598 66H663V0H416V66H488L438 214H241L191 66H261V0H26ZM260 278H418L343 500H338L260 278ZM345 607Q306 607 284 629T262 686Q262 720 284 742T345 764Q385 764 406 742T428
686Q428 652 406 630T345 607ZM345 642Q366 642 377 654T389 686Q389 705 378 717T345 730Q324 730 312 718T300 686Q300 667 312 655T345 642Z" />
<glyph unicode="&#xc6;" horiz-adv-x="974" d="M20 0V66H91L352 501H292V567H883L894 382H820L811 501H554L565 322H720L716 386H768L781 190H729L723 256H567L578 67H844L836 188H910L921 0H403V66H474L465 204H273L196 66H260V0H20ZM304 266H463L450 501H441L304 266Z" />
<glyph unicode="&#xc7;" horiz-adv-x="679" d="M350 -11Q282 -11 227 10T130 70T68 163T46 284Q46 370 83 436T188 540T345 577Q402 577 446 560T520 512T563 440L536 448V567H610V387L545 386Q515 447 470 474T360 502Q296 502 250 474T178 396T153 285Q153 235
168 195T210 125T275 80T356 64Q398 64 434 77T499 120T543 197L623 163Q602 102 562 64T468 8T350 -11ZM344 -183Q299 -183 256 -162V-130Q272 -135 286 -138T313 -141Q330 -141 340 -135T351 -114Q351 -100 337 -92T293 -82L325 0H364L348 -58Q386 -62 403 -80T421
-121Q421 -154 398 -168T344 -183Z" />
<glyph unicode="&#xc8;" horiz-adv-x="601" d="M41 0V66H114V501H41V567H547V391H472V501H219V326H371V389H424V195H371V260H219V67H477V181H551V0H41ZM289 645L198 798H296L347 645H289Z" />
<glyph unicode="&#xc9;" horiz-adv-x="601" d="M41 0V66H114V501H41V567H547V391H472V501H219V326H371V389H424V195H371V260H219V67H477V181H551V0H41ZM291 645L341 798H440L348 645H291Z" />
<glyph unicode="&#xca;" horiz-adv-x="601" d="M41 0V66H114V501H41V567H547V391H472V501H219V326H371V389H424V195H371V260H219V67H477V181H551V0H41ZM186 624L270 786H368L452 624H386L319 746L252 624H186Z" />
<glyph unicode="&#xcb;" horiz-adv-x="601" d="M41 0V66H114V501H41V567H547V391H472V501H219V326H371V389H424V195H371V260H219V67H477V181H551V0H41ZM216 635Q192 635 177 649T161 686Q161 711 176 724T216 738Q239 738 254 725T270 686Q270 663 255 649T216
635ZM422 635Q399 635 384 649T369 686Q369 711 384 724T422 738Q446 738 461 725T477 686Q477 663 462 649T422 635Z" />
<glyph unicode="&#xcc;" horiz-adv-x="351" d="M50 0V66H122V501H50V567H301V501H228V66H301V0H50ZM146 645L55 798H153L204 645H146Z" />
<glyph unicode="&#xcd;" horiz-adv-x="351" d="M50 0V66H122V501H50V567H301V501H228V66H301V0H50ZM148 645L198 798H297L205 645H148Z" />
<glyph unicode="&#xce;" horiz-adv-x="351" d="M50 0V66H122V501H50V567H301V501H228V66H301V0H50ZM43 624L127 786H225L309 624H243L176 746L109 624H43Z" />
<glyph unicode="&#xcf;" horiz-adv-x="351" d="M50 0V66H122V501H50V567H301V501H228V66H301V0H50ZM73 635Q49 635 34 649T18 686Q18 711 33 724T73 738Q96 738 111 725T127 686Q127 663 112 649T73 635ZM279 635Q256 635 241 649T226 686Q226 711 241 724T279
738Q303 738 318 725T334 686Q334 663 319 649T279 635Z" />
<glyph unicode="&#xd0;" horiz-adv-x="702" d="M42 0V66H114V501H42V567H358Q433 567 487 544T579 482T633 392T651 288Q651 225 633 173T579 82T487 22T359 0H42ZM220 66H345Q397 66 435 83T496 129T531 199T543 287Q543 329 531 367T496 436T435 483T347 501H220V66ZM298
257V322H549V257H298Z" />
<glyph unicode="&#xd1;" horiz-adv-x="716" d="M43 0V66H117V501H43V567H238L539 136V501H463V567H688V501H615V0H510L192 459V66H268V0H43ZM427 642Q404 642 379 652T330 672T290 682Q262 682 257 647H215Q220 702 243 726T300 750Q321 750 345 741T393 721T431
710Q447 710 456 718T470 747H510Q506 699 486 671T427 642Z" />
<glyph unicode="&#xd2;" horiz-adv-x="714" d="M357 -11Q286 -11 229 11T131 74T68 168T46 282Q46 343 68 396T130 490T228 554T357 577Q427 577 484 554T583 491T646 397T668 282Q668 221 646 168T583 75T485 12T357 -11ZM357 64Q403 64 440 81T504 128T543 197T557
283Q557 329 544 369T504 439T441 486T357 503Q309 503 273 486T210 439T171 368T158 282Q158 236 171 197T210 127T272 81T357 64ZM326 645L235 798H333L384 645H326Z" />
<glyph unicode="&#xd3;" horiz-adv-x="714" d="M357 -11Q286 -11 229 11T131 74T68 168T46 282Q46 343 68 396T130 490T228 554T357 577Q427 577 484 554T583 491T646 397T668 282Q668 221 646 168T583 75T485 12T357 -11ZM357 64Q403 64 440 81T504 128T543 197T557
283Q557 329 544 369T504 439T441 486T357 503Q309 503 273 486T210 439T171 368T158 282Q158 236 171 197T210 127T272 81T357 64ZM328 645L378 798H477L385 645H328Z" />
<glyph unicode="&#xd4;" horiz-adv-x="714" d="M357 -11Q286 -11 229 11T131 74T68 168T46 282Q46 343 68 396T130 490T228 554T357 577Q427 577 484 554T583 491T646 397T668 282Q668 221 646 168T583 75T485 12T357 -11ZM357 64Q403 64 440 81T504 128T543 197T557
283Q557 329 544 369T504 439T441 486T357 503Q309 503 273 486T210 439T171 368T158 282Q158 236 171 197T210 127T272 81T357 64ZM223 624L307 786H405L489 624H423L356 746L289 624H223Z" />
<glyph unicode="&#xd5;" horiz-adv-x="714" d="M357 -11Q286 -11 229 11T131 74T68 168T46 282Q46 343 68 396T130 490T228 554T357 577Q427 577 484 554T583 491T646 397T668 282Q668 221 646 168T583 75T485 12T357 -11ZM357 64Q403 64 440 81T504 128T543 197T557
283Q557 329 544 369T504 439T441 486T357 503Q309 503 273 486T210 439T171 368T158 282Q158 236 171 197T210 127T272 81T357 64ZM421 642Q398 642 373 652T324 672T284 682Q256 682 251 647H209Q214 702 237 726T294 750Q315 750 339 741T387 721T425 710Q441
710 450 718T464 747H504Q500 699 480 671T421 642Z" />
<glyph unicode="&#xd6;" horiz-adv-x="714" d="M357 -11Q286 -11 229 11T131 74T68 168T46 282Q46 343 68 396T130 490T228 554T357 577Q427 577 484 554T583 491T646 397T668 282Q668 221 646 168T583 75T485 12T357 -11ZM357 64Q403 64 440 81T504 128T543 197T557
283Q557 329 544 369T504 439T441 486T357 503Q309 503 273 486T210 439T171 368T158 282Q158 236 171 197T210 127T272 81T357 64ZM253 635Q229 635 214 649T198 686Q198 711 213 724T253 738Q276 738 291 725T307 686Q307 663 292 649T253 635ZM459 635Q436 635
421 649T406 686Q406 711 421 724T459 738Q483 738 498 725T514 686Q514 663 499 649T459 635Z" />
<glyph unicode="&#xd7;" horiz-adv-x="498" d="M75 61L30 107L204 280L34 452L78 496L249 325L422 498L468 454L294 280L464 109L420 66L250 236L75 61Z" />
<glyph unicode="&#xd8;" horiz-adv-x="669" d="M125 -41L80 -9L553 600L598 568L125 -41ZM334 -12Q264 -12 207 10T108 73T45 167T23 281Q23 342 45 395T108 489T206 553T334 576Q405 576 462 553T561 490T624 396T646 281Q646 220 624 167T561 74T463 11T334
-12ZM334 64Q381 64 418 80T481 127T521 196T534 282Q534 328 521 368T482 438T418 485T334 502Q287 502 251 485T188 438T149 367T135 281Q135 235 148 196T188 126T250 80T334 64Z" />
<glyph unicode="&#xd9;" horiz-adv-x="676" d="M341 -10Q257 -10 204 17T124 93T98 206V501H28V567H275V501H203V198Q203 155 220 125T269 78T346 62Q395 62 428 78T480 124T498 198V501H431V567H654V501H583V201Q583 130 553 84T469 14T341 -10ZM319 645L228
798H326L377 645H319Z" />
<glyph unicode="&#xda;" horiz-adv-x="676" d="M341 -10Q257 -10 204 17T124 93T98 206V501H28V567H275V501H203V198Q203 155 220 125T269 78T346 62Q395 62 428 78T480 124T498 198V501H431V567H654V501H583V201Q583 130 553 84T469 14T341 -10ZM321 645L371
798H470L378 645H321Z" />
<glyph unicode="&#xdb;" horiz-adv-x="676" d="M341 -10Q257 -10 204 17T124 93T98 206V501H28V567H275V501H203V198Q203 155 220 125T269 78T346 62Q395 62 428 78T480 124T498 198V501H431V567H654V501H583V201Q583 130 553 84T469 14T341 -10ZM216 624L300
786H398L482 624H416L349 746L282 624H216Z" />
<glyph unicode="&#xdc;" horiz-adv-x="676" d="M341 -10Q257 -10 204 17T124 93T98 206V501H28V567H275V501H203V198Q203 155 220 125T269 78T346 62Q395 62 428 78T480 124T498 198V501H431V567H654V501H583V201Q583 130 553 84T469 14T341 -10ZM246 635Q222
635 207 649T191 686Q191 711 206 724T246 738Q269 738 284 725T300 686Q300 663 285 649T246 635ZM452 635Q429 635 414 649T399 686Q399 711 414 724T452 738Q476 738 491 725T507 686Q507 663 492 649T452 635Z" />
<glyph unicode="&#xdd;" horiz-adv-x="643" d="M194 0V66H271V234L83 501H13V567H266V501H198L334 300L467 501H397V567H630V501H558L376 235V66H455V0H194ZM304 645L354 798H453L361 645H304Z" />
<glyph unicode="&#xde;" horiz-adv-x="574" d="M50 0V66H122V501H50V567H303V501H228V429L208 441H344Q442 441 492 405T542 302Q542 230 492 195T346 159H260V211H337Q385 211 412 233T439 302Q439 341 412 363T336 385H208L228 399V66H303V0H50Z" />
<glyph unicode="&#xdf;" horiz-adv-x="545" d="M18 0V63H88V388Q88 482 140 534T286 587Q370 587 416 548T462 442Q462 390 431 354T345 310V319Q397 317 436 299T498 249T521 165Q521 81 460 41T292 0V63Q331 63 360 73T405 107T421 168Q421 225 386 250T288
276H271V336H288Q329 338 351 363T374 430Q374 469 352 492T289 516Q239 516 213 483T186 394V63H241V0H18Z" />
<glyph unicode="&#xe0;" horiz-adv-x="463" d="M171 -11Q110 -11 74 22T37 106Q37 151 58 178T116 218T195 230Q229 230 263 224T326 209L298 204V252Q298 296 275 317T210 339Q182 339 146 330T76 303L51 361Q90 383 135 394T220 405Q274 405 312 388T371 337T391
259V62H449V0H311L301 58H331Q294 23 257 6T171 -11ZM193 47Q226 47 258 61T325 106L298 70V181L320 162Q298 170 269 175T208 180Q176 180 150 166T124 112Q124 84 142 66T193 47ZM193 473L102 626H200L251 473H193Z" />
<glyph unicode="&#xe1;" horiz-adv-x="463" d="M171 -11Q110 -11 74 22T37 106Q37 151 58 178T116 218T195 230Q229 230 263 224T326 209L298 204V252Q298 296 275 317T210 339Q182 339 146 330T76 303L51 361Q90 383 135 394T220 405Q274 405 312 388T371 337T391
259V62H449V0H311L301 58H331Q294 23 257 6T171 -11ZM193 47Q226 47 258 61T325 106L298 70V181L320 162Q298 170 269 175T208 180Q176 180 150 166T124 112Q124 84 142 66T193 47ZM195 473L245 626H344L252 473H195Z" />
<glyph unicode="&#xe2;" horiz-adv-x="463" d="M171 -11Q110 -11 74 22T37 106Q37 151 58 178T116 218T195 230Q229 230 263 224T326 209L298 204V252Q298 296 275 317T210 339Q182 339 146 330T76 303L51 361Q90 383 135 394T220 405Q274 405 312 388T371 337T391
259V62H449V0H311L301 58H331Q294 23 257 6T171 -11ZM193 47Q226 47 258 61T325 106L298 70V181L320 162Q298 170 269 175T208 180Q176 180 150 166T124 112Q124 84 142 66T193 47ZM90 452L174 614H272L356 452H290L223 574L156 452H90Z" />
<glyph unicode="&#xe3;" horiz-adv-x="463" d="M171 -11Q110 -11 74 22T37 106Q37 151 58 178T116 218T195 230Q229 230 263 224T326 209L298 204V252Q298 296 275 317T210 339Q182 339 146 330T76 303L51 361Q90 383 135 394T220 405Q274 405 312 388T371 337T391
259V62H449V0H311L301 58H331Q294 23 257 6T171 -11ZM193 47Q226 47 258 61T325 106L298 70V181L320 162Q298 170 269 175T208 180Q176 180 150 166T124 112Q124 84 142 66T193 47ZM288 470Q265 470 240 480T191 500T151 510Q123 510 118 475H76Q81 530 104 554T161
578Q182 578 206 569T254 549T292 538Q308 538 317 546T331 575H371Q367 527 347 499T288 470Z" />
<glyph unicode="&#xe4;" horiz-adv-x="463" d="M171 -11Q110 -11 74 22T37 106Q37 151 58 178T116 218T195 230Q229 230 263 224T326 209L298 204V252Q298 296 275 317T210 339Q182 339 146 330T76 303L51 361Q90 383 135 394T220 405Q274 405 312 388T371 337T391
259V62H449V0H311L301 58H331Q294 23 257 6T171 -11ZM193 47Q226 47 258 61T325 106L298 70V181L320 162Q298 170 269 175T208 180Q176 180 150 166T124 112Q124 84 142 66T193 47ZM120 463Q96 463 81 477T65 514Q65 539 80 552T120 566Q143 566 158 553T174 514Q174
491 159 477T120 463ZM326 463Q303 463 288 477T273 514Q273 539 288 552T326 566Q350 566 365 553T381 514Q381 491 366 477T326 463Z" />
<glyph unicode="&#xe5;" horiz-adv-x="463" d="M171 -11Q110 -11 74 22T37 106Q37 151 58 178T116 218T195 230Q229 230 263 224T326 209L298 204V252Q298 296 275 317T210 339Q182 339 146 330T76 303L51 361Q90 383 135 394T220 405Q274 405 312 388T371 337T391
259V62H449V0H311L301 58H331Q294 23 257 6T171 -11ZM193 47Q226 47 258 61T325 106L298 70V181L320 162Q298 170 269 175T208 180Q176 180 150 166T124 112Q124 84 142 66T193 47ZM223 435Q184 435 162 457T140 514Q140 548 162 570T223 592Q263 592 284 570T306
514Q306 480 284 458T223 435ZM223 470Q244 470 255 482T267 514Q267 533 256 545T223 558Q202 558 190 546T178 514Q178 495 190 483T223 470Z" />
<glyph unicode="&#xe6;" horiz-adv-x="735" d="M179 -11Q114 -11 76 22T37 106Q37 151 60 178T121 216T206 228H298V253Q298 297 275 318T210 339Q182 339 146 330T76 303L51 361Q89 383 134 394T219 405Q252 405 279 399T326 379T360 348Q389 375 427 390T511
406Q572 406 615 381T682 309T705 201V180H394Q398 142 416 116T462 75T526 60Q569 60 605 76T669 118L699 61Q670 30 626 9T523 -12Q468 -12 424 7T350 59Q310 23 269 6T179 -11ZM199 47Q231 47 260 60T322 99Q312 116 307 135T300 177H217Q193 177 172 171T137
151T124 112Q124 84 143 66T199 47ZM393 231H614Q614 265 601 290T564 327T509 340Q478 340 454 328T414 290T393 231Z" />
<glyph unicode="&#xe7;" horiz-adv-x="466" d="M241 -10Q178 -10 129 17T52 91T24 201Q24 262 50 308T123 380T228 406Q285 406 322 381T370 318H352V397H424V249H359Q351 290 323 313T248 337Q210 337 181 321T135 274T118 204Q118 162 135 130T182 80T253 62Q302
62 334 80T392 127L426 70Q395 34 349 12T241 -10ZM243 -183Q198 -183 155 -162V-130Q171 -135 185 -138T212 -141Q229 -141 239 -135T250 -114Q250 -100 236 -92T192 -82L224 0H263L247 -58Q285 -62 302 -80T320 -121Q320 -154 297 -168T243 -183Z" />
<glyph unicode="&#xe8;" horiz-adv-x="460" d="M247 -12Q183 -12 133 14T53 87T23 197Q23 261 51 307T126 380T234 406Q295 406 338 381T405 309T429 201V180H93L94 231H338Q338 265 325 290T288 327T233 340Q199 340 173 324T131 278T116 206Q116 160 133 128T180
78T251 60Q293 60 329 76T393 118L423 61Q394 30 350 9T247 -12ZM209 473L118 626H216L267 473H209Z" />
<glyph unicode="&#xe9;" horiz-adv-x="460" d="M247 -12Q183 -12 133 14T53 87T23 197Q23 261 51 307T126 380T234 406Q295 406 338 381T405 309T429 201V180H93L94 231H338Q338 265 325 290T288 327T233 340Q199 340 173 324T131 278T116 206Q116 160 133 128T180
78T251 60Q293 60 329 76T393 118L423 61Q394 30 350 9T247 -12ZM211 473L261 626H360L268 473H211Z" />
<glyph unicode="&#xea;" horiz-adv-x="460" d="M247 -12Q183 -12 133 14T53 87T23 197Q23 261 51 307T126 380T234 406Q295 406 338 381T405 309T429 201V180H93L94 231H338Q338 265 325 290T288 327T233 340Q199 340 173 324T131 278T116 206Q116 160 133 128T180
78T251 60Q293 60 329 76T393 118L423 61Q394 30 350 9T247 -12ZM106 452L190 614H288L372 452H306L239 574L172 452H106Z" />
<glyph unicode="&#xeb;" horiz-adv-x="460" d="M247 -12Q183 -12 133 14T53 87T23 197Q23 261 51 307T126 380T234 406Q295 406 338 381T405 309T429 201V180H93L94 231H338Q338 265 325 290T288 327T233 340Q199 340 173 324T131 278T116 206Q116 160 133 128T180
78T251 60Q293 60 329 76T393 118L423 61Q394 30 350 9T247 -12ZM136 463Q112 463 97 477T81 514Q81 539 96 552T136 566Q159 566 174 553T190 514Q190 491 175 477T136 463ZM342 463Q319 463 304 477T289 514Q289 539 304 552T342 566Q366 566 381 553T397 514Q397
491 382 477T342 463Z" />
<glyph unicode="&#xec;" horiz-adv-x="273" d="M20 0V64H92V331H22V395H185V64H251V0H20ZM101 473L10 626H108L159 473H101Z" />
<glyph unicode="&#xed;" horiz-adv-x="273" d="M20 0V64H92V331H22V395H185V64H251V0H20ZM103 473L153 626H252L160 473H103Z" />
<glyph unicode="&#xee;" horiz-adv-x="273" d="M20 0V64H92V331H22V395H185V64H251V0H20ZM-2 452L82 614H180L264 452H198L131 574L64 452H-2Z" />
<glyph unicode="&#xef;" horiz-adv-x="273" d="M20 0V64H92V331H22V395H185V64H251V0H20ZM28 463Q4 463 -11 477T-27 514Q-27 539 -12 552T28 566Q51 566 66 553T82 514Q82 491 67 477T28 463ZM234 463Q211 463 196 477T181 514Q181 539 196 552T234 566Q258 566
273 553T289 514Q289 491 274 477T234 463Z" />
<glyph unicode="&#xf0;" horiz-adv-x="482" d="M242 -10Q176 -10 131 16T61 86T37 187Q37 243 60 288T126 359T231 385Q269 385 294 374T329 356Q306 401 265 446T174 535T72 616L117 671Q162 636 209 598T299 516T375 424T429 319T449 199Q449 136 423 90T350
17T242 -10ZM242 63Q284 63 310 82T348 130T361 194Q361 232 347 259T306 301T242 316Q206 316 180 300T140 255T126 187Q126 154 139 126T179 81T242 63ZM106 428L80 480L378 613L405 562L106 428Z" />
<glyph unicode="&#xf1;" horiz-adv-x="524" d="M20 0V62H90V333H20V395H180L181 342L151 336Q193 367 235 386T322 405Q379 405 416 370T453 272V62H520V0H301V62H360V255Q360 293 342 314T290 336Q258 336 225 322T154 281L183 321V62H247V0H20ZM343 470Q320
470 295 480T246 500T206 510Q178 510 173 475H131Q136 530 159 554T216 578Q237 578 261 569T309 549T347 538Q363 538 372 546T386 575H426Q422 527 402 499T343 470Z" />
<glyph unicode="&#xf2;" horiz-adv-x="478" d="M238 -12Q174 -12 126 14T50 88T23 198Q23 261 50 307T125 380T238 406Q303 406 351 380T427 308T454 199Q454 136 427 89T352 15T238 -12ZM238 61Q276 61 303 78T346 126T362 199Q362 240 347 270T304 316T238 333Q201
333 174 317T131 270T116 198Q116 157 131 126T173 78T238 61ZM208 473L117 626H215L266 473H208Z" />
<glyph unicode="&#xf3;" horiz-adv-x="478" d="M238 -12Q174 -12 126 14T50 88T23 198Q23 261 50 307T125 380T238 406Q303 406 351 380T427 308T454 199Q454 136 427 89T352 15T238 -12ZM238 61Q276 61 303 78T346 126T362 199Q362 240 347 270T304 316T238 333Q201
333 174 317T131 270T116 198Q116 157 131 126T173 78T238 61ZM210 473L260 626H359L267 473H210Z" />
<glyph unicode="&#xf4;" horiz-adv-x="478" d="M238 -12Q174 -12 126 14T50 88T23 198Q23 261 50 307T125 380T238 406Q303 406 351 380T427 308T454 199Q454 136 427 89T352 15T238 -12ZM238 61Q276 61 303 78T346 126T362 199Q362 240 347 270T304 316T238 333Q201
333 174 317T131 270T116 198Q116 157 131 126T173 78T238 61ZM105 452L189 614H287L371 452H305L238 574L171 452H105Z" />
<glyph unicode="&#xf5;" horiz-adv-x="478" d="M238 -12Q174 -12 126 14T50 88T23 198Q23 261 50 307T125 380T238 406Q303 406 351 380T427 308T454 199Q454 136 427 89T352 15T238 -12ZM238 61Q276 61 303 78T346 126T362 199Q362 240 347 270T304 316T238 333Q201
333 174 317T131 270T116 198Q116 157 131 126T173 78T238 61ZM303 470Q280 470 255 480T206 500T166 510Q138 510 133 475H91Q96 530 119 554T176 578Q197 578 221 569T269 549T307 538Q323 538 332 546T346 575H386Q382 527 362 499T303 470Z" />
<glyph unicode="&#xf6;" horiz-adv-x="478" d="M238 -12Q174 -12 126 14T50 88T23 198Q23 261 50 307T125 380T238 406Q303 406 351 380T427 308T454 199Q454 136 427 89T352 15T238 -12ZM238 61Q276 61 303 78T346 126T362 199Q362 240 347 270T304 316T238 333Q201
333 174 317T131 270T116 198Q116 157 131 126T173 78T238 61ZM135 463Q111 463 96 477T80 514Q80 539 95 552T135 566Q158 566 173 553T189 514Q189 491 174 477T135 463ZM341 463Q318 463 303 477T288 514Q288 539 303 552T341 566Q365 566 380 553T396 514Q396
491 381 477T341 463Z" />
<glyph unicode="&#xf7;" horiz-adv-x="581" d="M72 250V311H509V250H72ZM243 54V150H339V54H243ZM243 411V507H339V411H243Z" />
<glyph unicode="&#xf8;" horiz-adv-x="491" d="M126 -62L89 -43L357 454L394 436L126 -62ZM238 -12Q174 -12 126 14T50 88T23 198Q23 261 50 307T125 380T238 406Q303 406 351 380T427 308T454 199Q454 136 427 89T352 15T238 -12ZM238 61Q276 61 303 78T346 126T362
199Q362 240 347 270T304 316T238 333Q201 333 174 317T131 270T116 198Q116 157 131 126T173 78T238 61Z" />
<glyph unicode="&#xf9;" horiz-adv-x="518" d="M205 -10Q159 -10 130 8T86 57T72 124V333H11V395H167V136Q167 101 183 81T235 60Q274 60 307 78T371 130L346 84V333H282V395H439V62H507V0H351L347 62L376 69Q337 32 295 11T205 -10ZM213 473L122 626H220L271 473H213Z" />
<glyph unicode="&#xfa;" horiz-adv-x="518" d="M205 -10Q159 -10 130 8T86 57T72 124V333H11V395H167V136Q167 101 183 81T235 60Q274 60 307 78T371 130L346 84V333H282V395H439V62H507V0H351L347 62L376 69Q337 32 295 11T205 -10ZM215 473L265 626H364L272 473H215Z" />
<glyph unicode="&#xfb;" horiz-adv-x="518" d="M205 -10Q159 -10 130 8T86 57T72 124V333H11V395H167V136Q167 101 183 81T235 60Q274 60 307 78T371 130L346 84V333H282V395H439V62H507V0H351L347 62L376 69Q337 32 295 11T205 -10ZM110 452L194 614H292L376
452H310L243 574L176 452H110Z" />
<glyph unicode="&#xfc;" horiz-adv-x="518" d="M205 -10Q159 -10 130 8T86 57T72 124V333H11V395H167V136Q167 101 183 81T235 60Q274 60 307 78T371 130L346 84V333H282V395H439V62H507V0H351L347 62L376 69Q337 32 295 11T205 -10ZM140 463Q116 463 101 477T85
514Q85 539 100 552T140 566Q163 566 178 553T194 514Q194 491 179 477T140 463ZM346 463Q323 463 308 477T293 514Q293 539 308 552T346 566Q370 566 385 553T401 514Q401 491 386 477T346 463Z" />
<glyph unicode="&#xfd;" horiz-adv-x="520" d="M98 -162V-89H140Q166 -89 182 -85T209 -67T231 -26L251 25H218L71 333H6V395H222V333H167L275 90L373 333H310V395H518V333H461L309 -24Q289 -71 272 -101T227 -147T147 -162H98ZM238 473L288 626H387L295 473H238Z" />
<glyph unicode="&#xfe;" horiz-adv-x="537" d="M18 -167V-103H81V499H15V563H176V358Q208 385 244 398T318 411Q373 411 415 387T482 318T507 208Q507 141 480 94T408 21T309 -4Q272 -4 237 9T176 47V-103H244V-167H18ZM284 66Q338 66 373 101T409 203Q409 267
375 303T289 340Q261 340 232 328T176 290V111Q199 89 228 78T284 66Z" />
<glyph unicode="&#xff;" horiz-adv-x="520" d="M98 -162V-89H140Q166 -89 182 -85T209 -67T231 -26L251 25H218L71 333H6V395H222V333H167L275 90L373 333H310V395H518V333H461L309 -24Q289 -71 272 -101T227 -147T147 -162H98ZM163 463Q139 463 124 477T108 514Q108
539 123 552T163 566Q186 566 201 553T217 514Q217 491 202 477T163 463ZM369 463Q346 463 331 477T316 514Q316 539 331 552T369 566Q393 566 408 553T424 514Q424 491 409 477T369 463Z" />
<glyph unicode="&#x2013;" horiz-adv-x="645" d="M0 202V267H645V202H0Z" />
<glyph unicode="&#x2014;" horiz-adv-x="761" d="M0 202V267H761V202H0Z" />
<glyph unicode="&#x2018;" horiz-adv-x="214" d="M175 595V554Q145 550 133 533T120 475H174V372H66V457Q66 524 91 559T175 595Z" />
<glyph unicode="&#x2019;" horiz-adv-x="214" d="M39 372V413Q69 417 81 434T94 492H40V595H148V510Q148 443 123 408T39 372Z" />
<glyph unicode="&#x201a;" horiz-adv-x="214" d="M295 -120V-79Q325 -75 337 -58T350 0H296V103H404V18Q404 -49 379 -84T295 -120Z" />
<glyph unicode="&#x201c;" horiz-adv-x="366" d="M327 595V554Q297 550 285 533T272 475H326V372H218V457Q218 524 243 559T327 595ZM175 595V554Q145 550 133 533T120 475H174V372H66V457Q66 524 91 559T175 595Z" />
<glyph unicode="&#x201d;" horiz-adv-x="366" d="M39 372V413Q69 417 81 434T94 492H40V595H148V510Q148 443 123 408T39 372ZM191 372V413Q221 417 233 434T246 492H192V595H300V510Q300 443 275 408T191 372Z" />
<glyph unicode="&#x201e;" horiz-adv-x="366" d="M295 -120V-79Q325 -75 337 -58T350 0H296V103H404V18Q404 -49 379 -84T295 -120ZM191 -120V-79Q221 -75 233 -58T246 0H192V103H300V18Q300 -49 275 -84T191 -120Z" />
<glyph unicode="&#x2022;" horiz-adv-x="274" d="M137 150Q107 150 85 164T50 200T37 246Q37 285 65 313T137 342Q182 342 209 315T237 246Q237 206 210 178T137 150Z" />
<glyph unicode="&#x2039;" horiz-adv-x="314" d="M177 84L27 286L177 488H246L141 287L246 84H177Z" />
<glyph unicode="&#x203a;" horiz-adv-x="314" d="M71 84L177 287L71 488H141L291 288L141 84H71Z" />
</font>
</defs>
</svg>
