<?xml version="1.0" standalone="no"?>
<!DOCTYPE svg PUBLIC "-//W3C//DTD SVG 1.1//EN" "http://www.w3.org/Graphics/SVG/1.1/DTD/svg11.dtd">
<svg xmlns="http://www.w3.org/2000/svg">
<defs >
<font id="Rokkitt" horiz-adv-x="531" ><font-face
    font-family="Rokkitt Black"
    units-per-em="1000"
    panose-1="0 0 0 0 0 0 0 0 0 0"
    ascent="817"
    descent="-320"
    alphabetic="0" />
<glyph unicode=" " horiz-adv-x="320" />
<glyph unicode="!" horiz-adv-x="232" d="M62 179L32 418V603H181V418L151 179H62ZM111 -10Q74 -10 52 11T30 64Q30 96 52 116T111 137Q148 137 170 117T192 64Q192 33 170 12T111 -10Z" />
<glyph unicode="&quot;" horiz-adv-x="398" d="M59 430L40 660H178L159 430H59ZM239 430L220 660H358L339 430H239Z" />
<glyph unicode="#" horiz-adv-x="664" d="M109 1L141 135H32L52 224H162L191 346H89L109 435H211L240 554H357L328 435H409L437 554H554L525 435H643L624 346H505L476 224H585L566 135H455L422 1H307L339 135H258L225 1H109ZM278 224H359L388 346H308L278 224Z" />
<glyph unicode="$" horiz-adv-x="642" d="M298 -84V661H348V-84H298ZM375 -10Q333 -10 287 3T205 42T160 105H186V0H56V199H171Q189 169 213 147T269 112T336 99Q362 99 378 110T394 144Q394 160 387 171T362 189T317 203L237 220Q140 242 96 288T51 414Q51 466
75 506T145 570T249 593Q321 593 371 570T457 502H433V583H553V411H443Q431 430 411 446T365 473T306 484Q281 484 267 474T253 444Q253 421 276 408T353 384L393 376Q458 363 500 338T562 274T582 179Q582 118 556 76T484 12T375 -10Z" />
<glyph unicode="%" horiz-adv-x="898" d="M220 291Q172 291 136 310T80 363T60 443Q60 489 80 522T136 574T220 593Q293 593 337 552T381 443Q381 398 361 364T305 310T220 291ZM220 371Q244 372 256 390T269 443Q269 477 257 497T220 515Q196 514 184 496T171
443Q171 409 183 390T220 371ZM676 -10Q628 -10 592 9T536 62T516 142Q516 210 560 251T676 292Q750 292 794 251T838 142Q838 96 818 62T762 9T676 -10ZM676 69Q701 71 713 89T726 142Q726 176 714 195T676 213Q653 212 641 194T628 142Q628 108 640 88T676 69ZM219
0L599 583H677L300 0H219Z" />
<glyph unicode="&amp;" horiz-adv-x="804" d="M285 -11Q210 -11 160 16T86 86T61 173Q61 211 81 239T133 289T205 329Q189 349 178 373T167 441Q167 473 187 501T250 548T354 567Q411 567 448 548T503 502T522 446Q522 409 501 377T416 313L488 242Q502 261 511
284T527 330T539 371H716V272L645 271Q637 250 627 230T604 190T576 149L624 103H717V0H509L468 51Q434 22 389 6T285 -11ZM307 101Q332 101 350 108T386 137L277 250Q258 236 247 219T235 178Q235 170 241 151T264 117T307 101ZM346 396Q372 407 377 419T382 448Q382
466 374 473T354 481Q336 481 331 474T325 453Q325 433 332 420T346 396Z" />
<glyph unicode="&apos;" horiz-adv-x="218" d="M59 430L40 660H178L159 430H59Z" />
<glyph unicode="(" horiz-adv-x="387" d="M340 -115Q255 -89 192 -37T95 89T60 249Q60 337 94 409T192 534T340 613L347 529Q304 496 277 455T236 363T223 249Q223 186 236 135T276 43T346 -31L340 -115Z" />
<glyph unicode=")" horiz-adv-x="387" d="M47 -115L41 -31Q84 2 111 43T151 135T164 249Q164 312 151 363T111 455T40 529L47 613Q132 587 195 535T292 410T327 249Q327 162 293 89T195 -36T47 -115Z" />
<glyph unicode="*" horiz-adv-x="446" d="M181 203L57 290L182 378L39 372L74 502L209 424L152 571H304L246 424L383 502L416 372L275 378L398 290L274 203L227 358L181 203Z" />
<glyph unicode="+" horiz-adv-x="600" d="M250 61V238H80V331H250V508H350V331H520V238H350V61H250Z" />
<glyph unicode="," horiz-adv-x="287" d="M63 -138V-84Q93 -84 107 -64T122 0H60V135H207V28Q207 -57 174 -97T63 -138Z" />
<glyph unicode="-" horiz-adv-x="396" d="M50 186V289H346V186H50Z" />
<glyph unicode="." horiz-adv-x="287" d="M60 0V135H207V0H60Z" />
<glyph unicode="/" horiz-adv-x="424" d="M10 -140L300 613H444L154 -140H10Z" />
<glyph unicode="0" horiz-adv-x="591" d="M295 -11Q168 -11 98 70T28 292Q28 435 98 514T295 593Q422 593 492 514T562 292Q562 151 492 70T295 -11ZM295 124Q339 124 358 165T378 292Q378 376 359 417T295 459Q251 459 232 418T212 292Q212 207 231 166T295 124Z" />
<glyph unicode="1" horiz-adv-x="445" d="M30 0V110H135V466L35 454L30 552L330 583V110H435V0H30Z" />
<glyph unicode="2" horiz-adv-x="559" d="M45 0L46 107L228 274Q258 301 278 323T310 366T321 407Q321 434 308 450T265 467Q231 467 214 443T196 386Q196 374 197 361T202 334H50Q46 350 43 367T40 402Q40 453 65 496T142 566T275 593Q380 593 438 548T497 427Q497
387 480 351T426 276T329 185L208 74L183 113H397V195H503V0H45Z" />
<glyph unicode="3" horiz-adv-x="575" d="M287 -11Q179 -11 116 33T30 157L173 212Q184 163 212 141T273 118Q302 118 321 133T341 177Q341 210 318 228T246 247V340Q288 340 311 359T335 411Q335 437 321 453T278 469Q244 469 224 446T199 381L50 429Q60 486
94 522T180 575T296 593Q403 593 457 547T511 433Q511 393 494 364T447 315T377 288V310Q439 300 482 265T525 161Q525 107 495 69T411 10T287 -11Z" />
<glyph unicode="4" horiz-adv-x="607" d="M205 0V109H311V184H54L40 258L319 583H487V275H567V184H487V109H557V0H205ZM175 275H311V437L175 275Z" />
<glyph unicode="5" horiz-adv-x="591" d="M292 -11Q220 -11 162 11T54 69L114 179Q153 153 189 137T271 121Q315 121 339 142T363 201Q363 232 343 251T288 270Q261 270 240 260T199 232L82 274L90 583H507V429H399V477H210L206 301L171 334Q201 359 242 374T341
390Q431 390 481 339T531 202Q531 133 498 86T411 14T292 -11Z" />
<glyph unicode="6" horiz-adv-x="572" d="M284 -11Q210 -11 157 14T75 86T46 198Q46 239 56 275T87 351T141 437L280 638L402 558L244 326L222 357Q231 372 244 382T276 398T314 403Q384 403 432 378T506 307T532 201Q532 135 501 88T414 15T284 -11ZM289 114Q324
114 341 138T359 204Q359 246 341 269T289 293Q267 293 252 282T228 252T219 204Q219 162 237 138T289 114Z" />
<glyph unicode="7" horiz-adv-x="539" d="M129 0L315 475H151V391H30V583H499V480L315 0H129Z" />
<glyph unicode="8" horiz-adv-x="581" d="M287 -11Q214 -11 160 9T76 67T46 154Q46 204 73 239T145 294Q108 315 87 347T66 422Q66 475 95 513T175 572T291 593Q357 594 407 576T486 523T515 439Q515 387 489 354T427 300Q477 279 506 248T535 166Q535 113 503
73T415 11T287 -11ZM285 71Q318 71 334 95T351 156Q351 190 332 213T260 253Q243 245 232 231T216 198T210 156Q210 119 229 95T285 71ZM319 336Q331 348 339 363T352 396T357 437Q357 466 345 484T305 503Q277 503 263 482T249 428Q249 394 265 373T319 336Z"
/>
<glyph unicode="9" horiz-adv-x="572" d="M292 -56L170 24L328 256L350 225Q341 210 328 200T297 185T258 179Q189 179 140 204T66 275T40 381Q40 448 71 495T158 567T288 593Q362 593 415 568T497 496T526 384Q526 343 516 306T485 231T431 145L292 -56ZM283
289Q305 289 320 300T344 331T353 378Q353 420 335 444T283 468Q249 468 231 444T213 378Q213 336 231 313T283 289Z" />
<glyph unicode=":" horiz-adv-x="287" d="M60 0V135H207V0H60ZM60 268V403H207V268H60Z" />
<glyph unicode=";" horiz-adv-x="287" d="M63 -138V-84Q93 -84 107 -64T122 0H60V135H207V28Q207 -57 174 -97T63 -138ZM60 268V403H207V268H60Z" />
<glyph unicode="&lt;" horiz-adv-x="543" d="M483 48L80 238V328L483 518V408L197 283L483 158V48Z" />
<glyph unicode="=" horiz-adv-x="599" d="M80 338V431H519V338H80ZM80 138V231H519V138H80Z" />
<glyph unicode="&gt;" horiz-adv-x="543" d="M60 48L463 238V328L60 518V408L346 283L60 158V48Z" />
<glyph unicode="?" horiz-adv-x="561" d="M191 179V198Q191 231 200 254T227 295T273 332Q305 353 321 369T337 415Q337 446 318 463T261 481Q217 481 195 460T172 395H26Q26 474 59 521T150 591T280 613Q388 613 446 568T505 446Q505 397 482 366T418 306Q386
284 367 269T340 238T332 198V179H191ZM261 -10Q225 -10 203 11T181 64Q181 96 203 116T261 137Q298 137 320 117T342 64Q342 33 320 12T261 -10Z" />
<glyph unicode="@" horiz-adv-x="721" d="M390 -32Q303 -32 239 -7T134 62T72 160T51 272Q51 334 73 392T137 498T242 574T385 602Q460 602 514 580T602 520T653 437T670 342Q670 297 657 254T617 178T555 124T472 104Q460 104 450 109T433 126T423 159Q401 130
374 117T319 104Q285 104 255 122T206 175T187 260Q187 310 207 358T267 438T367 470Q396 470 421 456T461 411L471 462H541L491 230Q484 197 484 181T492 164Q504 164 523 175T560 209T592 265T605 342Q605 395 580 441T505 516T382 545Q306 545 247 510T154 413T120
271Q120 197 151 142T243 55T390 24Q443 24 488 38T570 80L606 37Q564 4 511 -14T390 -32ZM333 160Q363 160 387 185T426 249T441 326Q441 366 420 389T360 413Q327 413 304 390T268 331T256 259Q256 220 275 190T333 160Z" />
<glyph unicode="A" horiz-adv-x="750" d="M20 0V120H74L208 463H154V583H595V463H541L676 120H730V0H413V120H473L449 200H279L253 120H303V0H20ZM314 310H415L369 463H364L314 310Z" />
<glyph unicode="B" horiz-adv-x="684" d="M50 0V120H100V463H50V583H404Q521 583 572 543T623 442Q623 390 595 362T503 321Q559 313 592 291T639 237T654 166Q654 109 626 72T542 18T404 0H50ZM300 121H363Q407 121 426 139T446 188Q446 220 427 237T363 254H300V121ZM300
364H357Q389 364 404 377T420 414Q420 437 405 450T357 463H300V364Z" />
<glyph unicode="C" horiz-adv-x="733" d="M372 -10Q300 -10 238 10T130 68T58 163T32 290Q32 385 73 453T186 557T346 593Q412 593 461 574T541 520T582 438L536 478V583H666V365H556Q532 409 495 433T402 457Q351 457 315 437T260 381T240 293Q240 255 250 225T279
172T324 138T384 126Q425 126 453 141T498 186T524 258L683 206Q672 145 633 96T529 19T372 -10Z" />
<glyph unicode="D" horiz-adv-x="749" d="M50 0V120H100V463H50V583H406Q484 583 542 561T639 500T697 408T717 293Q717 227 698 173T640 81T543 21T406 0H50ZM300 120H368Q406 120 432 131T476 164T501 218T509 293Q509 335 501 366T477 419T433 452T368 463H300V120Z" />
<glyph unicode="E" horiz-adv-x="675" d="M50 0V120H100V463H50V583H617V372H497V463H301V352H360V407H460V187H361V242H301V121H501V224H621V0H50Z" />
<glyph unicode="F" horiz-adv-x="634" d="M50 0V120H100V463H50V583H616V368H496V463H300V352H359V407H459V187H360V242H300V120H360V0H50Z" />
<glyph unicode="G" horiz-adv-x="750" d="M371 -10Q272 -10 196 27T76 131T32 289Q32 379 71 447T181 554T345 593Q447 593 508 550T582 438L537 471V583H667V365H557Q532 409 496 433T400 457Q352 457 316 438T260 381T240 290Q240 238 257 202T306 146T380 126Q408
126 430 133T469 153T493 187T502 235L561 206H407V326H692V281Q692 205 667 150T598 60T495 7T371 -10Z" />
<glyph unicode="H" horiz-adv-x="766" d="M50 0V120H100V463H50V583H350V463H300V350H466V463H416V583H716V463H666V120H716V0H416V120H466V240H300V120H350V0H50Z" />
<glyph unicode="I" horiz-adv-x="400" d="M50 0V119H100V463H50V583H350V463H300V119H350V0H50Z" />
<glyph unicode="J" horiz-adv-x="408" d="M8 -159V-13H36Q81 -13 99 10T118 80V473H58V583H368V473H318V94Q318 6 293 -50T215 -132T77 -159H8Z" />
<glyph unicode="K" horiz-adv-x="721" d="M50 0V120H100V463H50V583H351V463H301V313L449 463H404V583H678V463H642L486 303L657 120H693V0H402V120H438L301 277V120H351V0H50Z" />
<glyph unicode="L" horiz-adv-x="583" d="M50 0V120H100V473H50V583H350V473H300V120H431V265H561V0H50Z" />
<glyph unicode="M" horiz-adv-x="931" d="M50 0V120H100V463H50V583H367L475 301L581 583H881V463H831V120H881V0H591V120H641V403L497 21H406L260 403V120H310V0H50Z" />
<glyph unicode="N" horiz-adv-x="766" d="M50 0V120H100V463H50V583H331L546 249V463H486V583H726V463H676V0H475L227 381V120H287V0H50Z" />
<glyph unicode="O" horiz-adv-x="736" d="M368 -10Q292 -10 230 10T124 70T56 165T32 289Q32 358 56 414T124 510T230 571T368 593Q444 593 506 572T612 510T680 415T704 290Q704 221 680 166T612 71T506 11T368 -10ZM368 126Q397 126 420 138T461 172T487 225T496
294Q496 333 487 363T461 414T421 446T368 457Q339 457 316 446T275 414T249 363T240 294Q240 256 249 225T275 172T315 138T368 126Z" />
<glyph unicode="P" horiz-adv-x="654" d="M50 0V120H100V463H50V583H377Q502 583 569 543T636 405Q636 306 575 264T397 222H339V342H367Q397 342 413 357T430 402Q430 432 414 447T367 463H300V120H360V0H50Z" />
<glyph unicode="Q" horiz-adv-x="736" d="M564 -195Q463 -195 389 -150T277 -2Q220 9 175 34T98 96T49 182T32 289Q32 358 56 414T124 510T230 571T368 593Q444 593 506 572T612 510T680 415T704 290Q704 231 687 182T636 95T557 33T451 -3Q460 -41 496 -56T575
-71Q604 -71 629 -66T679 -51V-174Q654 -184 627 -189T564 -195ZM368 126Q397 126 420 138T461 172T487 226T496 294Q496 333 487 363T461 414T421 446T368 457Q339 457 316 446T275 414T249 363T240 294Q240 257 249 226T275 173T315 138T368 126Z" />
<glyph unicode="R" horiz-adv-x="735" d="M50 0V120H100V463H50V583H417Q491 583 549 566T641 509T675 403Q675 364 662 334T624 284T567 250L649 121H699V0H500L373 226H341V346H406Q426 346 440 353T461 374T469 409Q469 426 462 438T440 456T406 463H300V120H346V0H50Z"
/>
<glyph unicode="S" horiz-adv-x="616" d="M369 -10Q327 -10 281 3T199 42T154 105H180V0H50V199H165Q183 169 207 147T263 112T330 99Q356 99 372 110T388 144Q388 160 381 171T356 189T311 203L231 220Q134 242 90 288T45 414Q45 466 69 506T139 570T243 593Q315
593 365 570T451 502H427V583H547V411H437Q425 430 405 446T359 473T300 484Q275 484 261 474T247 444Q247 421 270 408T347 384L387 376Q452 363 494 338T556 274T576 179Q576 118 550 76T478 12T369 -10Z" />
<glyph unicode="T" horiz-adv-x="672" d="M176 0V120H236V467H152V363H26V583H646V363H520V467H436V120H496V0H176Z" />
<glyph unicode="U" horiz-adv-x="701" d="M358 -11Q271 -11 210 13T116 88T84 213V463H34V583H342V463H284V216Q284 181 294 158T325 122T375 110Q406 110 426 122T457 157T468 216V463H430V583H668V463H618V217Q618 143 590 92T503 15T358 -11Z" />
<glyph unicode="V" horiz-adv-x="688" d="M289 0L60 463H14V583H334V463H268L368 218L463 463H399V583H674V463H628L424 0H289Z" />
<glyph unicode="W" horiz-adv-x="910" d="M224 0L60 463H14V583H280V463H232L292 267L403 563H523L630 267L698 463H640V583H896V463H850L694 0H574L459 299L344 0H224Z" />
<glyph unicode="X" horiz-adv-x="701" d="M28 0V120H65L218 291L74 463H38V583H328V463H292L358 377L428 463H391V583H663V463H626L482 302L637 120H673V0H383V120H419L343 217L263 120H300V0H28Z" />
<glyph unicode="Y" horiz-adv-x="687" d="M188 0V120H248V207L60 463H10V583H339V463H280L371 325L462 463H403V583H677V463H627L449 207V120H509V0H188Z" />
<glyph unicode="Z" horiz-adv-x="598" d="M32 0V90L283 467H163V363H37V583H556V493L305 116H436V233H566V0H32Z" />
<glyph unicode="[" horiz-adv-x="489" d="M171 -123V611H394V532H309V-40H394V-123H171Z" />
<glyph unicode="\" horiz-adv-x="360" d="M245 -140L6 613H150L390 -140H245Z" />
<glyph unicode="]" horiz-adv-x="490" d="M95 -123V-40H181V532H95V611H318V-123H95Z" />
<glyph unicode="^" horiz-adv-x="631" d="M43 114L253 555H373L586 114H449L313 433L181 114H43Z" />
<glyph unicode="_" horiz-adv-x="542" d="M6 -113V-44H536V-113H6Z" />
<glyph unicode="`" horiz-adv-x="397" d="M199 459L100 642H257L297 459H199Z" />
<glyph unicode="a" horiz-adv-x="492" d="M160 -10Q99 -10 64 21T28 107Q28 153 51 180T110 220T187 232Q222 232 248 226T288 210L268 206V231Q268 266 251 283T198 301Q170 301 141 294T67 267L30 365Q85 389 137 401T246 413Q308 413 351 393T416 334T438 241V100H482V0H297L272
64H310Q280 27 243 9T160 -10ZM225 76Q241 76 256 84T283 112L268 74V165L286 142Q276 150 263 155T232 161Q212 161 197 151T182 118Q182 98 193 87T225 76Z" />
<glyph unicode="b" horiz-adv-x="538" d="M229 593V332L204 341Q224 372 260 392T347 413Q403 413 442 387T501 314T522 206Q522 141 500 93T438 17T341 -10Q286 -10 247 10T174 65L219 46L214 0H10V100H54V493H10V593H229ZM272 283Q252 283 236 273T207 242L229
297V98L202 154Q218 137 235 129T274 120Q306 120 324 143T342 201Q342 242 323 262T272 283Z" />
<glyph unicode="c" horiz-adv-x="452" d="M247 -10Q178 -10 126 17T45 93T16 207Q16 270 42 316T113 388T211 413Q265 413 297 392T346 336H314V403H425V228H321Q318 263 301 282T246 302Q224 302 209 292T185 263T176 216Q176 186 188 164T223 131T277 119Q309
119 339 128T392 155L438 51Q401 23 355 7T247 -10Z" />
<glyph unicode="d" horiz-adv-x="536" d="M196 -10Q141 -10 101 16T38 91T16 204Q16 266 38 313T102 386T196 413Q249 413 282 393T334 341L309 332V493H249V593H484V100H528V0H324L319 46L364 65Q331 31 291 11T196 -10ZM264 120Q287 120 303 128T336 154L309
98V297L331 242Q319 263 304 273T266 283Q245 283 229 274T205 247T196 201Q196 178 204 160T228 131T264 120Z" />
<glyph unicode="e" horiz-adv-x="454" d="M249 -10Q177 -10 125 14T45 86T16 202Q16 264 44 311T122 386T238 413Q302 413 347 386T416 313T440 206V175H104L105 245H280Q280 263 275 276T260 295T232 302Q211 302 199 292T181 261T176 213Q176 181 189 161T224
130T277 120Q309 120 339 129T392 156L438 52Q402 23 354 7T249 -10Z" />
<glyph unicode="f" horiz-adv-x="318" d="M10 0V100H54V303H10V403H54V442Q54 492 76 533T144 598T262 623Q353 623 396 586T448 487L315 465Q315 492 306 507T274 523Q252 523 241 507T229 446V403H319V303H229V100H289V0H10Z" />
<glyph unicode="g" horiz-adv-x="543" d="M259 -197Q207 -197 162 -188T70 -162L96 -60Q137 -73 165 -78T223 -83Q268 -83 289 -60T311 6V43L355 66Q321 26 290 8T205 -10Q145 -10 103 16T40 89T18 200Q18 263 39 311T102 386T204 413Q255 413 289 391T342 341L321
330L323 403H529V303H486V32Q486 -43 459 -94T382 -171T259 -197ZM263 288Q244 287 229 277T206 248T198 201Q198 175 206 156T230 126T266 115Q289 115 307 123T342 149L311 80V314L335 247Q320 269 302 279T263 288Z" />
<glyph unicode="h" horiz-adv-x="547" d="M10 0V100H54V493H11V593H229V355L178 338Q219 373 262 393T354 413Q423 413 458 371T493 270V100H537V0H284V100H318V243Q318 269 306 283T272 298Q253 298 234 290T197 266L229 338V100H263V0H10Z" />
<glyph unicode="i" horiz-adv-x="285" d="M14 0V100H58V303H14V403H233V100H277V0H14ZM133 472Q88 472 61 498T34 567Q34 610 61 635T133 661Q178 661 204 636T231 567Q232 524 205 498T133 472Z" />
<glyph unicode="j" horiz-adv-x="316" d="M-10 -169V-41H27Q69 -41 88 -23T107 39V293H35V403H282V58Q282 -25 254 -75T172 -147T45 -169H-10ZM179 473Q134 473 108 499T81 568Q81 611 107 636T179 662Q224 662 250 637T277 568Q278 525 251 499T179 473Z" />
<glyph unicode="k" horiz-adv-x="548" d="M12 0V100H56V493H12V593H227V214L343 303H299V403H533V303H498L396 224L507 100H538V0H389L227 197V100H271V0H12Z" />
<glyph unicode="l" horiz-adv-x="282" d="M12 0V100H56V493H12V593H228V100H272V0H12Z" />
<glyph unicode="m" horiz-adv-x="825" d="M14 0V100H58V303H15V403H218L223 355L182 338Q223 373 266 393T358 413Q427 413 462 371T497 270V100H541V0H288V100H322V243Q322 269 310 283T276 298Q257 298 238 290T201 266L233 338V100H267V0H14ZM562 0V100H596V243Q596
269 584 283T550 298Q531 298 512 290T475 266L456 338Q497 373 540 393T632 413Q701 413 736 371T771 270V100H815V0H562Z" />
<glyph unicode="n" horiz-adv-x="551" d="M14 0V100H58V303H14V403H218L223 355L182 338Q223 373 266 393T358 413Q427 413 462 371T497 270V100H541V0H288V100H322V243Q322 269 310 283T276 298Q257 298 238 290T201 266L233 338V100H267V0H14Z" />
<glyph unicode="o" horiz-adv-x="484" d="M242 -10Q174 -10 123 16T44 91T16 202Q16 266 44 313T123 386T242 413Q310 413 361 387T440 313T468 202Q468 139 440 91T361 17T242 -10ZM242 120Q263 120 278 129T300 157T308 202Q308 228 301 246T278 273T242 283Q221
283 207 274T184 246T176 202Q176 176 184 158T206 130T242 120Z" />
<glyph unicode="p" horiz-adv-x="538" d="M10 -171V-71H54V303H10V403H214L219 357L174 333Q207 369 247 391T343 413Q402 413 441 386T501 312T522 204Q522 139 500 91T437 17T342 -10Q309 -10 283 -3T236 16T204 45L229 71V-71H289V-171H10ZM272 120Q304 120
323 141T342 202Q342 237 324 260T274 283Q259 283 247 279T224 266T202 244L229 305V106L207 144Q219 132 235 126T272 120Z" />
<glyph unicode="q" horiz-adv-x="538" d="M249 -171V-71H309V52L334 45Q317 21 285 6T203 -10Q148 -10 106 16T40 90T16 199Q16 264 40 312T108 386T213 413Q263 413 298 393T364 338L319 357L324 403H528V303H484V-71H528V-171H249ZM266 120Q286 120 302 126T331
144L309 87V305L336 249Q320 266 304 274T264 283Q243 283 228 273T205 244T196 202Q196 175 204 157T229 130T266 120Z" />
<glyph unicode="r" horiz-adv-x="419" d="M14 0V100H58V303H14V403H233V278L215 275Q232 331 254 360T300 401T346 413Q368 413 386 409T420 396L385 257Q370 265 348 271T299 277Q278 277 256 268T233 232V100H285V0H14Z" />
<glyph unicode="s" horiz-adv-x="464" d="M275 -10Q237 -10 204 -1T148 25T113 64L145 70V0H40V130H139L144 81L114 114Q139 98 166 88T223 78Q243 78 253 84T263 104Q263 119 249 127T203 143L174 149Q98 165 69 196T39 281Q39 342 80 377T191 413Q230 413 260
403T309 378T333 348L296 343V403H401V280H302L297 332L322 302Q312 311 298 317T267 326T233 330Q217 330 207 323T197 303Q197 289 208 283T237 272L275 264Q325 254 357 237T405 191T421 121Q421 79 402 50T350 6T275 -10Z" />
<glyph unicode="t" horiz-adv-x="337" d="M193 0Q129 0 94 28T59 120V303H14V403H58V531L233 554V403H319V303H233V153Q233 126 243 115T279 104H319V0H193Z" />
<glyph unicode="u" horiz-adv-x="551" d="M193 -10Q147 -10 116 9T70 61T54 133V303H10V403H229V160Q229 134 241 120T275 105Q294 105 313 113T350 137L318 65V303H284V403H493V100H537V0H333L328 48L369 65Q329 30 286 10T193 -10Z" />
<glyph unicode="v" horiz-adv-x="510" d="M182 0L30 303H0V403H253V303H219L285 157L349 303H315V403H510V303H480L332 0H182Z" />
<glyph unicode="w" horiz-adv-x="709" d="M136 0L30 303H0V403H214V303H184L236 138L288 303H258V403H453V303H423L476 139L525 303H495V403H709V303H679L565 0H413L352 175L291 0H136Z" />
<glyph unicode="x" horiz-adv-x="518" d="M9 0V100H39L142 204L48 303H18V403H238V304H218L259 258L300 304H280V403H500V303H470L376 204L479 100H509V0H284V100H308L259 150L210 100H234V0H9Z" />
<glyph unicode="y" horiz-adv-x="525" d="M85 -172V-47H118Q141 -47 157 -43T185 -28T207 0L223 27H180L30 303H0V403H253V303H209L279 157L348 303H304V403H525V303H495L321 -29Q294 -79 272 -111T217 -157T129 -172H85Z" />
<glyph unicode="z" horiz-adv-x="461" d="M24 0V80L226 308H124V236H24V403H428V323L222 93H337V177H437V0H24Z" />
<glyph unicode="{" horiz-adv-x="536" d="M399 -119Q317 -119 273 -106T210 -70T188 -14T184 57Q184 103 174 132T140 175T78 189V271Q116 271 139 285T173 329T184 405Q184 444 187 476T209 531T272 567T399 580H457V490Q412 490 390 483T361 464T354 436Q354
376 351 337T333 275T289 242T204 230Q258 226 289 216T333 183T350 121T354 19Q354 7 361 -4T391 -21T457 -28V-119H399Z" />
<glyph unicode="|" horiz-adv-x="261" d="M60 -140V613H201V-140H60Z" />
<glyph unicode="}" horiz-adv-x="536" d="M94 -119V-28Q138 -28 159 -22T188 -4T196 20Q196 82 199 121T217 183T262 216T347 230Q293 232 263 242T218 274T201 336T197 436Q197 452 190 464T162 483T94 490V580H151Q234 580 278 567T341 531T363 476T367 404Q367
359 377 330T411 286T473 271V189Q435 189 412 175T378 132T367 57Q367 18 364 -14T342 -69T279 -106T151 -119H94Z" />
<glyph unicode="~" horiz-adv-x="589" d="M390 201Q354 201 323 213T264 238T210 250Q191 250 179 240T165 207H80Q83 259 99 289T142 332T197 346Q232 346 261 334T318 310T378 297Q398 297 410 307T424 340H509Q507 289 490 259T446 215T390 201Z" />
<glyph unicode="&#xa0;" horiz-adv-x="320" />
<glyph unicode="&#xa1;" horiz-adv-x="222" d="M72 266L42 27V-158H191V27L161 266H72ZM121 455Q84 455 62 434T40 381Q40 349 62 329T121 308Q158 308 180 328T202 381Q202 412 180 433T121 455Z" />
<glyph unicode="&#xa2;" horiz-adv-x="452" d="M222 -84V485H272V-84H222ZM247 -10Q178 -10 126 17T45 93T16 207Q16 270 42 316T113 388T211 413Q265 413 297 392T346 336H314V403H425V228H321Q318 263 301 282T246 302Q224 302 209 292T185 263T176 216Q176
186 188 164T223 131T277 119Q309 119 339 128T392 155L438 51Q401 23 355 7T247 -10Z" />
<glyph unicode="&#xa3;" horiz-adv-x="590" d="M150 -11Q90 -11 55 17T20 96Q20 141 50 171T135 202Q166 202 192 193T241 170T287 142T335 119T389 109Q420 109 436 125T453 178H556V165Q556 88 520 39T405 -11Q365 -11 333 3T276 38T228 80T186 116T143 130Q124
130 112 120T100 92Q100 74 113 64T147 53Q171 53 190 63T221 91T233 133Q233 169 221 199T191 256T155 310T125 367T113 433Q113 485 136 520T205 574T318 593Q433 593 483 548T533 424H395Q395 455 384 474T346 494Q321 494 310 478T298 436Q298 408 306 384T325
337T348 289T368 237T376 176Q376 120 345 78T263 13T150 -11ZM60 270V339H488V270H60Z" />
<glyph unicode="&#xa4;" horiz-adv-x="649" d="M325 46Q253 46 197 78T108 167T75 294Q75 365 107 420T196 508T325 541Q396 541 452 509T541 421T574 294Q574 223 542 167T453 79T325 46ZM105 19L50 74L145 159L191 115L105 19ZM544 19L458 115L504 159L599 74L544
19ZM325 168Q360 168 388 184T432 229T448 294Q448 330 432 358T388 402T325 419Q290 419 262 403T217 358T201 294Q201 258 217 230T261 185T325 168ZM143 430L50 513L105 568L189 474L143 430ZM507 431L460 474L544 568L599 513L507 431Z" />
<glyph unicode="&#xa5;" horiz-adv-x="691" d="M90 236V294H596V236H90ZM90 145V202H596V145H90ZM188 0V120H248V207L60 463H10V583H339V463H280L371 325L462 463H403V583H677V463H627L449 207V120H509V0H188Z" />
<glyph unicode="&#xa6;" horiz-adv-x="261" d="M60 313V613H201V313H60ZM60 -140V160H201V-140H60Z" />
<glyph unicode="&#xa7;" horiz-adv-x="461" d="M221 -90Q161 -90 127 -75T79 -36T65 12Q65 44 85 59T137 75Q137 23 161 -12T231 -47Q270 -47 291 -26T313 30Q313 52 304 68T265 103T175 151Q131 173 104 196T64 245T52 302Q52 328 66 350T104 384Q90 398 80 422T69
479Q69 541 114 574T228 608Q275 608 306 596T354 564T370 517Q370 492 351 476T294 459Q294 483 288 507T267 547T224 564Q190 564 170 545T149 489Q149 464 160 448T193 421T245 395Q301 368 336 344T388 294T405 233Q405 205 390 179T354 139Q367 123 374 100T382
54Q382 -10 342 -50T221 -90ZM316 171Q321 177 324 186T327 206Q327 224 319 240T290 272T229 308Q216 314 203 320T179 332T157 344T136 357Q130 351 127 342T123 322Q123 300 133 284T168 253T236 216Q262 203 281 193T316 171Z" />
<glyph unicode="&#xa8;" horiz-adv-x="648" d="M191 485Q155 485 128 507T100 572Q100 615 127 637T191 659Q227 659 254 637T282 572Q282 529 255 507T191 485ZM457 485Q421 485 394 507T366 572Q366 615 393 637T457 659Q493 659 520 637T548 572Q548 529 521
507T457 485Z" />
<glyph unicode="&#xa9;" horiz-adv-x="751" d="M375 -11Q306 -11 248 11T148 75T83 171T60 294Q60 362 83 418T148 515T248 578T375 601Q444 601 502 579T602 515T668 418T691 294Q691 227 668 172T603 75T502 12T375 -11ZM375 50Q445 50 498 81T582 167T613 293Q613
366 583 421T499 508T375 540Q306 540 253 509T169 422T138 293Q138 222 168 167T252 81T375 50ZM382 135Q335 135 298 155T241 211T220 293Q220 328 231 357T263 407T312 440T375 452Q401 452 424 443T459 417V446H518V333H461Q454 362 433 379T383 396Q357 396
337 383T306 348T294 295Q294 265 305 242T337 205T383 191Q410 191 436 204T476 240L524 209Q505 177 466 156T382 135Z" />
<glyph unicode="&#xaa;" horiz-adv-x="441" d="M138 249Q92 249 58 273T23 345Q23 381 42 405T92 440T161 452Q179 452 196 450T224 446V453Q224 499 166 499Q143 499 118 493T56 469L22 553Q65 573 107 583T194 593Q241 593 280 579T343 536T367 460V351H411V258H259L246
279Q222 265 196 257T138 249ZM188 321Q196 321 205 323T224 333V386Q217 389 210 390T194 392Q177 392 165 384T152 355Q152 339 162 330T188 321Z" />
<glyph unicode="&#xab;" horiz-adv-x="683" d="M478 45L335 272L478 505H611L492 273L611 45H478ZM232 45L90 272L232 505H366L246 273L366 45H232Z" />
<glyph unicode="&#xac;" horiz-adv-x="580" d="M410 115V238H80V331H500V115H410Z" />
<glyph unicode="&#xad;" horiz-adv-x="396" d="M50 186V289H346V186H50Z" />
<glyph unicode="&#xae;" horiz-adv-x="751" d="M375 -11Q306 -11 248 11T148 75T83 171T60 294Q60 362 83 418T148 515T248 578T375 601Q444 601 502 579T602 515T668 418T691 294Q691 227 668 172T603 75T502 12T375 -11ZM375 50Q427 50 470 68T546 118T595 195T613
293Q613 347 596 392T546 471T471 522T375 540Q323 540 280 522T205 471T156 393T138 293Q138 240 155 196T204 119T279 68T375 50ZM239 150V186H282V420H239V457H390Q437 457 466 435T496 376Q496 348 478 326T428 296L489 186H532V150H451L377 290H337V186H377V150H239ZM337
328H387Q411 328 426 341T441 375Q441 395 427 407T390 420H337V328Z" />
<glyph unicode="&#xaf;" horiz-adv-x="480" d="M100 467V559H380V467H100Z" />
<glyph unicode="&#xb0;" horiz-adv-x="252" d="M126 384Q70 384 37 420T4 505Q4 552 37 587T126 623Q182 623 215 588T248 505Q248 457 215 421T126 384ZM127 430Q160 430 179 452T198 505Q198 533 179 555T126 577Q92 577 73 556T54 505Q54 475 73 453T127 430Z" />
<glyph unicode="&#xb1;" horiz-adv-x="599" d="M252 172V322H80V411H252V558H348V411H519V322H348V172H252ZM80 42V131H519V42H80Z" />
<glyph unicode="&#xb2;" horiz-adv-x="369" d="M29 298L30 368L132 451Q169 481 189 504T210 556Q210 573 202 583T175 593Q153 593 142 576T131 535Q131 527 132 518T135 498H32Q30 509 28 521T26 547Q26 583 44 614T98 663T189 682Q258 682 295 650T332 568Q332
519 300 485T206 403L127 343V383H264V419H339V298H29Z" />
<glyph unicode="&#xb3;" horiz-adv-x="386" d="M199 286Q124 286 79 315T20 405L122 445Q130 410 150 394T195 378Q212 378 223 386T235 413Q235 434 221 443T178 452V518Q205 518 218 528T231 557Q231 574 221 584T190 594Q166 594 152 578T134 532L28 566Q38
627 85 654T196 682Q276 682 316 650T356 570Q356 534 332 512T271 481V497Q311 490 338 467T366 399Q366 342 320 314T199 286Z" />
<glyph unicode="&#xb4;" horiz-adv-x="397" d="M100 459L140 642H297L198 459H100Z" />
<glyph unicode="&#xb5;" horiz-adv-x="547" d="M54 -135V303H10V403H229V160Q229 134 241 120T275 105Q286 105 296 108T318 116V303H284V403H493V100H537V0H333L331 19Q316 5 300 -2T265 -10Q253 -10 245 -7T229 0V-135H54Z" />
<glyph unicode="&#xb6;" horiz-adv-x="607" d="M200 0V109H336V212H213Q154 212 113 232T50 291T28 385Q28 442 54 482T132 542T257 563H588V453H497V109H587V0H200ZM238 311L336 313V453H238V311Z" />
<glyph unicode="&#xb7;" horiz-adv-x="264" d="M132 202Q101 202 81 222T60 270Q60 299 80 318T132 338Q163 338 183 319T204 270Q204 242 184 222T132 202Z" />
<glyph unicode="&#xb8;" horiz-adv-x="389" d="M189 -213Q138 -213 100 -186V-143Q113 -149 128 -153T156 -158Q171 -158 181 -151T191 -125Q191 -108 177 -100T132 -91L169 0H229L214 -56Q252 -63 270 -85T289 -134Q289 -175 259 -194T189 -213Z" />
<glyph unicode="&#xb9;" horiz-adv-x="288" d="M20 298V376H75V589L24 580L20 650L213 672V376H268V298H20Z" />
<glyph unicode="&#xba;" horiz-adv-x="461" d="M231 249Q170 249 125 270T55 330T30 421Q30 473 55 511T125 571T231 593Q292 593 337 572T406 512T431 421Q431 369 407 331T337 271T231 249ZM231 339Q248 339 260 349T280 377T287 421Q287 446 280 464T261 493T231
503Q214 503 201 493T182 465T175 421Q175 396 181 378T201 350T231 339Z" />
<glyph unicode="&#xbb;" horiz-adv-x="645" d="M335 45L456 277L335 505H469L611 279L469 45H335ZM90 45L210 277L90 505H224L366 279L224 45H90Z" />
<glyph unicode="&#xbc;" horiz-adv-x="889" d="M60 476V554H115V767L64 758L60 828L253 850V554H308V476H60ZM216 0L596 583H674L297 0H216ZM593 0V77H647V111H474L464 163L652 374H772V175H829V111H772V77H821V0H593ZM560 175H647V270L560 175Z" />
<glyph unicode="&#xbd;" horiz-adv-x="906" d="M60 475V553H115V766L64 757L60 827L253 849V553H308V475H60ZM210 0L590 583H668L291 0H210ZM536 0L537 70L639 153Q676 183 696 206T717 258Q717 275 709 285T682 295Q660 295 649 278T638 237Q638 229 639 220T642
200H539Q537 211 535 223T533 249Q533 285 551 316T605 365T696 384Q765 384 802 352T839 270Q839 221 807 187T713 105L634 45V85H771V121H846V0H536Z" />
<glyph unicode="&#xbe;" horiz-adv-x="938" d="M239 462Q164 462 119 491T60 581L162 621Q170 586 190 570T235 554Q252 554 263 562T275 589Q275 610 261 619T218 628V694Q245 694 258 704T271 733Q271 750 261 760T230 770Q206 770 192 754T174 708L68 742Q78
803 125 830T236 858Q316 858 356 826T396 746Q396 710 372 688T311 657V673Q351 666 378 643T406 575Q406 518 360 490T239 462ZM275 0L655 583H733L356 0H275ZM642 0V77H696V111H523L513 163L701 374H821V175H878V111H821V77H870V0H642ZM609 175H696V270L609
175Z" />
<glyph unicode="&#xbf;" horiz-adv-x="540" d="M386 266V247Q386 214 377 191T350 150T304 113Q272 92 256 76T240 30Q240 -1 259 -18T316 -36Q360 -36 382 -15T405 50H551Q551 -29 518 -76T427 -146T297 -168Q189 -168 131 -123T72 -1Q72 48 95 79T159 139Q191
161 210 176T237 207T245 247V266H386ZM316 455Q352 455 374 434T396 381Q396 349 374 329T316 308Q279 308 257 328T235 381Q235 412 257 433T316 455Z" />
<glyph unicode="&#xc0;" horiz-adv-x="750" d="M20 0V120H74L208 463H154V583H595V463H541L676 120H730V0H413V120H473L449 200H279L253 120H303V0H20ZM314 310H415L369 463H364L314 310ZM323 639L224 822H381L421 639H323Z" />
<glyph unicode="&#xc1;" horiz-adv-x="750" d="M20 0V120H74L208 463H154V583H595V463H541L676 120H730V0H413V120H473L449 200H279L253 120H303V0H20ZM314 310H415L369 463H364L314 310ZM326 639L366 822H523L424 639H326Z" />
<glyph unicode="&#xc2;" horiz-adv-x="750" d="M20 0V120H74L208 463H154V583H595V463H541L676 120H730V0H413V120H473L449 200H279L253 120H303V0H20ZM314 310H415L369 463H364L314 310ZM200 645L287 826H465L550 645H444L375 756L306 645H200Z" />
<glyph unicode="&#xc3;" horiz-adv-x="750" d="M20 0V120H74L208 463H154V583H595V463H541L676 120H730V0H413V120H473L449 200H279L253 120H303V0H20ZM314 310H415L369 463H364L314 310ZM450 651Q420 651 392 663T339 688T296 700Q256 700 252 657H169Q176 748
213 784T300 821Q330 821 358 809T411 785T454 772Q473 772 484 782T498 815H581Q574 724 537 688T450 651Z" />
<glyph unicode="&#xc4;" horiz-adv-x="750" d="M20 0V120H74L208 463H154V583H595V463H541L676 120H730V0H413V120H473L449 200H279L253 120H303V0H20ZM314 310H415L369 463H364L314 310ZM242 665Q206 665 179 687T151 752Q151 795 178 817T242 839Q278 839 305
817T333 752Q333 709 306 687T242 665ZM508 665Q472 665 445 687T417 752Q417 795 444 817T508 839Q544 839 571 817T599 752Q599 709 572 687T508 665Z" />
<glyph unicode="&#xc5;" horiz-adv-x="750" d="M20 0V120H74L208 463H154V583H595V463H541L676 120H730V0H413V120H473L449 200H279L253 120H303V0H20ZM314 310H415L369 463H364L314 310ZM375 644Q329 645 303 669T276 739Q276 785 302 810T375 835Q421 835 447
810T474 739Q474 694 448 669T375 644ZM375 694Q396 694 407 705T419 739Q419 762 408 773T375 785Q354 785 343 774T331 739Q331 717 342 706T375 694Z" />
<glyph unicode="&#xc6;" horiz-adv-x="992" d="M10 0V120H64L247 463H193V583H917L933 372H812L803 463H608L614 352H678L673 407H773L791 187H692L687 242H621L628 121H830L822 224H943L958 0H378V120H428L423 200H280L243 120H293V0H10ZM332 310H417L408 463H403L332
310Z" />
<glyph unicode="&#xc7;" horiz-adv-x="733" d="M372 -10Q300 -10 238 10T130 68T58 163T32 290Q32 385 73 453T186 557T346 593Q412 593 461 574T541 520T582 438L536 478V583H666V365H556Q532 409 495 433T402 457Q351 457 315 437T260 381T240 293Q240 255 250
225T279 172T324 138T384 126Q425 126 453 141T498 186T524 258L683 206Q672 145 633 96T529 19T372 -10ZM361 -213Q310 -213 272 -186V-143Q285 -149 300 -153T328 -158Q343 -158 353 -151T363 -125Q363 -108 349 -100T304 -91L341 0H401L386 -56Q424 -63 442
-85T461 -134Q461 -175 431 -194T361 -213Z" />
<glyph unicode="&#xc8;" horiz-adv-x="675" d="M50 0V120H100V463H50V583H617V372H497V463H301V352H360V407H460V187H361V242H301V121H501V224H621V0H50ZM304 639L205 822H362L402 639H304Z" />
<glyph unicode="&#xc9;" horiz-adv-x="675" d="M50 0V120H100V463H50V583H617V372H497V463H301V352H360V407H460V187H361V242H301V121H501V224H621V0H50ZM307 639L347 822H504L405 639H307Z" />
<glyph unicode="&#xca;" horiz-adv-x="675" d="M50 0V120H100V463H50V583H617V372H497V463H301V352H360V407H460V187H361V242H301V121H501V224H621V0H50ZM181 645L268 826H446L531 645H425L356 756L287 645H181Z" />
<glyph unicode="&#xcb;" horiz-adv-x="675" d="M50 0V120H100V463H50V583H617V372H497V463H301V352H360V407H460V187H361V242H301V121H501V224H621V0H50ZM223 665Q187 665 160 687T132 752Q132 795 159 817T223 839Q259 839 286 817T314 752Q314 709 287 687T223
665ZM489 665Q453 665 426 687T398 752Q398 795 425 817T489 839Q525 839 552 817T580 752Q580 709 553 687T489 665Z" />
<glyph unicode="&#xcc;" horiz-adv-x="400" d="M50 0V119H100V463H50V583H350V463H300V119H350V0H50ZM148 639L49 822H206L246 639H148Z" />
<glyph unicode="&#xcd;" horiz-adv-x="400" d="M50 0V119H100V463H50V583H350V463H300V119H350V0H50ZM151 639L191 822H348L249 639H151Z" />
<glyph unicode="&#xce;" horiz-adv-x="400" d="M50 0V119H100V463H50V583H350V463H300V119H350V0H50ZM25 645L112 826H290L375 645H269L200 756L131 645H25Z" />
<glyph unicode="&#xcf;" horiz-adv-x="400" d="M50 0V119H100V463H50V583H350V463H300V119H350V0H50ZM67 665Q31 665 4 687T-24 752Q-24 795 3 817T67 839Q103 839 130 817T158 752Q158 709 131 687T67 665ZM333 665Q297 665 270 687T242 752Q242 795 269 817T333
839Q369 839 396 817T424 752Q424 709 397 687T333 665Z" />
<glyph unicode="&#xd0;" horiz-adv-x="772" d="M50 0V120H100V463H50V583H406Q484 583 542 561T639 500T697 408T717 293Q717 227 698 173T640 81T543 21T406 0H50ZM300 120H368Q406 120 432 131T476 164T501 218T509 293Q509 335 501 366T477 419T433 452T368
463H300V120ZM50 242V345H346V242H50Z" />
<glyph unicode="&#xd1;" horiz-adv-x="766" d="M50 0V120H100V463H50V583H331L546 249V463H486V583H726V463H676V0H475L227 381V120H287V0H50ZM479 651Q449 651 421 663T368 688T325 700Q285 700 281 657H198Q205 748 242 784T329 821Q359 821 387 809T440 785T483
772Q502 772 513 782T527 815H610Q603 724 566 688T479 651Z" />
<glyph unicode="&#xd2;" horiz-adv-x="736" d="M368 -10Q292 -10 230 10T124 70T56 165T32 289Q32 358 56 414T124 510T230 571T368 593Q444 593 506 572T612 510T680 415T704 290Q704 221 680 166T612 71T506 11T368 -10ZM368 126Q397 126 420 138T461 172T487
225T496 294Q496 333 487 363T461 414T421 446T368 457Q339 457 316 446T275 414T249 363T240 294Q240 256 249 225T275 172T315 138T368 126ZM316 639L217 822H374L414 639H316Z" />
<glyph unicode="&#xd3;" horiz-adv-x="736" d="M368 -10Q292 -10 230 10T124 70T56 165T32 289Q32 358 56 414T124 510T230 571T368 593Q444 593 506 572T612 510T680 415T704 290Q704 221 680 166T612 71T506 11T368 -10ZM368 126Q397 126 420 138T461 172T487
225T496 294Q496 333 487 363T461 414T421 446T368 457Q339 457 316 446T275 414T249 363T240 294Q240 256 249 225T275 172T315 138T368 126ZM319 639L359 822H516L417 639H319Z" />
<glyph unicode="&#xd4;" horiz-adv-x="736" d="M368 -10Q292 -10 230 10T124 70T56 165T32 289Q32 358 56 414T124 510T230 571T368 593Q444 593 506 572T612 510T680 415T704 290Q704 221 680 166T612 71T506 11T368 -10ZM368 126Q397 126 420 138T461 172T487
225T496 294Q496 333 487 363T461 414T421 446T368 457Q339 457 316 446T275 414T249 363T240 294Q240 256 249 225T275 172T315 138T368 126ZM193 645L280 826H458L543 645H437L368 756L299 645H193Z" />
<glyph unicode="&#xd5;" horiz-adv-x="736" d="M368 -10Q292 -10 230 10T124 70T56 165T32 289Q32 358 56 414T124 510T230 571T368 593Q444 593 506 572T612 510T680 415T704 290Q704 221 680 166T612 71T506 11T368 -10ZM368 126Q397 126 420 138T461 172T487
225T496 294Q496 333 487 363T461 414T421 446T368 457Q339 457 316 446T275 414T249 363T240 294Q240 256 249 225T275 172T315 138T368 126ZM443 651Q413 651 385 663T332 688T289 700Q249 700 245 657H162Q169 748 206 784T293 821Q323 821 351 809T404 785T447
772Q466 772 477 782T491 815H574Q567 724 530 688T443 651Z" />
<glyph unicode="&#xd6;" horiz-adv-x="736" d="M368 -10Q292 -10 230 10T124 70T56 165T32 289Q32 358 56 414T124 510T230 571T368 593Q444 593 506 572T612 510T680 415T704 290Q704 221 680 166T612 71T506 11T368 -10ZM368 126Q397 126 420 138T461 172T487
225T496 294Q496 333 487 363T461 414T421 446T368 457Q339 457 316 446T275 414T249 363T240 294Q240 256 249 225T275 172T315 138T368 126ZM235 665Q199 665 172 687T144 752Q144 795 171 817T235 839Q271 839 298 817T326 752Q326 709 299 687T235 665ZM501
665Q465 665 438 687T410 752Q410 795 437 817T501 839Q537 839 564 817T592 752Q592 709 565 687T501 665Z" />
<glyph unicode="&#xd7;" horiz-adv-x="527" d="M105 59L40 122L200 282L44 438L109 503L265 347L423 504L487 441L329 283L484 127L421 64L265 219L105 59Z" />
<glyph unicode="&#xd8;" horiz-adv-x="704" d="M155 -55L82 -3L550 618L624 566L155 -55ZM352 -10Q276 -10 214 10T108 70T40 165T16 289Q16 358 40 414T108 510T214 571T352 593Q428 593 490 572T596 510T664 415T688 290Q688 221 664 166T596 71T490 11T352
-10ZM352 126Q381 126 404 138T445 172T471 225T480 294Q480 333 471 363T445 414T405 446T352 457Q323 457 300 446T259 414T233 363T224 294Q224 256 233 225T259 172T299 138T352 126Z" />
<glyph unicode="&#xd9;" horiz-adv-x="701" d="M358 -11Q271 -11 210 13T116 88T84 213V463H34V583H342V463H284V216Q284 181 294 158T325 122T375 110Q406 110 426 122T457 157T468 216V463H430V583H668V463H618V217Q618 143 590 92T503 15T358 -11ZM315 639L216
822H373L413 639H315Z" />
<glyph unicode="&#xda;" horiz-adv-x="701" d="M358 -11Q271 -11 210 13T116 88T84 213V463H34V583H342V463H284V216Q284 181 294 158T325 122T375 110Q406 110 426 122T457 157T468 216V463H430V583H668V463H618V217Q618 143 590 92T503 15T358 -11ZM318 639L358
822H515L416 639H318Z" />
<glyph unicode="&#xdb;" horiz-adv-x="701" d="M358 -11Q271 -11 210 13T116 88T84 213V463H34V583H342V463H284V216Q284 181 294 158T325 122T375 110Q406 110 426 122T457 157T468 216V463H430V583H668V463H618V217Q618 143 590 92T503 15T358 -11ZM192 645L279
826H457L542 645H436L367 756L298 645H192Z" />
<glyph unicode="&#xdc;" horiz-adv-x="701" d="M358 -11Q271 -11 210 13T116 88T84 213V463H34V583H342V463H284V216Q284 181 294 158T325 122T375 110Q406 110 426 122T457 157T468 216V463H430V583H668V463H618V217Q618 143 590 92T503 15T358 -11ZM234 665Q198
665 171 687T143 752Q143 795 170 817T234 839Q270 839 297 817T325 752Q325 709 298 687T234 665ZM500 665Q464 665 437 687T409 752Q409 795 436 817T500 839Q536 839 563 817T591 752Q591 709 564 687T500 665Z" />
<glyph unicode="&#xdd;" horiz-adv-x="687" d="M188 0V120H248V207L60 463H10V583H339V463H280L371 325L462 463H403V583H677V463H627L449 207V120H509V0H188ZM322 639L362 822H519L420 639H322Z" />
<glyph unicode="&#xde;" horiz-adv-x="649" d="M50 0V120H100V463H50V583H360V463H300V403L265 420H398Q520 420 575 390T631 285Q631 212 576 183T398 153H339V223H355Q389 223 407 238T425 285Q425 317 407 332T355 347H265L300 367V120H360V0H50Z" />
<glyph unicode="&#xdf;" horiz-adv-x="603" d="M10 0V100H65V373Q65 484 129 543T315 603Q426 603 482 559T539 444Q539 389 498 352T373 307L383 314Q433 315 479 301T556 255T587 165Q587 77 516 39T322 0V100Q349 100 368 108T397 133T407 178Q407 211 385
229T322 247H297V340H322Q359 340 377 360T396 409Q396 441 376 459T319 477Q276 477 256 452T235 386V100H278V0H10Z" />
<glyph unicode="&#xe0;" horiz-adv-x="492" d="M160 -10Q99 -10 64 21T28 107Q28 153 51 180T110 220T187 232Q222 232 248 226T288 210L268 206V231Q268 266 251 283T198 301Q170 301 141 294T67 267L30 365Q85 389 137 401T246 413Q308 413 351 393T416 334T438
241V100H482V0H297L272 64H310Q280 27 243 9T160 -10ZM225 76Q241 76 256 84T283 112L268 74V165L286 142Q276 150 263 155T232 161Q212 161 197 151T182 118Q182 98 193 87T225 76ZM194 459L95 642H252L292 459H194Z" />
<glyph unicode="&#xe1;" horiz-adv-x="492" d="M160 -10Q99 -10 64 21T28 107Q28 153 51 180T110 220T187 232Q222 232 248 226T288 210L268 206V231Q268 266 251 283T198 301Q170 301 141 294T67 267L30 365Q85 389 137 401T246 413Q308 413 351 393T416 334T438
241V100H482V0H297L272 64H310Q280 27 243 9T160 -10ZM225 76Q241 76 256 84T283 112L268 74V165L286 142Q276 150 263 155T232 161Q212 161 197 151T182 118Q182 98 193 87T225 76ZM197 459L237 642H394L295 459H197Z" />
<glyph unicode="&#xe2;" horiz-adv-x="492" d="M160 -10Q99 -10 64 21T28 107Q28 153 51 180T110 220T187 232Q222 232 248 226T288 210L268 206V231Q268 266 251 283T198 301Q170 301 141 294T67 267L30 365Q85 389 137 401T246 413Q308 413 351 393T416 334T438
241V100H482V0H297L272 64H310Q280 27 243 9T160 -10ZM225 76Q241 76 256 84T283 112L268 74V165L286 142Q276 150 263 155T232 161Q212 161 197 151T182 118Q182 98 193 87T225 76ZM71 465L158 646H336L421 465H315L246 576L177 465H71Z" />
<glyph unicode="&#xe3;" horiz-adv-x="492" d="M160 -10Q99 -10 64 21T28 107Q28 153 51 180T110 220T187 232Q222 232 248 226T288 210L268 206V231Q268 266 251 283T198 301Q170 301 141 294T67 267L30 365Q85 389 137 401T246 413Q308 413 351 393T416 334T438
241V100H482V0H297L272 64H310Q280 27 243 9T160 -10ZM225 76Q241 76 256 84T283 112L268 74V165L286 142Q276 150 263 155T232 161Q212 161 197 151T182 118Q182 98 193 87T225 76ZM321 471Q291 471 263 483T210 508T167 520Q127 520 123 477H40Q47 568 84 604T171
641Q201 641 229 629T282 605T325 592Q344 592 355 602T369 635H452Q445 544 408 508T321 471Z" />
<glyph unicode="&#xe4;" horiz-adv-x="492" d="M160 -10Q99 -10 64 21T28 107Q28 153 51 180T110 220T187 232Q222 232 248 226T288 210L268 206V231Q268 266 251 283T198 301Q170 301 141 294T67 267L30 365Q85 389 137 401T246 413Q308 413 351 393T416 334T438
241V100H482V0H297L272 64H310Q280 27 243 9T160 -10ZM225 76Q241 76 256 84T283 112L268 74V165L286 142Q276 150 263 155T232 161Q212 161 197 151T182 118Q182 98 193 87T225 76ZM113 485Q77 485 50 507T22 572Q22 615 49 637T113 659Q149 659 176 637T204 572Q204
529 177 507T113 485ZM379 485Q343 485 316 507T288 572Q288 615 315 637T379 659Q415 659 442 637T470 572Q470 529 443 507T379 485Z" />
<glyph unicode="&#xe5;" horiz-adv-x="492" d="M160 -10Q99 -10 64 21T28 107Q28 153 51 180T110 220T187 232Q222 232 248 226T288 210L268 206V231Q268 266 251 283T198 301Q170 301 141 294T67 267L30 365Q85 389 137 401T246 413Q308 413 351 393T416 334T438
241V100H482V0H297L272 64H310Q280 27 243 9T160 -10ZM225 76Q241 76 256 84T283 112L268 74V165L286 142Q276 150 263 155T232 161Q212 161 197 151T182 118Q182 98 193 87T225 76ZM246 464Q200 465 174 489T147 559Q147 605 173 630T246 655Q292 655 318 630T345
559Q345 514 319 489T246 464ZM246 514Q267 514 278 525T290 559Q290 582 279 593T246 605Q225 605 214 594T202 559Q202 537 213 526T246 514Z" />
<glyph unicode="&#xe6;" horiz-adv-x="709" d="M177 -10Q109 -10 69 18T28 107Q28 153 54 180T121 220T207 232H268V235Q268 267 250 284T198 301Q170 301 141 294T67 267L30 365Q83 389 133 401T239 413Q266 413 289 410T333 399T370 382Q397 397 430 405T500
413Q562 413 605 386T672 313T695 206V175H437Q444 156 457 144T490 126T532 120Q564 120 594 129T647 156L693 52Q657 23 609 7T504 -10Q446 -10 404 5T332 47Q299 19 260 5T177 -10ZM233 76Q248 76 263 82T293 99Q286 113 281 128T274 161H242Q226 161 213 157T191
143T182 118Q182 98 195 87T233 76ZM433 245H535Q535 263 530 276T515 295T487 302Q471 302 460 296T442 276T433 245Z" />
<glyph unicode="&#xe7;" horiz-adv-x="452" d="M247 -10Q178 -10 126 17T45 93T16 207Q16 270 42 316T113 388T211 413Q265 413 297 392T346 336H314V403H425V228H321Q318 263 301 282T246 302Q224 302 209 292T185 263T176 216Q176 186 188 164T223 131T277 119Q309
119 339 128T392 155L438 51Q401 23 355 7T247 -10ZM247 -213Q196 -213 158 -186V-143Q171 -149 186 -153T214 -158Q229 -158 239 -151T249 -125Q249 -108 235 -100T190 -91L227 0H287L272 -56Q310 -63 328 -85T347 -134Q347 -175 317 -194T247 -213Z" />
<glyph unicode="&#xe8;" horiz-adv-x="454" d="M249 -10Q177 -10 125 14T45 86T16 202Q16 264 44 311T122 386T238 413Q302 413 347 386T416 313T440 206V175H104L105 245H280Q280 263 275 276T260 295T232 302Q211 302 199 292T181 261T176 213Q176 181 189 161T224
130T277 120Q309 120 339 129T392 156L438 52Q402 23 354 7T249 -10ZM201 459L102 642H259L299 459H201Z" />
<glyph unicode="&#xe9;" horiz-adv-x="454" d="M249 -10Q177 -10 125 14T45 86T16 202Q16 264 44 311T122 386T238 413Q302 413 347 386T416 313T440 206V175H104L105 245H280Q280 263 275 276T260 295T232 302Q211 302 199 292T181 261T176 213Q176 181 189 161T224
130T277 120Q309 120 339 129T392 156L438 52Q402 23 354 7T249 -10ZM204 459L244 642H401L302 459H204Z" />
<glyph unicode="&#xea;" horiz-adv-x="454" d="M249 -10Q177 -10 125 14T45 86T16 202Q16 264 44 311T122 386T238 413Q302 413 347 386T416 313T440 206V175H104L105 245H280Q280 263 275 276T260 295T232 302Q211 302 199 292T181 261T176 213Q176 181 189 161T224
130T277 120Q309 120 339 129T392 156L438 52Q402 23 354 7T249 -10ZM78 465L165 646H343L428 465H322L253 576L184 465H78Z" />
<glyph unicode="&#xeb;" horiz-adv-x="454" d="M249 -10Q177 -10 125 14T45 86T16 202Q16 264 44 311T122 386T238 413Q302 413 347 386T416 313T440 206V175H104L105 245H280Q280 263 275 276T260 295T232 302Q211 302 199 292T181 261T176 213Q176 181 189 161T224
130T277 120Q309 120 339 129T392 156L438 52Q402 23 354 7T249 -10ZM120 485Q84 485 57 507T29 572Q29 615 56 637T120 659Q156 659 183 637T211 572Q211 529 184 507T120 485ZM386 485Q350 485 323 507T295 572Q295 615 322 637T386 659Q422 659 449 637T477
572Q477 529 450 507T386 485Z" />
<glyph unicode="&#xec;" horiz-adv-x="297" d="M14 0V109H70V293H20V403H242V109H289V0H14ZM104 458L5 641H162L202 458H104Z" />
<glyph unicode="&#xed;" horiz-adv-x="297" d="M14 0V109H70V293H20V403H242V109H289V0H14ZM107 458L147 641H304L205 458H107Z" />
<glyph unicode="&#xee;" horiz-adv-x="297" d="M14 0V109H70V293H20V403H242V109H289V0H14ZM-19 464L68 645H246L331 464H225L156 575L87 464H-19Z" />
<glyph unicode="&#xef;" horiz-adv-x="297" d="M14 0V109H70V293H20V403H242V109H289V0H14ZM23 484Q-13 484 -40 506T-68 571Q-68 614 -41 636T23 658Q59 658 86 636T114 571Q114 528 87 506T23 484ZM289 484Q253 484 226 506T198 571Q198 614 225 636T289 658Q325
658 352 636T380 571Q380 528 353 506T289 484Z" />
<glyph unicode="&#xf0;" horiz-adv-x="496" d="M242 -10Q172 -10 122 14T44 84T16 189Q16 244 39 288T107 359T218 385Q235 385 249 384T275 378Q252 411 217 447T138 518T49 583L127 680Q181 642 232 600T328 513T405 418T457 318T476 213Q476 141 447 91T366
16T242 -10ZM242 120Q263 120 278 128T300 151T308 188Q308 210 301 224T278 247T242 255Q221 255 207 247T184 225T176 188Q176 166 184 151T206 128T242 120ZM84 412L45 491L360 631L400 553L84 412Z" />
<glyph unicode="&#xf1;" horiz-adv-x="551" d="M14 0V100H58V303H14V403H218L223 355L182 338Q223 373 266 393T358 413Q427 413 462 371T497 270V100H541V0H288V100H322V243Q322 269 310 283T276 298Q257 298 238 290T201 266L233 338V100H267V0H14ZM337 471Q307
471 279 483T226 508T183 520Q143 520 139 477H56Q63 568 100 604T187 641Q217 641 245 629T298 605T341 592Q360 592 371 602T385 635H468Q461 544 424 508T337 471Z" />
<glyph unicode="&#xf2;" horiz-adv-x="484" d="M242 -10Q174 -10 123 16T44 91T16 202Q16 266 44 313T123 386T242 413Q310 413 361 387T440 313T468 202Q468 139 440 91T361 17T242 -10ZM242 120Q263 120 278 129T300 157T308 202Q308 228 301 246T278 273T242
283Q221 283 207 274T184 246T176 202Q176 176 184 158T206 130T242 120ZM190 459L91 642H248L288 459H190Z" />
<glyph unicode="&#xf3;" horiz-adv-x="484" d="M242 -10Q174 -10 123 16T44 91T16 202Q16 266 44 313T123 386T242 413Q310 413 361 387T440 313T468 202Q468 139 440 91T361 17T242 -10ZM242 120Q263 120 278 129T300 157T308 202Q308 228 301 246T278 273T242
283Q221 283 207 274T184 246T176 202Q176 176 184 158T206 130T242 120ZM193 459L233 642H390L291 459H193Z" />
<glyph unicode="&#xf4;" horiz-adv-x="484" d="M242 -10Q174 -10 123 16T44 91T16 202Q16 266 44 313T123 386T242 413Q310 413 361 387T440 313T468 202Q468 139 440 91T361 17T242 -10ZM242 120Q263 120 278 129T300 157T308 202Q308 228 301 246T278 273T242
283Q221 283 207 274T184 246T176 202Q176 176 184 158T206 130T242 120ZM67 465L154 646H332L417 465H311L242 576L173 465H67Z" />
<glyph unicode="&#xf5;" horiz-adv-x="484" d="M242 -10Q174 -10 123 16T44 91T16 202Q16 266 44 313T123 386T242 413Q310 413 361 387T440 313T468 202Q468 139 440 91T361 17T242 -10ZM242 120Q263 120 278 129T300 157T308 202Q308 228 301 246T278 273T242
283Q221 283 207 274T184 246T176 202Q176 176 184 158T206 130T242 120ZM317 471Q287 471 259 483T206 508T163 520Q123 520 119 477H36Q43 568 80 604T167 641Q197 641 225 629T278 605T321 592Q340 592 351 602T365 635H448Q441 544 404 508T317 471Z" />
<glyph unicode="&#xf6;" horiz-adv-x="484" d="M242 -10Q174 -10 123 16T44 91T16 202Q16 266 44 313T123 386T242 413Q310 413 361 387T440 313T468 202Q468 139 440 91T361 17T242 -10ZM242 120Q263 120 278 129T300 157T308 202Q308 228 301 246T278 273T242
283Q221 283 207 274T184 246T176 202Q176 176 184 158T206 130T242 120ZM109 485Q73 485 46 507T18 572Q18 615 45 637T109 659Q145 659 172 637T200 572Q200 529 173 507T109 485ZM375 485Q339 485 312 507T284 572Q284 615 311 637T375 659Q411 659 438 637T466
572Q466 529 439 507T375 485Z" />
<glyph unicode="&#xf7;" horiz-adv-x="619" d="M80 238V331H539V238H80ZM250 28V148H370V28H250ZM250 421V541H370V421H250Z" />
<glyph unicode="&#xf8;" horiz-adv-x="526" d="M142 -58L96 -37L348 456L394 435L142 -58ZM242 -10Q174 -10 123 16T44 91T16 202Q16 266 44 313T123 386T242 413Q310 413 361 387T440 313T468 202Q468 139 440 91T361 17T242 -10ZM242 120Q263 120 278 129T300
157T308 202Q308 228 301 246T278 273T242 283Q221 283 207 274T184 246T176 202Q176 176 184 158T206 130T242 120Z" />
<glyph unicode="&#xf9;" horiz-adv-x="551" d="M193 -10Q147 -10 116 9T70 61T54 133V303H10V403H229V160Q229 134 241 120T275 105Q294 105 313 113T350 137L318 65V303H284V403H493V100H537V0H333L328 48L369 65Q329 30 286 10T193 -10ZM209 459L110 642H267L307
459H209Z" />
<glyph unicode="&#xfa;" horiz-adv-x="551" d="M193 -10Q147 -10 116 9T70 61T54 133V303H10V403H229V160Q229 134 241 120T275 105Q294 105 313 113T350 137L318 65V303H284V403H493V100H537V0H333L328 48L369 65Q329 30 286 10T193 -10ZM212 459L252 642H409L310
459H212Z" />
<glyph unicode="&#xfb;" horiz-adv-x="551" d="M193 -10Q147 -10 116 9T70 61T54 133V303H10V403H229V160Q229 134 241 120T275 105Q294 105 313 113T350 137L318 65V303H284V403H493V100H537V0H333L328 48L369 65Q329 30 286 10T193 -10ZM86 465L173 646H351L436
465H330L261 576L192 465H86Z" />
<glyph unicode="&#xfc;" horiz-adv-x="551" d="M193 -10Q147 -10 116 9T70 61T54 133V303H10V403H229V160Q229 134 241 120T275 105Q294 105 313 113T350 137L318 65V303H284V403H493V100H537V0H333L328 48L369 65Q329 30 286 10T193 -10ZM128 485Q92 485 65 507T37
572Q37 615 64 637T128 659Q164 659 191 637T219 572Q219 529 192 507T128 485ZM394 485Q358 485 331 507T303 572Q303 615 330 637T394 659Q430 659 457 637T485 572Q485 529 458 507T394 485Z" />
<glyph unicode="&#xfd;" horiz-adv-x="525" d="M85 -172V-47H118Q141 -47 157 -43T185 -28T207 0L223 27H180L30 303H0V403H253V303H209L279 157L348 303H304V403H525V303H495L321 -29Q294 -79 272 -111T217 -157T129 -172H85ZM230 459L270 642H427L328 459H230Z" />
<glyph unicode="&#xfe;" horiz-adv-x="535" d="M10 -197V-97H54V461H10V561H226V380Q250 396 278 404T340 413Q399 413 438 386T498 312T519 204Q519 139 497 91T434 17T339 -10Q303 -10 275 -2T226 21V-97H286V-197H10ZM269 120Q301 120 320 141T339 202Q339
237 321 260T271 283Q258 283 247 280T226 270V129Q235 125 246 123T269 120Z" />
<glyph unicode="&#xff;" horiz-adv-x="525" d="M85 -172V-47H118Q141 -47 157 -43T185 -28T207 0L223 27H180L30 303H0V403H253V303H209L279 157L348 303H304V403H525V303H495L321 -29Q294 -79 272 -111T217 -157T129 -172H85ZM146 485Q110 485 83 507T55 572Q55
615 82 637T146 659Q182 659 209 637T237 572Q237 529 210 507T146 485ZM412 485Q376 485 349 507T321 572Q321 615 348 637T412 659Q448 659 475 637T503 572Q503 529 476 507T412 485Z" />
<glyph unicode="&#x2013;" horiz-adv-x="676" d="M0 186V289H676V186H0Z" />
<glyph unicode="&#x2014;" horiz-adv-x="831" d="M0 186V289H831V186H0Z" />
<glyph unicode="&#x2018;" horiz-adv-x="227" d="M194 613V559Q164 559 150 539T135 475H197V340H50V447Q50 532 83 572T194 613Z" />
<glyph unicode="&#x2019;" horiz-adv-x="227" d="M33 340V394Q63 394 77 414T92 478H30V613H177V506Q177 421 144 381T33 340Z" />
<glyph unicode="&#x201a;" horiz-adv-x="227" d="M289 -138V-84Q319 -84 333 -64T348 0H286V135H433V28Q433 -57 400 -97T289 -138Z" />
<glyph unicode="&#x201c;" horiz-adv-x="412" d="M379 613V559Q349 559 335 539T320 475H382V340H235V447Q235 532 268 572T379 613ZM194 613V559Q164 559 150 539T135 475H197V340H50V447Q50 532 83 572T194 613Z" />
<glyph unicode="&#x201d;" horiz-adv-x="412" d="M33 340V394Q63 394 77 414T92 478H30V613H177V506Q177 421 144 381T33 340ZM218 340V394Q248 394 262 414T277 478H215V613H362V506Q362 421 329 381T218 340Z" />
<glyph unicode="&#x201e;" horiz-adv-x="412" d="M289 -138V-84Q319 -84 333 -64T348 0H286V135H433V28Q433 -57 400 -97T289 -138ZM218 -138V-84Q248 -84 262 -64T277 0H215V135H362V28Q362 -57 329 -97T218 -138Z" />
<glyph unicode="&#x2022;" horiz-adv-x="296" d="M148 151Q116 151 92 166T54 204T40 254Q40 295 70 326T148 357Q197 357 226 328T256 254Q256 211 227 181T148 151Z" />
<glyph unicode="&#x2039;" horiz-adv-x="485" d="M261 45L95 272L261 505H395L275 273L395 45H261Z" />
<glyph unicode="&#x203a;" horiz-adv-x="485" d="M109 45L229 277L109 505H243L409 279L243 45H109Z" />
</font>
</defs>
</svg>
