<?xml version="1.0" standalone="no"?>
<!DOCTYPE svg PUBLIC "-//W3C//DTD SVG 1.1//EN" "http://www.w3.org/Graphics/SVG/1.1/DTD/svg11.dtd">
<svg xmlns="http://www.w3.org/2000/svg">
<defs >
<font id="Rokkitt" horiz-adv-x="531" ><font-face
    font-family="Rokkitt Thin"
    units-per-em="1000"
    panose-1="0 0 0 0 0 0 0 0 0 0"
    ascent="817"
    descent="-320"
    alphabetic="0" />
<glyph unicode=" " horiz-adv-x="269" />
<glyph unicode="!" horiz-adv-x="103" d="M36 130L31 365V568H61V365L56 130H36ZM46 -7Q35 -7 28 0T20 18Q20 29 28 35T47 42Q58 42 65 36T73 18Q73 8 66 1T46 -7Z" />
<glyph unicode="&quot;" horiz-adv-x="158" d="M45 454L34 630H66L59 454H45ZM103 454L92 630H124L117 454H103Z" />
<glyph unicode="#" horiz-adv-x="463" d="M91 0L106 187H28L30 208H109L123 381H47V402H125L139 564H170L156 402H325L338 564H369L356 402H437L436 381H354L339 208H418V187H337L321 0H290L307 187H137L123 0H91ZM139 208H308L322 381H154L139 208Z" />
<glyph unicode="$" horiz-adv-x="553" d="M272 -88V649H298V-88H272ZM308 -11Q254 -11 212 2T143 40T106 98H111V0H83V189H111Q111 136 129 96T190 35T308 13Q381 13 420 47T459 140Q459 179 447 204T408 245T331 266L250 277Q168 288 125 322T82 428Q82 472 102
504T162 555T259 573Q332 573 380 544T443 468H436V563H464V412H436Q436 452 416 483T357 532T260 550Q188 550 149 517T110 429Q110 363 149 337T254 302L336 291Q389 284 422 266T471 217T487 142Q487 97 466 63T406 9T308 -11Z" />
<glyph unicode="%" horiz-adv-x="598" d="M128 308Q94 308 68 325T26 372T10 441Q10 480 25 510T67 556T128 573Q180 573 213 537T247 441Q247 402 232 372T190 325T128 308ZM128 329Q169 329 195 360T222 441Q222 491 196 522T128 553Q88 553 62 522T35 441Q35
392 61 361T128 329ZM470 -11Q436 -11 409 6T367 53T352 123Q352 181 385 218T470 255Q522 255 555 218T588 123Q588 84 573 54T532 6T470 -11ZM470 10Q511 10 537 42T564 123Q564 172 538 203T470 235Q430 235 404 204T377 123Q377 74 403 42T470 10ZM96 0L478
563H506L125 0H96Z" />
<glyph unicode="&amp;" horiz-adv-x="545" d="M235 -11Q179 -11 139 8T78 63T57 150Q57 191 71 223T114 279T186 317Q150 361 128 399T106 472Q106 505 121 528T166 563T237 575Q278 575 306 563T350 528T365 472Q365 421 327 378T221 308L397 90Q407 106 415
130T430 180T436 223H521V201H456Q456 187 449 163T432 113T411 71L450 22H521V0H436L395 53Q370 23 328 6T235 -11ZM236 13Q281 13 318 28T380 71L199 297Q142 281 114 244T85 151Q85 107 102 76T154 29T236 13ZM209 326Q268 349 303 387T338 472Q338 510 312
531T237 553Q188 553 160 532T131 472Q131 438 154 402T209 326Z" />
<glyph unicode="&apos;" horiz-adv-x="100" d="M45 454L34 630H66L59 454H45Z" />
<glyph unicode="(" horiz-adv-x="249" d="M233 -56Q171 -34 130 14T68 127T47 258Q47 326 67 389T129 502T233 573L234 556Q182 534 148 488T96 383T78 259Q78 196 95 136T147 30T234 -39L233 -56Z" />
<glyph unicode=")" horiz-adv-x="249" d="M43 -56L42 -39Q94 -16 129 30T181 136T199 259Q199 323 182 382T129 488T42 556L43 573Q105 551 146 502T209 390T230 258Q230 191 209 127T147 15T43 -56Z" />
<glyph unicode="*" horiz-adv-x="459" d="M115 206L91 225L217 384L22 450L32 479L221 399L213 602H246L238 399L426 479L437 450L242 384L367 225L344 207L229 373L115 206Z" />
<glyph unicode="+" horiz-adv-x="468" d="M220 91V268H50V294H220V471H248V294H418V268H248V91H220Z" />
<glyph unicode="," horiz-adv-x="149" d="M40 -70V-50Q57 -50 62 -39T68 0H40V54H89V9Q89 -28 81 -49T40 -70Z" />
<glyph unicode="-" horiz-adv-x="433" d="M89 239V262H342V239H89Z" />
<glyph unicode="." horiz-adv-x="149" d="M40 0V54H89V0H40Z" />
<glyph unicode="/" horiz-adv-x="277" d="M10 -140L280 593H307L37 -140H10Z" />
<glyph unicode="0" horiz-adv-x="533" d="M266 -11Q169 -11 117 64T64 279Q64 420 116 496T266 573Q364 573 416 497T469 279Q469 140 417 65T266 -11ZM266 10Q351 10 396 79T441 279Q441 411 396 481T266 551Q182 551 137 481T92 279Q92 149 137 79T266 10Z" />
<glyph unicode="1" horiz-adv-x="275" d="M51 0V22H131V532L51 511L50 534L159 563V22H239V0H51Z" />
<glyph unicode="2" horiz-adv-x="474" d="M59 0V24L258 222Q301 265 327 298T365 360T377 422Q377 481 341 516T239 551Q172 551 133 516T93 418Q93 403 95 389T101 358H74Q70 374 68 389T65 420Q65 466 86 500T147 553T239 573Q316 573 360 533T405 422Q405 385
390 352T347 284T275 206L82 15L77 24H379V125H406V0H59Z" />
<glyph unicode="3" horiz-adv-x="462" d="M226 -10Q153 -10 105 18T30 99L52 114Q78 62 121 38T226 14Q294 14 336 49T379 146Q379 214 331 249T190 285V307Q280 307 326 338T373 427Q373 486 336 518T228 550Q167 550 123 524T58 450L36 460Q51 496 78 521T143
560T228 573Q311 573 356 535T401 427Q401 385 381 355T322 310T227 294V298Q313 299 360 259T408 147Q408 100 385 65T322 10T226 -10Z" />
<glyph unicode="4" horiz-adv-x="443" d="M195 0V22H285V149H25L20 170L291 563H313V171H413V149H313V22H383V0H195ZM49 171H285V514L49 171Z" />
<glyph unicode="5" horiz-adv-x="475" d="M233 -11Q175 -11 126 13T40 83L59 100Q91 58 137 36T233 13Q316 13 358 57T401 174Q401 249 360 290T245 332Q197 332 161 316T95 271L68 283L75 563H408V445H380V540H100L93 286L85 292Q113 318 153 337T246 356Q333
356 381 307T429 174Q429 118 406 77T339 12T233 -11Z" />
<glyph unicode="6" horiz-adv-x="412" d="M202 -11Q152 -11 113 10T51 70T28 158Q28 190 35 216T54 266T77 309L248 601L274 587L86 275L71 261Q84 283 107 298T158 321T208 329Q261 329 300 308T360 250T382 160Q382 108 360 70T298 10T202 -11ZM203 11Q273 11
313 51T354 159Q354 227 314 267T206 307Q169 307 135 289T79 237T57 153Q57 91 97 51T203 11Z" />
<glyph unicode="7" horiz-adv-x="413" d="M154 0L338 541H38V425H10V563H367V542L181 0H154Z" />
<glyph unicode="8" horiz-adv-x="440" d="M220 -11Q163 -11 122 8T59 62T36 145Q36 203 65 246T156 299Q102 317 79 350T55 432Q55 476 75 507T132 556T220 573Q271 574 308 557T365 508T385 432Q385 381 360 343T280 294Q340 283 372 243T404 145Q404 98 382
63T319 8T220 -11ZM220 12Q291 12 333 48T375 145Q375 209 333 246T182 289Q144 283 118 265T78 217T65 145Q65 84 107 48T220 12ZM265 305Q294 313 314 327T346 366T357 431Q357 486 321 518T220 550Q157 550 121 518T84 431Q84 373 125 341T265 305Z" />
<glyph unicode="9" horiz-adv-x="412" d="M162 -38L136 -24L324 288L339 302Q326 280 303 265T252 242T202 234Q150 234 111 255T50 314T28 403Q28 455 50 493T112 553T208 574Q259 574 298 553T359 493T382 405Q382 374 375 347T356 297T333 254L162 -38ZM204
256Q242 256 276 274T331 326T353 410Q353 472 313 512T207 552Q137 552 97 512T56 404Q56 336 96 296T204 256Z" />
<glyph unicode=":" horiz-adv-x="149" d="M40 0V54H89V0H40ZM40 339V393H89V339H40Z" />
<glyph unicode=";" horiz-adv-x="149" d="M40 -70V-50Q57 -50 62 -39T68 0H40V54H89V9Q89 -28 81 -49T40 -70ZM40 339V393H89V339H40Z" />
<glyph unicode="&lt;" horiz-adv-x="413" d="M383 118L50 273V293L383 448V418L88 283L383 148V118Z" />
<glyph unicode="=" horiz-adv-x="467" d="M50 344V370H417V344H50ZM50 186V212H417V186H50Z" />
<glyph unicode="&gt;" horiz-adv-x="413" d="M30 118L363 273V293L30 448V418L325 283L30 148V118Z" />
<glyph unicode="?" horiz-adv-x="343" d="M135 130V139Q135 181 147 210T181 263T227 312Q255 339 274 369T293 443Q293 493 262 522T174 551Q119 551 84 524T46 448H18Q20 488 40 515T96 558T174 573Q244 573 283 537T323 443Q323 397 300 363T243 295Q219 271
201 250T173 202T163 139V130H135ZM149 -10Q137 -10 129 -3T121 16Q121 27 129 34T149 42Q161 42 169 35T177 16Q177 5 169 -2T149 -10Z" />
<glyph unicode="@" horiz-adv-x="678" d="M371 -14Q291 -14 232 9T134 72T76 162T57 267Q57 323 77 376T137 473T234 542T367 568Q436 568 485 548T566 494T611 418T626 332Q626 285 612 245T575 176T525 133T470 121Q457 123 446 132T432 165T443 229Q427 183
396 152T318 121Q287 121 261 136T218 180T202 254Q202 299 220 341T273 412T358 440Q403 440 433 413T462 335L483 430H502L458 232Q447 179 452 160T478 138Q495 137 517 149T559 186T592 248T605 332Q605 388 580 438T501 519T365 550Q284 550 220 513T120 412T83
266Q83 187 117 128T216 37T371 4Q426 4 469 16T547 51L557 38Q521 13 477 0T371 -14ZM321 139Q360 139 388 166T433 235T449 318Q449 371 424 395T355 420Q316 420 287 397T242 336T226 253Q226 201 249 170T321 139Z" />
<glyph unicode="A" horiz-adv-x="675" d="M42 0V22H118L311 541H240V563H438V541H365L558 22H633V0H454V22H526L448 235H227L148 22H221V0H42ZM233 256H441L338 538H336L233 256Z" />
<glyph unicode="B" horiz-adv-x="633" d="M60 0V22H145V541H60V563H378Q458 563 500 529T543 426Q543 375 521 341T458 298Q504 290 530 268T566 216T577 154Q577 109 559 75T507 20T424 0H60ZM175 22H422Q481 22 514 58T548 155Q548 210 515 247T408 285H175V22ZM175
307H406Q465 307 490 340T515 425Q515 486 479 513T375 541H175V307Z" />
<glyph unicode="C" horiz-adv-x="686" d="M348 -11Q297 -11 246 6T152 60T84 152T58 284Q58 364 94 429T196 533T349 572Q417 572 462 554T539 502T592 422L578 428V563H605V406L584 399Q547 475 494 512T349 549Q266 549 208 512T119 414T88 283Q88 215 110 164T171
80T255 30T349 13Q394 13 438 24T521 63T587 138L606 125Q577 76 538 46T451 3T348 -11Z" />
<glyph unicode="D" horiz-adv-x="698" d="M60 0V22H145V541H60V563H395Q458 563 503 537T578 469T622 377T637 280Q637 232 622 183T578 92T503 26T398 0H60ZM175 22H393Q447 22 487 44T554 104T594 187T608 279Q608 325 595 371T555 455T489 517T396 541H175V22Z" />
<glyph unicode="E" horiz-adv-x="597" d="M60 0V22H145V541H60V563H519V402H493V541H175V298H380V381H403V187H381V276H175V22H505V163H531V0H60Z" />
<glyph unicode="F" horiz-adv-x="570" d="M60 0V22H145V541H60V563H524V389H500V541H175V301H381V377H402V191H381V278H175V22H260V0H60Z" />
<glyph unicode="G" horiz-adv-x="681" d="M347 -11Q258 -11 193 25T93 128T57 285Q57 374 92 438T193 538T347 573Q422 573 484 539T577 440L563 448V563H590V412H568Q540 478 481 514T347 550Q268 550 210 518T119 426T87 285Q87 202 119 141T209 46T347 13Q381
13 421 23T499 60T559 132T583 248L590 246H459V268H612V265Q612 178 586 124T518 41T431 0T347 -11Z" />
<glyph unicode="H" horiz-adv-x="730" d="M60 0V22H145V541H60V563H260V541H175V296H555V541H470V563H669V541H584V22H669V0H470V22H555V273H175V22H260V0H60Z" />
<glyph unicode="I" horiz-adv-x="311" d="M55 0V22H140V541H55V563H255V541H170V22H255V0H55Z" />
<glyph unicode="J" horiz-adv-x="277" d="M49 -32V-9H109Q139 -9 146 11T154 78V541H89V563H246V541H185V73Q185 28 176 6T150 -24T104 -32H49Z" />
<glyph unicode="K" horiz-adv-x="636" d="M60 0V22H145V541H60V563H260V541H175V289L461 541H385V563H579V541H496L211 287L516 22H595V0H404V22H479L175 284V22H260V0H60Z" />
<glyph unicode="L" horiz-adv-x="517" d="M60 0V22H145V541H60V563H260V541H175V22H466V182H491V0H60Z" />
<glyph unicode="M" horiz-adv-x="711" d="M26 0V22H101V541H26V563H135L361 104L574 563H685V541H610V22H685V0H504V22H581V514L363 48H357L128 514V22H204V0H26Z" />
<glyph unicode="N" horiz-adv-x="705" d="M64 0V22H136V541H64V563H164L577 42V541H502V563H667V541H604V0H574L164 518V22H237V0H64Z" />
<glyph unicode="O" horiz-adv-x="710" d="M354 -11Q279 -11 224 14T132 82T79 175T61 279Q61 332 79 384T133 478T224 547T355 573Q430 573 485 547T577 479T632 384T650 279Q650 226 633 175T579 81T486 14T354 -11ZM355 13Q423 13 472 36T555 98T604 184T620
279Q620 327 604 374T555 462T473 526T355 550Q287 550 238 526T156 462T107 375T91 279Q91 230 106 183T154 97T236 36T355 13Z" />
<glyph unicode="P" horiz-adv-x="593" d="M60 0V22H145V541H60V563H361Q439 563 482 524T525 414Q525 333 483 288T365 243H221L222 264H365Q427 264 461 303T495 413Q495 474 460 507T362 541H175V22H260V0H60Z" />
<glyph unicode="Q" horiz-adv-x="703" d="M506 -103Q458 -103 420 -77T347 -11Q273 -9 219 16T130 84T78 177T61 279Q61 332 79 384T133 478T224 547T355 573Q430 573 485 547T577 479T632 384T650 279Q650 228 634 179T585 88T500 20T378 -10Q406 -42 437 -62T507
-82Q521 -82 535 -80T566 -71V-93Q551 -98 536 -100T506 -103ZM355 13Q423 13 472 36T555 98T604 184T620 279Q620 327 604 374T555 462T473 526T355 550Q287 550 238 526T156 462T107 375T91 279Q91 230 106 183T154 97T236 36T355 13Z" />
<glyph unicode="R" horiz-adv-x="631" d="M60 0V22H145V541H60V563H366Q424 563 459 541T510 485T526 413Q526 377 511 343T457 287T352 264L503 22H586V0H483L320 263H209V285H340Q405 285 438 305T484 355T497 413Q497 444 485 473T445 521T368 541H175V22H260V0H60Z" />
<glyph unicode="S" horiz-adv-x="553" d="M311 -11Q257 -11 215 2T146 40T109 98H114V0H86V189H114Q114 136 132 96T193 35T311 13Q384 13 423 47T462 140Q462 179 450 204T411 245T334 266L253 277Q171 288 128 322T85 428Q85 472 105 504T165 555T262 573Q335
573 383 544T446 468H439V563H467V412H439Q439 452 419 483T360 532T263 550Q191 550 152 517T113 429Q113 363 152 337T257 302L339 291Q392 284 425 266T474 217T490 142Q490 97 469 63T409 9T311 -11Z" />
<glyph unicode="T" horiz-adv-x="560" d="M177 0V22H262V541H51V377H25V563H535V377H508V541H292V22H376V0H177Z" />
<glyph unicode="U" horiz-adv-x="729" d="M360 -11Q287 -11 232 13T147 81T116 183V541H42V563H221V541H146V183Q146 133 173 95T248 35T360 13Q429 13 480 34T561 93T590 182V541H517V563H696V541H619V182Q619 124 586 81T495 13T360 -11Z" />
<glyph unicode="V" horiz-adv-x="606" d="M289 0L86 541H19V563H196V541H118L305 37L490 541H414V563H585V541H525L320 0H289Z" />
<glyph unicode="W" horiz-adv-x="953" d="M286 0L103 541H35V563H213V541H135L303 38L467 534H490L652 38L817 541H741V563H918V541H847L667 0H636L478 480L318 0H286Z" />
<glyph unicode="X" horiz-adv-x="632" d="M54 0V21H121L299 290L132 541H60V563H234V541H160L316 307L469 541H394V563H571V541H499L331 286L508 21H581V0H406V21H480L313 270L151 21H228V0H54Z" />
<glyph unicode="Y" horiz-adv-x="615" d="M210 0V22H292V227L83 541H7V563H190V541H116L309 252L500 541H422V563H606V541H531L322 227V22H405V0H210Z" />
<glyph unicode="Z" horiz-adv-x="602" d="M69 0V23L484 541H108V392H83V563H518V541L103 22H506V178H531V0H69Z" />
<glyph unicode="[" horiz-adv-x="173" d="M78 -65V584H168V561H110V-41H168V-65H78Z" />
<glyph unicode="\" horiz-adv-x="220" d="M230 -140L10 593H36L256 -140H230Z" />
<glyph unicode="]" horiz-adv-x="172" d="M1 -65V-41H59V561H1V584H91V-65H1Z" />
<glyph unicode="^" horiz-adv-x="446" d="M35 391L209 626H243L409 391H382L226 599L63 391H35Z" />
<glyph unicode="_" horiz-adv-x="350" d="M6 -63V-42H344V-63H6Z" />
<glyph unicode="`" horiz-adv-x="274" d="M158 483L100 606H130L174 483H158Z" />
<glyph unicode="a" horiz-adv-x="442" d="M172 -11Q113 -11 77 21T40 106Q40 150 59 175T109 210T177 221Q216 221 257 215T338 201L324 195V263Q324 324 292 352T209 381Q174 381 139 372T72 349L63 371Q103 388 140 395T206 403Q265 403 296 383T340 332T353
271V22H413V0H332L324 46H336Q288 17 248 3T172 -11ZM173 11Q210 11 247 25T339 70L324 55V190L339 181Q296 190 256 195T178 201Q135 201 102 180T68 105Q68 68 95 40T173 11Z" />
<glyph unicode="b" horiz-adv-x="509" d="M129 573V341L106 329Q141 364 188 383T278 403Q339 403 384 379T454 310T479 201Q479 136 453 88T380 15T270 -11Q224 -11 181 10T109 68L129 55V0H31V22H100V551H35V573H129ZM275 381Q234 381 188 361T105 305L129 336V62L108
94Q138 57 181 34T268 11Q351 11 400 60T450 195Q450 281 403 331T275 381Z" />
<glyph unicode="c" horiz-adv-x="467" d="M233 -11Q174 -11 128 16T56 90T30 198Q30 258 56 304T128 377T233 403Q286 403 326 379T378 317H369V393H396V278H373Q366 323 329 352T235 381Q184 381 144 358T82 293T59 197Q59 143 81 102T143 36T234 12Q281 12 317
28T387 78L398 59Q365 25 326 7T233 -11Z" />
<glyph unicode="d" horiz-adv-x="497" d="M238 -11Q178 -11 131 15T57 89T30 197Q30 259 56 305T129 377T236 403Q285 403 331 384T403 328L383 343V551H317V573H412V22H479V0H383V52L403 62Q375 31 332 10T238 -11ZM240 12Q289 12 331 33T404 87L383 60V336L404
303Q372 342 329 361T238 381Q186 381 146 358T82 292T59 193Q59 140 82 99T147 35T240 12Z" />
<glyph unicode="e" horiz-adv-x="474" d="M237 -11Q183 -11 136 13T60 85T30 197Q30 266 59 312T134 381T230 404Q281 404 324 382T394 314T421 195V189H54V210H394Q394 269 371 307T310 363T230 382Q184 382 145 360T83 297T59 199Q59 144 82 102T147 36T238
12Q285 12 331 33T402 85L412 63Q375 26 329 8T237 -11Z" />
<glyph unicode="f" horiz-adv-x="269" d="M54 0V22H127V371H52V393H127V502Q127 528 137 546T166 573T210 583Q244 583 265 566T289 517L267 508Q263 534 250 547T212 561Q188 561 173 546T158 501V393H263V371H158V22H253V0H54Z" />
<glyph unicode="g" horiz-adv-x="497" d="M233 -184Q202 -184 167 -178T93 -161L98 -138Q139 -150 172 -155T234 -161Q312 -161 350 -122T388 -15V62L407 74Q380 40 333 19T238 -3Q178 -3 132 23T58 95T31 201Q31 261 56 306T125 377T227 402Q277 402 328 381T407
326L388 338V393H484V371H417V-8Q417 -68 395 -107T331 -165T233 -184ZM229 381Q179 381 141 358T82 293T60 197Q60 144 83 104T147 42T240 19Q284 19 332 41T407 98L388 68V330L409 305Q378 338 327 359T229 381Z" />
<glyph unicode="h" horiz-adv-x="482" d="M10 0V22H82V551H13V573H111V344H104Q152 371 192 387T276 403Q331 403 363 371T396 282V22H472V0H283V22H368V290Q368 332 342 356T273 380Q236 380 193 364T104 323L111 331V22H183V0H10Z" />
<glyph unicode="i" horiz-adv-x="238" d="M18 0V22H104V371H19V393H133V22H219V0H18ZM111 495Q99 495 92 502T85 520Q85 531 92 537T111 544Q123 544 130 538T138 520Q138 509 131 502T111 495Z" />
<glyph unicode="j" horiz-adv-x="202" d="M10 -122V-100H42Q79 -100 93 -83T108 -21V373H31V393H139V-20Q139 -54 129 -76T97 -110T40 -122H10ZM115 496Q104 496 96 503T88 521Q88 531 96 537T115 544Q127 544 134 538T142 521Q142 510 135 503T115 496Z" />
<glyph unicode="k" horiz-adv-x="478" d="M30 0V22H103V551H34V573H132V207L345 371H267V393H454V371H382L167 205L369 22H457V0H355L132 205V22H204V0H30Z" />
<glyph unicode="l" horiz-adv-x="224" d="M28 0V22H101V551H31V573H129V22H202V0H28Z" />
<glyph unicode="m" horiz-adv-x="770" d="M18 0V22H104V371H19V393H133V346L121 345Q165 372 211 387T292 403Q351 403 381 368T412 280V22H486V0H298V22H383V290Q383 332 357 356T287 380Q259 380 214 365T119 323L133 338V22H217V0H18ZM579 0V22H664V290Q664
332 638 356T567 380Q530 380 486 366T400 323L392 342Q439 371 481 387T572 403Q627 403 659 371T692 282V22H767V0H579Z" />
<glyph unicode="n" horiz-adv-x="497" d="M18 0V22H104V371H19V393H133V343H124Q167 369 211 386T299 403Q354 403 386 371T419 282V22H494V0H305V22H390V290Q390 332 364 356T294 380Q259 380 214 363T124 320L133 335V22H217V0H18Z" />
<glyph unicode="o" horiz-adv-x="481" d="M239 -12Q178 -12 131 15T57 89T30 199Q30 259 57 305T131 378T239 404Q301 404 349 378T424 306T451 199Q451 137 424 90T349 15T239 -12ZM239 11Q293 11 334 35T398 101T422 199Q422 253 399 294T334 359T239 382Q186
382 146 359T82 295T59 199Q59 144 82 102T145 35T239 11Z" />
<glyph unicode="p" horiz-adv-x="507" d="M30 -154V-133H99V371H37V393H128V342L104 329Q135 362 183 382T279 403Q338 403 382 377T451 305T476 195Q476 133 452 87T383 15T280 -11Q250 -11 217 -1T156 26T109 66L128 53L127 -133H195V-154H30ZM278 11Q355 11
401 62T448 195Q448 278 401 328T276 379Q247 379 216 370T156 344T104 305L128 337V62L108 92Q137 57 186 34T278 11Z" />
<glyph unicode="q" horiz-adv-x="515" d="M316 -161V-139H384V50L405 64Q378 32 334 10T238 -12Q178 -12 131 14T57 88T30 197Q30 259 57 305T130 378T237 404Q287 404 332 384T406 330L384 340L387 393H477V371H413V-139H481V-161H316ZM240 11Q285 11 329 32T405
88L384 58V334L404 308Q373 340 329 361T237 382Q185 382 145 359T82 293T59 193Q59 139 82 98T147 34T240 11Z" />
<glyph unicode="r" horiz-adv-x="364" d="M55 0V22H142V371H57V393H171V270L161 269Q168 319 185 348T225 389T272 402Q292 402 310 398T344 383L338 360Q322 369 308 374T273 379Q233 379 202 339T171 226V22H254V0H55Z" />
<glyph unicode="s" horiz-adv-x="446" d="M246 -11Q208 -11 174 -2T116 24T86 57L96 45V0H70V117H94L97 51L80 88Q103 50 146 31T245 11Q297 11 330 33T363 94Q363 139 335 156T244 186L179 199Q132 210 103 231T73 300Q73 351 114 377T215 403Q243 403 271 395T323
373T360 337L343 349V393H369V265H345L340 343L350 317Q343 333 323 347T275 371T217 381Q171 381 137 361T102 301Q102 263 129 247T196 223L261 209Q309 199 337 186T377 151T390 96Q390 59 369 36T315 1T246 -11Z" />
<glyph unicode="t" horiz-adv-x="282" d="M216 0Q163 0 129 22T94 107V371H20V393H94V529L123 538V393H238V371H123V109Q123 60 145 41T218 22H257V0H216Z" />
<glyph unicode="u" horiz-adv-x="502" d="M215 -11Q166 -11 140 9T104 56T94 103V371H18V393H124V104Q124 69 146 41T217 12Q274 12 316 33T403 89L377 65V371H304V393H407V21H480V0H382L378 62L404 68Q362 31 315 10T215 -11Z" />
<glyph unicode="v" horiz-adv-x="515" d="M243 0L80 371H8V393H194V371H111L261 23L406 371H324V393H506V371H437L276 0H243Z" />
<glyph unicode="w" horiz-adv-x="761" d="M215 0L81 371H16V393H186V371H110L234 22L362 371H292V393H466V371H394L524 23L642 371H574V393H737V371H670L542 0H508L379 346L250 0H215Z" />
<glyph unicode="x" horiz-adv-x="527" d="M24 0V22H97L249 203L108 371H36V393H216V371H137L266 218L391 371H312V393H500V371H419L280 201L431 22H505V0H317V22H403L263 187L127 22H202V0H24Z" />
<glyph unicode="y" horiz-adv-x="523" d="M115 -122V-96H154Q184 -96 199 -92T225 -76T245 -41L276 30H258L104 371H23V393H205V371H134L281 41L420 371H337V393H514V371H450L271 -47Q258 -77 245 -93T211 -115T155 -122H115Z" />
<glyph unicode="z" horiz-adv-x="462" d="M70 0V25L351 372H109V277H83V393H379V365L104 21H361V130H386V0H70Z" />
<glyph unicode="{" horiz-adv-x="209" d="M159 -4Q129 -4 112 5T88 35T78 86T76 162Q76 201 73 224T55 257T8 267V294Q43 294 57 305T73 342T76 411Q76 451 78 480T87 529T112 557T159 566H188V544Q152 544 134 538T110 513T104 454Q104 399 102 366T94 315T75
290T43 281Q62 277 74 270T92 245T101 194T104 104Q104 67 110 48T134 23T188 17V-4H159Z" />
<glyph unicode="|" horiz-adv-x="105" d="M40 -140V593H65V-140H40Z" />
<glyph unicode="}" horiz-adv-x="210" d="M24 -4V17Q60 17 78 23T102 48T108 104Q108 160 110 193T119 244T138 269T169 281Q149 283 137 290T119 315T110 366T108 454Q108 494 103 513T79 538T24 544V566H53Q83 566 100 557T124 529T134 481T136 411Q136 368
138 343T155 306T204 294V267Q172 267 158 257T140 224T136 162Q136 118 134 87T125 35T100 6T53 -4H24Z" />
<glyph unicode="~" horiz-adv-x="420" d="M298 259Q269 259 239 274T181 305T126 321Q104 321 90 309T76 271H50Q50 292 58 308T84 333T124 343Q156 343 184 328T240 297T296 281Q318 281 331 293T344 331H370Q370 308 362 292T337 267T298 259Z" />
<glyph unicode="&#xa0;" horiz-adv-x="269" />
<glyph unicode="&#xa1;" horiz-adv-x="93" d="M46 283L41 48V-155H71V48L66 283H46ZM56 420Q45 420 38 413T30 395Q30 384 38 378T57 371Q68 371 75 377T83 395Q83 405 76 412T56 420Z" />
<glyph unicode="&#xa2;" horiz-adv-x="467" d="M214 -88V480H240V-88H214ZM233 -11Q174 -11 128 16T56 90T30 198Q30 258 56 304T128 377T233 403Q286 403 326 379T378 317H369V393H396V278H373Q366 323 329 352T235 381Q184 381 144 358T82 293T59 197Q59 143
81 102T143 36T234 12Q281 12 317 28T387 78L398 59Q365 25 326 7T233 -11Z" />
<glyph unicode="&#xa3;" horiz-adv-x="512" d="M115 -11Q74 -11 47 12T20 73Q20 110 45 135T115 161Q149 161 174 148T221 114T261 73T304 39T356 25Q407 25 426 58T450 142H472V136Q471 76 443 37T360 -3Q327 -3 302 11T257 47T215 89T171 124T115 139Q82 139
64 121T45 73Q45 45 64 28T115 11Q149 11 173 27T211 70T224 126Q224 160 211 188T178 243T138 296T105 353T91 419Q91 466 114 501T178 555T267 574Q345 574 387 536T433 431H408Q404 482 374 516T268 550Q199 550 159 515T119 420Q119 385 132 355T164 298T202
245T235 189T248 126Q248 90 232 59T187 9T115 -11ZM53 290V312H386V290H53Z" />
<glyph unicode="&#xa4;" horiz-adv-x="533" d="M267 66Q201 66 149 95T67 177T37 294Q37 359 67 410T149 491T267 521Q333 521 384 492T466 411T496 294Q496 229 466 177T385 96T267 66ZM49 57L30 76L108 145L123 130L49 57ZM484 57L410 130L425 145L503 76L484
57ZM267 88Q325 88 370 115T441 188T468 294Q468 353 442 399T370 472T267 499Q209 499 164 472T92 399T65 294Q65 235 91 189T163 115T267 88ZM108 442L30 511L49 530L123 457L108 442ZM425 442L410 457L484 530L503 511L425 442Z" />
<glyph unicode="&#xa5;" horiz-adv-x="619" d="M153 220V240H466V220H153ZM153 144V164H466V144H153ZM213 0V22H295V227L86 541H10V563H193V541H119L312 252L503 541H425V563H609V541H534L325 227V22H408V0H213Z" />
<glyph unicode="&#xa6;" horiz-adv-x="105" d="M40 293V593H65V293H40ZM40 -140V160H65V-140H40Z" />
<glyph unicode="&#xa7;" horiz-adv-x="462" d="M244 -66Q199 -66 169 -58T124 -32T109 12Q109 26 115 30T129 35Q131 -15 161 -32T245 -49Q305 -49 331 -23T358 46Q358 74 349 91T310 127T222 176Q174 201 147 219T108 257T96 307Q96 342 118 365T171 395Q144
413 129 436T113 497Q113 544 147 574T245 605Q291 605 318 591T356 556T368 514Q368 503 364 498T350 492Q348 521 337 542T304 576T245 588Q192 588 166 563T139 498Q139 466 151 448T189 413T258 373Q309 344 341 323T388 281T404 232Q406 199 393 172T352 127Q365
114 373 97T381 49Q381 -3 348 -34T244 -66ZM341 137Q364 155 372 177T380 227Q380 249 368 266T328 303T249 350Q248 351 238 356T216 368T193 380T182 386Q153 376 137 356T121 309Q121 282 132 266T168 235T235 197Q267 181 294 166T341 137Z" />
<glyph unicode="&#xa8;" horiz-adv-x="402" d="M123 484Q112 484 106 490T100 506Q100 516 106 521T122 527Q133 527 138 522T144 506Q144 496 139 490T123 484ZM280 484Q270 484 264 489T258 505Q258 516 264 521T280 527Q290 527 296 522T302 505Q302 495 296
490T280 484Z" />
<glyph unicode="&#xa9;" horiz-adv-x="740" d="M370 -22Q304 -22 247 1T148 65T81 162T57 283Q57 348 81 403T147 500T247 565T370 588Q436 588 492 565T592 501T659 404T683 283Q683 218 659 163T592 66T493 1T370 -22ZM370 -1Q450 -1 515 36T618 138T656 283Q656
364 618 428T515 529T370 567Q290 567 225 530T121 428T83 283Q83 203 121 139T224 37T370 -1ZM371 81Q318 81 273 106T201 178T174 285Q174 338 192 376T241 438T306 473T375 485Q418 485 452 471T506 424L507 475H529V365H506Q502 412 469 438T377 465Q337 465
296 447T228 389T200 284Q200 230 224 189T287 125T373 102Q420 102 457 119T527 170L531 148Q500 115 459 98T371 81Z" />
<glyph unicode="&#xaa;" horiz-adv-x="330" d="M120 274Q68 274 44 300T20 360Q20 393 36 411T80 436T138 443Q161 443 185 441T228 435V475Q228 551 146 551Q118 551 92 545T44 521L33 541Q57 559 86 566T144 573Q191 573 214 558T246 521T255 480V300H306V279H230L229
310Q210 295 180 285T120 274ZM121 295Q150 295 178 304T228 333V417Q207 419 185 421T143 423Q103 423 75 411T46 360Q46 332 65 314T121 295Z" />
<glyph unicode="&#xab;" horiz-adv-x="374" d="M284 143L153 329L284 512H304L200 329L304 143H284ZM160 143L29 329L160 512H180L76 329L180 143H160Z" />
<glyph unicode="&#xac;" horiz-adv-x="436" d="M361 156L360 268H50V294H385L386 156H361Z" />
<glyph unicode="&#xad;" horiz-adv-x="433" d="M89 239V262H342V239H89Z" />
<glyph unicode="&#xae;" horiz-adv-x="740" d="M357 -11Q281 -11 226 14T134 82T81 176T63 280Q63 333 81 385T135 481T226 549T357 575Q433 575 488 549T580 480T635 385T653 280Q653 227 636 176T582 82T489 14T357 -11ZM357 11Q425 11 475 34T559 97T609 184T626
281Q626 329 610 377T560 465T476 529T357 553Q288 553 238 529T154 465T104 377T88 281Q88 231 104 183T153 96T237 34T357 11ZM209 110V128H256V453H206V471H389Q439 471 466 446T494 373Q494 333 468 310T392 285L480 129H530V110H465L368 283H279V128H327V110H209ZM279
302H389Q428 302 450 320T472 373Q472 411 450 432T389 453H279V302Z" />
<glyph unicode="&#xaf;" horiz-adv-x="384" d="M100 483V503H284V483H100Z" />
<glyph unicode="&#xb0;" horiz-adv-x="208" d="M104 399Q60 399 31 428T2 501Q2 545 31 574T104 603Q148 603 177 574T206 501Q206 458 177 429T104 399ZM104 421Q136 421 157 444T178 502Q178 536 157 558T104 581Q72 581 51 558T30 501Q30 467 51 444T104 421Z" />
<glyph unicode="&#xb1;" horiz-adv-x="467" d="M220 130V306H50V330H220V498H248V330H417V306H248V130H220ZM50 62V86H417V62H50Z" />
<glyph unicode="&#xb2;" horiz-adv-x="265" d="M14 298V318L137 429Q176 464 197 488T218 550Q217 590 193 611T129 633Q80 633 57 603T33 532Q33 524 34 515T37 496H14Q12 506 11 515T10 534Q10 567 23 594T62 637T129 653Q176 653 209 628T242 549Q242 510 214
478T151 414L27 304L29 318H227V389H249V298H14Z" />
<glyph unicode="&#xb3;" horiz-adv-x="282" d="M144 286Q100 286 66 305T18 357L37 369Q51 338 79 323T143 307Q187 307 212 326T238 381Q238 419 211 441T125 464V485Q179 485 204 506T230 561Q230 594 208 613T146 633Q112 633 85 617T43 574L25 584Q40 616
73 634T146 653Q196 653 225 629T254 563Q254 517 221 493T137 469V479Q191 479 226 454T262 382Q262 336 229 311T144 286Z" />
<glyph unicode="&#xb4;" horiz-adv-x="274" d="M100 483L144 606H174L115 483H100Z" />
<glyph unicode="&#xb5;" horiz-adv-x="519" d="M113 -128V371H28V393H142V104Q142 69 164 41T235 12Q284 12 321 29T395 71V371H322V393H424V21H497V0H400L397 49Q360 23 320 6T233 -11Q198 -11 176 0T142 28V-128H113Z" />
<glyph unicode="&#xb6;" horiz-adv-x="475" d="M239 -8V14H324V324H206Q155 324 122 343T73 391T57 447Q57 473 72 499T121 544T204 563H431V543H353V14H421V-8H239ZM236 352H324V543H236V352Z" />
<glyph unicode="&#xb7;" horiz-adv-x="196" d="M98 243Q86 243 78 250T70 271Q70 284 78 291T98 299Q110 299 118 292T126 271Q126 258 118 251T98 243Z" />
<glyph unicode="&#xb8;" horiz-adv-x="308" d="M150 -145Q124 -145 100 -132V-117Q111 -121 121 -122T140 -124Q158 -124 168 -119T178 -102Q178 -89 166 -83T118 -75L147 0H163L145 -56Q177 -56 192 -68T208 -101Q208 -124 191 -134T150 -145Z" />
<glyph unicode="&#xb9;" horiz-adv-x="183" d="M20 298V318H78V614L25 603L20 624L105 641V318H163V298H20Z" />
<glyph unicode="&#xba;" horiz-adv-x="359" d="M179 274Q140 274 106 290T51 340T30 424Q30 474 51 507T106 556T179 573Q219 573 253 557T308 507T329 424Q329 374 308 341T253 291T179 274ZM179 296Q211 296 238 309T283 351T301 424Q301 469 284 497T239 538T179
551Q148 551 121 538T76 497T58 423Q58 379 75 351T120 309T179 296Z" />
<glyph unicode="&#xbb;" horiz-adv-x="374" d="M193 143L297 329L193 512H213L345 329L213 143H193ZM69 143L173 329L69 512H89L221 329L89 143H69Z" />
<glyph unicode="&#xbc;" horiz-adv-x="581" d="M40 476V496H98V792L45 781L40 802L125 819V496H183V476H40ZM89 0L471 563H499L118 0H89ZM415 0V20H465V93H296L289 112L460 343H488V113H541V93H488V20H538V0H415ZM314 113H465V315L314 113Z" />
<glyph unicode="&#xbd;" horiz-adv-x="651" d="M40 475V495H98V791L45 780L40 801L125 818V495H183V475H40ZM90 0L472 563H500L119 0H90ZM376 0V20L499 131Q538 166 559 190T580 252Q579 292 555 313T491 335Q442 335 419 305T395 234Q395 226 396 217T399 198H376Q374
208 373 217T372 236Q372 269 385 296T424 339T491 355Q538 355 571 330T604 251Q604 212 576 180T513 116L389 6L391 20H589V91H611V0H376Z" />
<glyph unicode="&#xbe;" horiz-adv-x="658" d="M166 462Q122 462 88 481T40 533L59 545Q73 514 101 499T165 483Q209 483 234 502T260 557Q260 595 233 617T147 640V661Q201 661 226 682T252 737Q252 770 230 789T168 809Q134 809 107 793T65 750L47 760Q62 792
95 810T168 829Q218 829 247 805T276 739Q276 693 243 669T159 645V655Q213 655 248 630T284 558Q284 512 251 487T166 462ZM168 0L550 563H578L197 0H168ZM492 0V20H542V93H373L366 112L537 343H565V113H618V93H565V20H615V0H492ZM391 113H542V315L391 113Z" />
<glyph unicode="&#xbf;" horiz-adv-x="312" d="M184 278V269Q184 227 172 198T138 145T92 96Q64 69 45 39T26 -35Q26 -85 57 -114T145 -143Q200 -143 235 -116T273 -40H301Q299 -80 279 -107T223 -150T145 -165Q75 -165 36 -129T-4 -35Q-4 11 19 45T76 113Q100
137 118 158T146 206T156 269V278H184ZM170 418Q182 418 190 411T198 392Q198 381 190 374T170 366Q158 366 150 373T142 392Q142 403 150 410T170 418Z" />
<glyph unicode="&#xc0;" horiz-adv-x="675" d="M42 0V22H118L311 541H240V563H438V541H365L558 22H633V0H454V22H526L448 235H227L148 22H221V0H42ZM233 256H441L338 538H336L233 256ZM327 653L269 776H299L343 653H327Z" />
<glyph unicode="&#xc1;" horiz-adv-x="675" d="M42 0V22H118L311 541H240V563H438V541H365L558 22H633V0H454V22H526L448 235H227L148 22H221V0H42ZM233 256H441L338 538H336L233 256ZM333 653L377 776H407L348 653H333Z" />
<glyph unicode="&#xc2;" horiz-adv-x="675" d="M42 0V22H118L311 541H240V563H438V541H365L558 22H633V0H454V22H526L448 235H227L148 22H221V0H42ZM233 256H441L338 538H336L233 256ZM242 623L328 774H349L434 623H410L338 753L266 623H242Z" />
<glyph unicode="&#xc3;" horiz-adv-x="675" d="M42 0V22H118L311 541H240V563H438V541H365L558 22H633V0H454V22H526L448 235H227L148 22H221V0H42ZM233 256H441L338 538H336L233 256ZM391 653Q373 653 355 663T320 684T285 694Q258 694 258 654H238Q238 680 250
698T285 716Q304 716 321 706T356 686T391 675Q403 675 410 684T418 714H438Q438 684 428 669T391 653Z" />
<glyph unicode="&#xc4;" horiz-adv-x="675" d="M42 0V22H118L311 541H240V563H438V541H365L558 22H633V0H454V22H526L448 235H227L148 22H221V0H42ZM233 256H441L338 538H336L233 256ZM260 654Q249 654 243 660T237 676Q237 686 243 691T259 697Q270 697 275 692T281
676Q281 666 276 660T260 654ZM417 654Q407 654 401 659T395 675Q395 686 401 691T417 697Q427 697 433 692T439 675Q439 665 433 660T417 654Z" />
<glyph unicode="&#xc5;" horiz-adv-x="675" d="M42 0V22H118L311 541H240V563H438V541H365L558 22H633V0H454V22H526L448 235H227L148 22H221V0H42ZM233 256H441L338 538H336L233 256ZM339 633Q311 633 295 648T279 690Q280 716 295 731T338 746Q366 746 381 731T397
690Q397 664 382 649T339 633ZM339 648Q357 648 368 659T379 690Q379 709 368 719T339 730Q320 730 309 720T298 690Q298 671 309 660T339 648Z" />
<glyph unicode="&#xc6;" horiz-adv-x="979" d="M32 0V22H118L413 541H345V563H831L858 371H833L808 541H477L514 288H727L714 372H735L769 171H748L731 266H517L553 22H910L885 191H910L939 0H443V22H522L493 212H259L153 22H225V0H32ZM271 233H491L446 541H441L271 233Z" />
<glyph unicode="&#xc7;" horiz-adv-x="686" d="M348 -11Q297 -11 246 6T152 60T84 152T58 284Q58 364 94 429T196 533T349 572Q417 572 462 554T539 502T592 422L578 428V563H605V406L584 399Q547 475 494 512T349 549Q266 549 208 512T119 414T88 283Q88 215
110 164T171 80T255 30T349 13Q394 13 438 24T521 63T587 138L606 125Q577 76 538 46T451 3T348 -11ZM345 -145Q319 -145 295 -132V-117Q306 -121 316 -122T335 -124Q353 -124 363 -119T373 -102Q373 -89 361 -83T313 -75L342 0H358L340 -56Q372 -56 387 -68T403
-101Q403 -124 386 -134T345 -145Z" />
<glyph unicode="&#xc8;" horiz-adv-x="597" d="M60 0V22H145V541H60V563H519V402H493V541H175V298H380V381H403V187H381V276H175V22H505V163H531V0H60ZM316 653L258 776H288L332 653H316Z" />
<glyph unicode="&#xc9;" horiz-adv-x="597" d="M60 0V22H145V541H60V563H519V402H493V541H175V298H380V381H403V187H381V276H175V22H505V163H531V0H60ZM322 653L366 776H396L337 653H322Z" />
<glyph unicode="&#xca;" horiz-adv-x="597" d="M60 0V22H145V541H60V563H519V402H493V541H175V298H380V381H403V187H381V276H175V22H505V163H531V0H60ZM231 623L317 774H338L423 623H399L327 753L255 623H231Z" />
<glyph unicode="&#xcb;" horiz-adv-x="597" d="M60 0V22H145V541H60V563H519V402H493V541H175V298H380V381H403V187H381V276H175V22H505V163H531V0H60ZM249 654Q238 654 232 660T226 676Q226 686 232 691T248 697Q259 697 264 692T270 676Q270 666 265 660T249
654ZM406 654Q396 654 390 659T384 675Q384 686 390 691T406 697Q416 697 422 692T428 675Q428 665 422 660T406 654Z" />
<glyph unicode="&#xcc;" horiz-adv-x="311" d="M55 0V22H140V541H55V563H255V541H170V22H255V0H55ZM146 653L88 776H118L162 653H146Z" />
<glyph unicode="&#xcd;" horiz-adv-x="311" d="M55 0V22H140V541H55V563H255V541H170V22H255V0H55ZM152 653L196 776H226L167 653H152Z" />
<glyph unicode="&#xce;" horiz-adv-x="311" d="M55 0V22H140V541H55V563H255V541H170V22H255V0H55ZM61 623L147 774H168L253 623H229L157 753L85 623H61Z" />
<glyph unicode="&#xcf;" horiz-adv-x="311" d="M55 0V22H140V541H55V563H255V541H170V22H255V0H55ZM79 654Q68 654 62 660T56 676Q56 686 62 691T78 697Q89 697 94 692T100 676Q100 666 95 660T79 654ZM236 654Q226 654 220 659T214 675Q214 686 220 691T236 697Q246
697 252 692T258 675Q258 665 252 660T236 654Z" />
<glyph unicode="&#xd0;" horiz-adv-x="698" d="M60 0V22H145V541H60V563H395Q458 563 503 537T578 469T622 377T637 280Q637 232 622 183T578 92T503 26T398 0H60ZM175 22H393Q447 22 487 44T554 104T594 187T608 279Q608 325 595 371T555 455T489 517T396 541H175V22ZM316
273V296H569V273H316Z" />
<glyph unicode="&#xd1;" horiz-adv-x="705" d="M64 0V22H136V541H64V563H164L577 42V541H502V563H667V541H604V0H574L164 518V22H237V0H64ZM405 653Q387 653 369 663T334 684T299 694Q272 694 272 654H252Q252 680 264 698T299 716Q318 716 335 706T370 686T405
675Q417 675 424 684T432 714H452Q452 684 442 669T405 653Z" />
<glyph unicode="&#xd2;" horiz-adv-x="710" d="M354 -11Q279 -11 224 14T132 82T79 175T61 279Q61 332 79 384T133 478T224 547T355 573Q430 573 485 547T577 479T632 384T650 279Q650 226 633 175T579 81T486 14T354 -11ZM355 13Q423 13 472 36T555 98T604 184T620
279Q620 327 604 374T555 462T473 526T355 550Q287 550 238 526T156 462T107 375T91 279Q91 230 106 183T154 97T236 36T355 13ZM343 653L285 776H315L359 653H343Z" />
<glyph unicode="&#xd3;" horiz-adv-x="710" d="M354 -11Q279 -11 224 14T132 82T79 175T61 279Q61 332 79 384T133 478T224 547T355 573Q430 573 485 547T577 479T632 384T650 279Q650 226 633 175T579 81T486 14T354 -11ZM355 13Q423 13 472 36T555 98T604 184T620
279Q620 327 604 374T555 462T473 526T355 550Q287 550 238 526T156 462T107 375T91 279Q91 230 106 183T154 97T236 36T355 13ZM349 653L393 776H423L364 653H349Z" />
<glyph unicode="&#xd4;" horiz-adv-x="710" d="M354 -11Q279 -11 224 14T132 82T79 175T61 279Q61 332 79 384T133 478T224 547T355 573Q430 573 485 547T577 479T632 384T650 279Q650 226 633 175T579 81T486 14T354 -11ZM355 13Q423 13 472 36T555 98T604 184T620
279Q620 327 604 374T555 462T473 526T355 550Q287 550 238 526T156 462T107 375T91 279Q91 230 106 183T154 97T236 36T355 13ZM258 623L344 774H365L450 623H426L354 753L282 623H258Z" />
<glyph unicode="&#xd5;" horiz-adv-x="710" d="M354 -11Q279 -11 224 14T132 82T79 175T61 279Q61 332 79 384T133 478T224 547T355 573Q430 573 485 547T577 479T632 384T650 279Q650 226 633 175T579 81T486 14T354 -11ZM355 13Q423 13 472 36T555 98T604 184T620
279Q620 327 604 374T555 462T473 526T355 550Q287 550 238 526T156 462T107 375T91 279Q91 230 106 183T154 97T236 36T355 13ZM407 653Q389 653 371 663T336 684T301 694Q274 694 274 654H254Q254 680 266 698T301 716Q320 716 337 706T372 686T407 675Q419 675
426 684T434 714H454Q454 684 444 669T407 653Z" />
<glyph unicode="&#xd6;" horiz-adv-x="710" d="M354 -11Q279 -11 224 14T132 82T79 175T61 279Q61 332 79 384T133 478T224 547T355 573Q430 573 485 547T577 479T632 384T650 279Q650 226 633 175T579 81T486 14T354 -11ZM355 13Q423 13 472 36T555 98T604 184T620
279Q620 327 604 374T555 462T473 526T355 550Q287 550 238 526T156 462T107 375T91 279Q91 230 106 183T154 97T236 36T355 13ZM276 654Q265 654 259 660T253 676Q253 686 259 691T275 697Q286 697 291 692T297 676Q297 666 292 660T276 654ZM433 654Q423 654
417 659T411 675Q411 686 417 691T433 697Q443 697 449 692T455 675Q455 665 449 660T433 654Z" />
<glyph unicode="&#xd7;" horiz-adv-x="412" d="M38 95L20 113L188 281L24 444L43 463L206 299L374 467L392 449L224 281L388 118L369 99L206 263L38 95Z" />
<glyph unicode="&#xd8;" horiz-adv-x="649" d="M98 -35L81 -23L557 593L572 582L98 -35ZM323 -15Q248 -15 193 10T101 78T48 171T30 275Q30 328 48 380T102 474T193 543T324 569Q399 569 454 543T546 475T601 380T619 275Q619 222 602 171T548 77T455 10T323 -15ZM324
9Q392 9 441 32T524 94T573 180T589 275Q589 323 573 370T524 458T442 522T324 546Q256 546 207 522T125 458T76 371T60 275Q60 226 75 179T123 93T205 32T324 9Z" />
<glyph unicode="&#xd9;" horiz-adv-x="729" d="M360 -11Q287 -11 232 13T147 81T116 183V541H42V563H221V541H146V183Q146 133 173 95T248 35T360 13Q429 13 480 34T561 93T590 182V541H517V563H696V541H619V182Q619 124 586 81T495 13T360 -11ZM355 653L297 776H327L371
653H355Z" />
<glyph unicode="&#xda;" horiz-adv-x="729" d="M360 -11Q287 -11 232 13T147 81T116 183V541H42V563H221V541H146V183Q146 133 173 95T248 35T360 13Q429 13 480 34T561 93T590 182V541H517V563H696V541H619V182Q619 124 586 81T495 13T360 -11ZM361 653L405 776H435L376
653H361Z" />
<glyph unicode="&#xdb;" horiz-adv-x="729" d="M360 -11Q287 -11 232 13T147 81T116 183V541H42V563H221V541H146V183Q146 133 173 95T248 35T360 13Q429 13 480 34T561 93T590 182V541H517V563H696V541H619V182Q619 124 586 81T495 13T360 -11ZM270 623L356 774H377L462
623H438L366 753L294 623H270Z" />
<glyph unicode="&#xdc;" horiz-adv-x="729" d="M360 -11Q287 -11 232 13T147 81T116 183V541H42V563H221V541H146V183Q146 133 173 95T248 35T360 13Q429 13 480 34T561 93T590 182V541H517V563H696V541H619V182Q619 124 586 81T495 13T360 -11ZM288 654Q277 654
271 660T265 676Q265 686 271 691T287 697Q298 697 303 692T309 676Q309 666 304 660T288 654ZM445 654Q435 654 429 659T423 675Q423 686 429 691T445 697Q455 697 461 692T467 675Q467 665 461 660T445 654Z" />
<glyph unicode="&#xdd;" horiz-adv-x="615" d="M210 0V22H292V227L83 541H7V563H190V541H116L309 252L500 541H422V563H606V541H531L322 227V22H405V0H210ZM306 653L350 776H380L321 653H306Z" />
<glyph unicode="&#xde;" horiz-adv-x="583" d="M55 0V22H140V541H55V563H255V541H170V439L158 446H353Q430 446 472 409T515 306Q515 240 474 203T358 166H222V187H358Q418 187 451 218T485 306Q484 362 450 393T353 425H158L170 432V22H255V0H55Z" />
<glyph unicode="&#xdf;" horiz-adv-x="520" d="M26 0V24H101V393Q101 485 148 534T280 583Q352 583 395 548T438 455Q438 400 402 365T294 327V337Q354 337 398 318T466 262T490 174Q490 78 428 39T259 0V24Q319 24 364 38T435 85T461 174Q461 250 410 285T269
320H267V343H269Q342 343 376 374T410 455Q410 503 378 531T280 560Q204 560 168 516T132 395V24H191V0H26Z" />
<glyph unicode="&#xe0;" horiz-adv-x="442" d="M172 -11Q113 -11 77 21T40 106Q40 150 59 175T109 210T177 221Q216 221 257 215T338 201L324 195V263Q324 324 292 352T209 381Q174 381 139 372T72 349L63 371Q103 388 140 395T206 403Q265 403 296 383T340 332T353
271V22H413V0H332L324 46H336Q288 17 248 3T172 -11ZM173 11Q210 11 247 25T339 70L324 55V190L339 181Q296 190 256 195T178 201Q135 201 102 180T68 105Q68 68 95 40T173 11ZM207 483L149 606H179L223 483H207Z" />
<glyph unicode="&#xe1;" horiz-adv-x="442" d="M172 -11Q113 -11 77 21T40 106Q40 150 59 175T109 210T177 221Q216 221 257 215T338 201L324 195V263Q324 324 292 352T209 381Q174 381 139 372T72 349L63 371Q103 388 140 395T206 403Q265 403 296 383T340 332T353
271V22H413V0H332L324 46H336Q288 17 248 3T172 -11ZM173 11Q210 11 247 25T339 70L324 55V190L339 181Q296 190 256 195T178 201Q135 201 102 180T68 105Q68 68 95 40T173 11ZM213 483L257 606H287L228 483H213Z" />
<glyph unicode="&#xe2;" horiz-adv-x="442" d="M172 -11Q113 -11 77 21T40 106Q40 150 59 175T109 210T177 221Q216 221 257 215T338 201L324 195V263Q324 324 292 352T209 381Q174 381 139 372T72 349L63 371Q103 388 140 395T206 403Q265 403 296 383T340 332T353
271V22H413V0H332L324 46H336Q288 17 248 3T172 -11ZM173 11Q210 11 247 25T339 70L324 55V190L339 181Q296 190 256 195T178 201Q135 201 102 180T68 105Q68 68 95 40T173 11ZM122 453L208 604H229L314 453H290L218 583L146 453H122Z" />
<glyph unicode="&#xe3;" horiz-adv-x="442" d="M172 -11Q113 -11 77 21T40 106Q40 150 59 175T109 210T177 221Q216 221 257 215T338 201L324 195V263Q324 324 292 352T209 381Q174 381 139 372T72 349L63 371Q103 388 140 395T206 403Q265 403 296 383T340 332T353
271V22H413V0H332L324 46H336Q288 17 248 3T172 -11ZM173 11Q210 11 247 25T339 70L324 55V190L339 181Q296 190 256 195T178 201Q135 201 102 180T68 105Q68 68 95 40T173 11ZM271 483Q253 483 235 493T200 514T165 524Q138 524 138 484H118Q118 510 130 528T165
546Q184 546 201 536T236 516T271 505Q283 505 290 514T298 544H318Q318 514 308 499T271 483Z" />
<glyph unicode="&#xe4;" horiz-adv-x="442" d="M172 -11Q113 -11 77 21T40 106Q40 150 59 175T109 210T177 221Q216 221 257 215T338 201L324 195V263Q324 324 292 352T209 381Q174 381 139 372T72 349L63 371Q103 388 140 395T206 403Q265 403 296 383T340 332T353
271V22H413V0H332L324 46H336Q288 17 248 3T172 -11ZM173 11Q210 11 247 25T339 70L324 55V190L339 181Q296 190 256 195T178 201Q135 201 102 180T68 105Q68 68 95 40T173 11ZM140 484Q129 484 123 490T117 506Q117 516 123 521T139 527Q150 527 155 522T161 506Q161
496 156 490T140 484ZM297 484Q287 484 281 489T275 505Q275 516 281 521T297 527Q307 527 313 522T319 505Q319 495 313 490T297 484Z" />
<glyph unicode="&#xe5;" horiz-adv-x="442" d="M172 -11Q113 -11 77 21T40 106Q40 150 59 175T109 210T177 221Q216 221 257 215T338 201L324 195V263Q324 324 292 352T209 381Q174 381 139 372T72 349L63 371Q103 388 140 395T206 403Q265 403 296 383T340 332T353
271V22H413V0H332L324 46H336Q288 17 248 3T172 -11ZM173 11Q210 11 247 25T339 70L324 55V190L339 181Q296 190 256 195T178 201Q135 201 102 180T68 105Q68 68 95 40T173 11ZM219 463Q191 463 175 478T159 520Q160 546 175 561T218 576Q246 576 261 561T277 520Q277
494 262 479T219 463ZM219 478Q237 478 248 489T259 520Q259 539 248 549T219 560Q200 560 189 550T178 520Q178 501 189 490T219 478Z" />
<glyph unicode="&#xe6;" horiz-adv-x="768" d="M177 -11Q114 -11 77 18T40 99Q40 140 62 164T119 199T197 210H324V263Q324 324 292 352T209 381Q174 381 139 372T72 349L63 371Q103 388 140 395T206 403Q257 403 286 387T330 344T347 291Q373 347 423 375T528
404Q578 404 620 382T689 314T715 195V189H352Q355 137 379 97T443 35T532 12Q579 12 625 33T696 85L706 63Q669 26 623 8T531 -11Q475 -11 426 16T349 94Q327 44 282 17T177 -11ZM178 11Q232 11 276 38T336 122Q331 138 328 154T324 189H198Q164 189 134 180T86
152T68 98Q68 58 95 35T178 11ZM352 210H688Q688 269 665 307T606 363T528 382Q482 382 443 362T379 303T352 210Z" />
<glyph unicode="&#xe7;" horiz-adv-x="467" d="M233 -11Q174 -11 128 16T56 90T30 198Q30 258 56 304T128 377T233 403Q286 403 326 379T378 317H369V393H396V278H373Q366 323 329 352T235 381Q184 381 144 358T82 293T59 197Q59 143 81 102T143 36T234 12Q281
12 317 28T387 78L398 59Q365 25 326 7T233 -11ZM213 -145Q187 -145 163 -132V-117Q174 -121 184 -122T203 -124Q221 -124 231 -119T241 -102Q241 -89 229 -83T181 -75L210 0H226L208 -56Q240 -56 255 -68T271 -101Q271 -124 254 -134T213 -145Z" />
<glyph unicode="&#xe8;" horiz-adv-x="474" d="M237 -11Q183 -11 136 13T60 85T30 197Q30 266 59 312T134 381T230 404Q281 404 324 382T394 314T421 195V189H54V210H394Q394 269 371 307T310 363T230 382Q184 382 145 360T83 297T59 199Q59 144 82 102T147 36T238
12Q285 12 331 33T402 85L412 63Q375 26 329 8T237 -11ZM227 483L169 606H199L243 483H227Z" />
<glyph unicode="&#xe9;" horiz-adv-x="474" d="M237 -11Q183 -11 136 13T60 85T30 197Q30 266 59 312T134 381T230 404Q281 404 324 382T394 314T421 195V189H54V210H394Q394 269 371 307T310 363T230 382Q184 382 145 360T83 297T59 199Q59 144 82 102T147 36T238
12Q285 12 331 33T402 85L412 63Q375 26 329 8T237 -11ZM233 483L277 606H307L248 483H233Z" />
<glyph unicode="&#xea;" horiz-adv-x="474" d="M237 -11Q183 -11 136 13T60 85T30 197Q30 266 59 312T134 381T230 404Q281 404 324 382T394 314T421 195V189H54V210H394Q394 269 371 307T310 363T230 382Q184 382 145 360T83 297T59 199Q59 144 82 102T147 36T238
12Q285 12 331 33T402 85L412 63Q375 26 329 8T237 -11ZM142 453L228 604H249L334 453H310L238 583L166 453H142Z" />
<glyph unicode="&#xeb;" horiz-adv-x="474" d="M237 -11Q183 -11 136 13T60 85T30 197Q30 266 59 312T134 381T230 404Q281 404 324 382T394 314T421 195V189H54V210H394Q394 269 371 307T310 363T230 382Q184 382 145 360T83 297T59 199Q59 144 82 102T147 36T238
12Q285 12 331 33T402 85L412 63Q375 26 329 8T237 -11ZM160 484Q149 484 143 490T137 506Q137 516 143 521T159 527Q170 527 175 522T181 506Q181 496 176 490T160 484ZM317 484Q307 484 301 489T295 505Q295 516 301 521T317 527Q327 527 333 522T339 505Q339
495 333 490T317 484Z" />
<glyph unicode="&#xec;" horiz-adv-x="236" d="M18 0V22H104V371H19V393H133V22H217V0H18ZM100 483L42 606H72L116 483H100Z" />
<glyph unicode="&#xed;" horiz-adv-x="236" d="M18 0V22H104V371H19V393H133V22H217V0H18ZM106 483L150 606H180L121 483H106Z" />
<glyph unicode="&#xee;" horiz-adv-x="236" d="M18 0V22H104V371H19V393H133V22H217V0H18ZM15 453L101 604H122L207 453H183L111 583L39 453H15Z" />
<glyph unicode="&#xef;" horiz-adv-x="236" d="M18 0V22H104V371H19V393H133V22H217V0H18ZM33 484Q22 484 16 490T10 506Q10 516 16 521T32 527Q43 527 48 522T54 506Q54 496 49 490T33 484ZM190 484Q180 484 174 489T168 505Q168 516 174 521T190 527Q200 527
206 522T212 505Q212 495 206 490T190 484Z" />
<glyph unicode="&#xf0;" horiz-adv-x="439" d="M216 -11Q150 -11 107 17T43 89T22 182Q22 239 46 282T113 349T210 373Q263 373 300 354T364 301Q331 374 279 436T168 550T59 645L75 662Q109 633 152 596T240 513T321 418T382 311T405 193Q405 127 379 82T310
13T216 -11ZM216 15Q274 15 309 40T361 105T377 186Q377 243 353 279T291 333T213 350Q175 350 138 332T76 278T52 184Q52 143 69 104T122 40T216 15ZM85 446L73 468L344 583L356 563L85 446Z" />
<glyph unicode="&#xf1;" horiz-adv-x="497" d="M18 0V22H104V371H19V393H133V343H124Q167 369 211 386T299 403Q354 403 386 371T419 282V22H494V0H305V22H390V290Q390 332 364 356T294 380Q259 380 214 363T124 320L133 335V22H217V0H18ZM317 483Q299 483 281
493T246 514T211 524Q184 524 184 484H164Q164 510 176 528T211 546Q230 546 247 536T282 516T317 505Q329 505 336 514T344 544H364Q364 514 354 499T317 483Z" />
<glyph unicode="&#xf2;" horiz-adv-x="481" d="M239 -12Q178 -12 131 15T57 89T30 199Q30 259 57 305T131 378T239 404Q301 404 349 378T424 306T451 199Q451 137 424 90T349 15T239 -12ZM239 11Q293 11 334 35T398 101T422 199Q422 253 399 294T334 359T239 382Q186
382 146 359T82 295T59 199Q59 144 82 102T145 35T239 11ZM227 483L169 606H199L243 483H227Z" />
<glyph unicode="&#xf3;" horiz-adv-x="481" d="M239 -12Q178 -12 131 15T57 89T30 199Q30 259 57 305T131 378T239 404Q301 404 349 378T424 306T451 199Q451 137 424 90T349 15T239 -12ZM239 11Q293 11 334 35T398 101T422 199Q422 253 399 294T334 359T239 382Q186
382 146 359T82 295T59 199Q59 144 82 102T145 35T239 11ZM233 483L277 606H307L248 483H233Z" />
<glyph unicode="&#xf4;" horiz-adv-x="481" d="M239 -12Q178 -12 131 15T57 89T30 199Q30 259 57 305T131 378T239 404Q301 404 349 378T424 306T451 199Q451 137 424 90T349 15T239 -12ZM239 11Q293 11 334 35T398 101T422 199Q422 253 399 294T334 359T239 382Q186
382 146 359T82 295T59 199Q59 144 82 102T145 35T239 11ZM142 453L228 604H249L334 453H310L238 583L166 453H142Z" />
<glyph unicode="&#xf5;" horiz-adv-x="481" d="M239 -12Q178 -12 131 15T57 89T30 199Q30 259 57 305T131 378T239 404Q301 404 349 378T424 306T451 199Q451 137 424 90T349 15T239 -12ZM239 11Q293 11 334 35T398 101T422 199Q422 253 399 294T334 359T239 382Q186
382 146 359T82 295T59 199Q59 144 82 102T145 35T239 11ZM291 483Q273 483 255 493T220 514T185 524Q158 524 158 484H138Q138 510 150 528T185 546Q204 546 221 536T256 516T291 505Q303 505 310 514T318 544H338Q338 514 328 499T291 483Z" />
<glyph unicode="&#xf6;" horiz-adv-x="481" d="M239 -12Q178 -12 131 15T57 89T30 199Q30 259 57 305T131 378T239 404Q301 404 349 378T424 306T451 199Q451 137 424 90T349 15T239 -12ZM239 11Q293 11 334 35T398 101T422 199Q422 253 399 294T334 359T239 382Q186
382 146 359T82 295T59 199Q59 144 82 102T145 35T239 11ZM160 484Q149 484 143 490T137 506Q137 516 143 521T159 527Q170 527 175 522T181 506Q181 496 176 490T160 484ZM317 484Q307 484 301 489T295 505Q295 516 301 521T317 527Q327 527 333 522T339 505Q339
495 333 490T317 484Z" />
<glyph unicode="&#xf7;" horiz-adv-x="455" d="M50 268V294H405V268H50ZM210 91V161H246V91H210ZM210 401V471H246V401H210Z" />
<glyph unicode="&#xf8;" horiz-adv-x="497" d="M96 -70L80 -61L392 448L408 438L96 -70ZM239 -12Q178 -12 131 15T57 89T30 199Q30 259 57 305T131 378T239 404Q301 404 349 378T424 306T451 199Q451 137 424 90T349 15T239 -12ZM239 11Q293 11 334 35T398 101T422
199Q422 253 399 294T334 359T239 382Q186 382 146 359T82 295T59 199Q59 144 82 102T145 35T239 11Z" />
<glyph unicode="&#xf9;" horiz-adv-x="502" d="M215 -11Q166 -11 140 9T104 56T94 103V371H18V393H124V104Q124 69 146 41T217 12Q274 12 316 33T403 89L377 65V371H304V393H407V21H480V0H382L378 62L404 68Q362 31 315 10T215 -11ZM227 483L169 606H199L243 483H227Z" />
<glyph unicode="&#xfa;" horiz-adv-x="502" d="M215 -11Q166 -11 140 9T104 56T94 103V371H18V393H124V104Q124 69 146 41T217 12Q274 12 316 33T403 89L377 65V371H304V393H407V21H480V0H382L378 62L404 68Q362 31 315 10T215 -11ZM233 483L277 606H307L248 483H233Z" />
<glyph unicode="&#xfb;" horiz-adv-x="502" d="M215 -11Q166 -11 140 9T104 56T94 103V371H18V393H124V104Q124 69 146 41T217 12Q274 12 316 33T403 89L377 65V371H304V393H407V21H480V0H382L378 62L404 68Q362 31 315 10T215 -11ZM142 453L228 604H249L334 453H310L238
583L166 453H142Z" />
<glyph unicode="&#xfc;" horiz-adv-x="502" d="M215 -11Q166 -11 140 9T104 56T94 103V371H18V393H124V104Q124 69 146 41T217 12Q274 12 316 33T403 89L377 65V371H304V393H407V21H480V0H382L378 62L404 68Q362 31 315 10T215 -11ZM160 484Q149 484 143 490T137
506Q137 516 143 521T159 527Q170 527 175 522T181 506Q181 496 176 490T160 484ZM317 484Q307 484 301 489T295 505Q295 516 301 521T317 527Q327 527 333 522T339 505Q339 495 333 490T317 484Z" />
<glyph unicode="&#xfd;" horiz-adv-x="523" d="M115 -122V-96H154Q184 -96 199 -92T225 -76T245 -41L276 30H258L104 371H23V393H205V371H134L281 41L420 371H337V393H514V371H450L271 -47Q258 -77 245 -93T211 -115T155 -122H115ZM266 483L310 606H340L281 483H266Z" />
<glyph unicode="&#xfe;" horiz-adv-x="508" d="M28 -155V-133H96V539H21V563H125V349Q159 375 199 389T276 404Q337 404 382 380T452 311T477 202Q477 137 452 89T380 16T270 -10Q231 -10 193 5T125 49V-133H191V-155H28ZM268 13Q351 13 399 62T448 196Q448 282
401 332T274 382Q239 382 200 367T125 325V74Q154 45 192 29T268 13Z" />
<glyph unicode="&#xff;" horiz-adv-x="523" d="M115 -122V-96H154Q184 -96 199 -92T225 -76T245 -41L276 30H258L104 371H23V393H205V371H134L281 41L420 371H337V393H514V371H450L271 -47Q258 -77 245 -93T211 -115T155 -122H115ZM193 484Q182 484 176 490T170
506Q170 516 176 521T192 527Q203 527 208 522T214 506Q214 496 209 490T193 484ZM350 484Q340 484 334 489T328 505Q328 516 334 521T350 527Q360 527 366 522T372 505Q372 495 366 490T350 484Z" />
<glyph unicode="&#x2013;" horiz-adv-x="603" d="M0 239V262H603V239H0Z" />
<glyph unicode="&#x2014;" horiz-adv-x="659" d="M0 239V262H659V239H0Z" />
<glyph unicode="&#x2018;" horiz-adv-x="109" d="M89 593V573Q72 573 67 562T61 523H89V469H40V514Q40 551 48 572T89 593Z" />
<glyph unicode="&#x2019;" horiz-adv-x="109" d="M20 469V489Q37 489 42 500T48 539H20V593H69V548Q69 511 61 490T20 469Z" />
<glyph unicode="&#x201a;" horiz-adv-x="109" d="M276 -70V-50Q293 -50 298 -39T304 0H276V54H325V9Q325 -28 317 -49T276 -70Z" />
<glyph unicode="&#x201c;" horiz-adv-x="194" d="M174 593V573Q157 573 152 562T146 523H174V469H125V514Q125 551 133 572T174 593ZM89 593V573Q72 573 67 562T61 523H89V469H40V514Q40 551 48 572T89 593Z" />
<glyph unicode="&#x201d;" horiz-adv-x="194" d="M20 469V489Q37 489 42 500T48 539H20V593H69V548Q69 511 61 490T20 469ZM105 469V489Q122 489 127 500T133 539H105V593H154V548Q154 511 146 490T105 469Z" />
<glyph unicode="&#x201e;" horiz-adv-x="192" d="M276 -70V-50Q293 -50 298 -39T304 0H276V54H325V9Q325 -28 317 -49T276 -70ZM103 -70V-50Q120 -50 125 -39T131 0H103V54H152V9Q152 -28 144 -49T103 -70Z" />
<glyph unicode="&#x2022;" horiz-adv-x="180" d="M90 187Q70 187 54 197T29 222T20 254Q20 281 39 301T90 321Q122 321 141 302T160 254Q160 226 141 207T90 187Z" />
<glyph unicode="&#x2039;" horiz-adv-x="208" d="M135 143L4 329L135 512H155L51 329L155 143H135Z" />
<glyph unicode="&#x203a;" horiz-adv-x="208" d="M53 143L157 329L53 512H73L204 329L73 143H53Z" />
</font>
</defs>
</svg>
