<svg xmlns="http://www.w3.org/2000/svg" viewBox="0 0 94.26 94.26"><title>IG_BW</title><g id="Layer_2" data-name="Layer 2"><g id="Layer_1-2" data-name="Layer 1"><path d="M47.13,8.49c12.58,0,14.07,0,19,.28a25.94,25.94,0,0,1,8.75,1.62,14.65,14.65,0,0,1,5.42,3.52,14.67,14.67,0,0,1,3.53,5.42,26.26,26.26,0,0,1,1.62,8.75c.23,5,.28,6.47.28,19.05s0,14.07-.28,19a26.2,26.2,0,0,1-1.62,8.75,15.65,15.65,0,0,1-9,9,26.2,26.2,0,0,1-8.75,1.62c-5,.23-6.46.28-19,.28s-14.08,0-19-.28a26.28,26.28,0,0,1-8.76-1.62,14.67,14.67,0,0,1-5.42-3.53,14.65,14.65,0,0,1-3.52-5.42,25.94,25.94,0,0,1-1.62-8.75c-.23-5-.28-6.46-.28-19s0-14.08.28-19a26,26,0,0,1,1.62-8.76,14.65,14.65,0,0,1,3.52-5.42,14.65,14.65,0,0,1,5.42-3.52,26,26,0,0,1,8.75-1.62c5-.23,6.47-.28,19.05-.28m0-8.49C34.33,0,32.72.05,27.7.28A34.74,34.74,0,0,0,16.26,2.47,23.19,23.19,0,0,0,7.91,7.91a23.19,23.19,0,0,0-5.44,8.35A34.74,34.74,0,0,0,.28,27.7C.05,32.72,0,34.33,0,47.13s.05,14.4.28,19.43A34.74,34.74,0,0,0,2.47,78,24.08,24.08,0,0,0,16.26,91.78,34.23,34.23,0,0,0,27.7,94c5,.23,6.63.29,19.43.29s14.4-.06,19.43-.29A34.23,34.23,0,0,0,78,91.78,24,24,0,0,0,91.78,78,34.23,34.23,0,0,0,94,66.56c.23-5,.29-6.63.29-19.43S94.2,32.72,94,27.7a34.23,34.23,0,0,0-2.19-11.44A24.08,24.08,0,0,0,78,2.47,34.74,34.74,0,0,0,66.56.28C61.53.05,59.93,0,47.13,0Z"/><path d="M47.13,22.93a24.2,24.2,0,1,0,24.2,24.2A24.19,24.19,0,0,0,47.13,22.93Zm0,39.91A15.71,15.71,0,1,1,62.84,47.13,15.71,15.71,0,0,1,47.13,62.84Z"/><circle cx="72.29" cy="21.97" r="5.66"/></g></g></svg>