<svg xmlns="http://www.w3.org/2000/svg" viewBox="0 0 48.1 48.1"><defs><style>.cls-1{fill:none;}</style></defs><title>IN_BW</title><g id="Layer_2" data-name="Layer 2"><g id="Layer_1-2" data-name="Layer 1"><rect class="cls-1" width="48.1" height="48.1"/><path d="M26.7,20.38c0-1.34,0-2.48,0-3.62,0-.56-.14-.76-.73-.76-2.73,0-5.46,0-8.19,0-.65,0-.8.2-.8.82Q17,32,17,47.26c0,.62.16.84.8.83q4.26,0,8.5,0c.64,0,.81-.18.81-.82q0-7.65,0-15.31a18.65,18.65,0,0,1,.25-3.17c.39-2.15,1.37-3.91,3.68-4.48a8.78,8.78,0,0,1,2.23-.2,4.07,4.07,0,0,1,4.33,3.38,19.23,19.23,0,0,1,.43,4c0,5.25,0,10.5,0,15.75,0,.61.15.85.8.84,2.84,0,5.67,0,8.5,0,.61,0,.78-.19.77-.78q0-8.48,0-17a29.36,29.36,0,0,0-.64-6.87c-.73-3.09-2.15-5.72-5.19-7.08a13.91,13.91,0,0,0-9.38-.79A10.27,10.27,0,0,0,26.7,20.38ZM10.94,32q0-7.62,0-15.25c0-.57-.15-.75-.74-.75-2.87,0-5.75,0-8.62,0-.57,0-.74.15-.74.74q0,15.3,0,30.62c0,.6.22.73.76.73,2.83,0,5.66,0,8.5,0,.83,0,.83,0,.83-.83Zm-5-20.27a5.8,5.8,0,1,0,0-11.6A5.79,5.79,0,0,0,.1,6,5.74,5.74,0,0,0,5.91,11.73Z"/></g></g></svg>