<svg xmlns="http://www.w3.org/2000/svg" viewBox="0 0 69.04 69.04"><title>ME_BW</title><g id="Layer_2" data-name="Layer 2"><g id="Layer_1-2" data-name="Layer 1"><path d="M0,0V69H69V0ZM57.36,16.36l-3.71,3.55a1.09,1.09,0,0,0-.41,1V47a1.1,1.1,0,0,0,.41,1l3.62,3.55v.78H39.08v-.78L42.83,48c.36-.37.36-.47.36-1V25.86L32.78,52.31H31.37L19.25,25.86V43.59a2.43,2.43,0,0,0,.67,2l4.87,5.91v.78H11v-.78l4.87-5.91a2.37,2.37,0,0,0,.63-2V23.09a1.82,1.82,0,0,0-.59-1.52l-4.33-5.21v-.78H25L35.4,38.37l9.14-22.79H57.36Z"/></g></g></svg>