<svg xmlns="http://www.w3.org/2000/svg" viewBox="0 0 57 57"><defs><style>.cls-1{fill:none;}</style></defs><title>PI_BW</title><g id="Layer_2" data-name="Layer 2"><g id="Layer_1-2" data-name="Layer 1"><rect class="cls-1" width="57" height="57"/><g id="art"><path d="M15.82,56.88a1.75,1.75,0,0,1-1.14-1.49,32.9,32.9,0,0,1,.23-9.3c.66-2.84,4.24-18,4.24-18a13.08,13.08,0,0,1-1.08-5.36c0-5,2.93-8.8,6.56-8.8,3.1,0,4.59,2.33,4.59,5.1,0,3.1-2,7.75-3,12.07a5.27,5.27,0,0,0,5.37,6.56C38,37.65,43,30.85,43,21.08,43,12.4,36.74,6.35,27.82,6.35c-10.31,0-16.36,7.72-16.36,15.71a14.15,14.15,0,0,0,2.68,8.26,1.06,1.06,0,0,1,.24,1c-.27,1.13-.9,3.61-1,4.11-.14.66-.53.81-1.22.48-4.53-2.12-7.36-8.7-7.36-14C4.78,10.49,13.07,0,28.72,0,41.27,0,51,8.94,51,20.93c0,12.49-7.87,22.53-18.78,22.53-3.66,0-7.12-1.9-8.28-4.17l-2.27,8.62A35.5,35.5,0,0,1,18,56.13a1.76,1.76,0,0,1-2.16.75Z"/></g></g></g></svg>