<svg xmlns="http://www.w3.org/2000/svg" viewBox="0 0 39.98 39.98"><defs><style>.cls-1{fill:none;}</style></defs><title>SC_BW</title><g id="Layer_2" data-name="Layer 2"><g id="Layer_1-2" data-name="Layer 1"><path d="M39.92,30.73c-.23.56-1.31,1.35-5.07,1.92-.3,0-.42.45-.62,1.28a8.83,8.83,0,0,1-.23.92.49.49,0,0,1-.53.39h0a5,5,0,0,1-.85-.11,11.57,11.57,0,0,0-2.25-.24,9,9,0,0,0-1.62.14,7.63,7.63,0,0,0-3.1,1.58,8.72,8.72,0,0,1-5.37,2.14h-.5a8.72,8.72,0,0,1-5.36-2.12,7.82,7.82,0,0,0-3.1-1.58,10.1,10.1,0,0,0-1.62-.13,10.69,10.69,0,0,0-2.25.26,5.53,5.53,0,0,1-.85.12A.53.53,0,0,1,6,34.88c-.1-.32-.17-.63-.24-.93-.16-.77-.28-1.24-.61-1.3C1.38,32.07.3,31.28.06,30.72A.82.82,0,0,1,0,30.47.42.42,0,0,1,.36,30c5.77-1,8.36-6.84,8.47-7.1,0,0,0,0,0,0A2.18,2.18,0,0,0,9,21.06c-.39-.93-1.69-1.35-2.53-1.61-.21-.07-.41-.12-.56-.19-1.71-.67-1.86-1.37-1.79-1.72a1.6,1.6,0,0,1,1.57-1,.92.92,0,0,1,.46.09,5,5,0,0,0,2.06.55,1.62,1.62,0,0,0,1.23-.4c0-.39,0-.8-.07-1.21-.18-2.73-.38-6.12.48-8.06a10.44,10.44,0,0,1,9.7-6.25h.8A10.46,10.46,0,0,1,30.1,7.49c.86,1.94.66,5.33.48,8.06v.12c0,.38-.05.75-.07,1.11a1.71,1.71,0,0,0,1.12.39,5.15,5.15,0,0,0,1.93-.54,1.48,1.48,0,0,1,.6-.13,1.62,1.62,0,0,1,.7.14h0a1.26,1.26,0,0,1,1,1c0,.39-.3,1-1.8,1.59-.15.06-.35.13-.56.19-.86.28-2.14.69-2.54,1.61a2.18,2.18,0,0,0,.21,1.84s0,0,0,0c.11.25,2.7,6.15,8.47,7.11a.43.43,0,0,1,.36.43A.71.71,0,0,1,39.92,30.73Z"/><rect class="cls-1" width="39.98" height="39.98"/></g></g></svg>