<svg xmlns="http://www.w3.org/2000/svg" viewBox="0 0 54 54"><defs><style>.cls-1{fill:none;}</style></defs><title>TW_BW</title><g id="Layer_2" data-name="Layer 2"><g id="Layer_1-2" data-name="Layer 1"><rect id="_Transparent_Rectangle_" data-name=" Transparent Rectangle " class="cls-1" width="54" height="54"/><path d="M17,48.94c20.38,0,31.52-16.88,31.52-31.52,0-.48,0-1,0-1.43A22.36,22.36,0,0,0,54,10.25,22.28,22.28,0,0,1,47.64,12a11.14,11.14,0,0,0,4.87-6.13,22.21,22.21,0,0,1-7,2.69,11.1,11.1,0,0,0-18.88,10.1A31.44,31.44,0,0,1,3.76,7.09,11.09,11.09,0,0,0,7.19,21.88a11,11,0,0,1-5-1.39v.14a11.07,11.07,0,0,0,8.89,10.86,10.83,10.83,0,0,1-2.92.39,11.05,11.05,0,0,1-2.09-.2,11.1,11.1,0,0,0,10.35,7.7A22.24,22.24,0,0,1,2.64,44.12,23.1,23.1,0,0,1,0,44a31.36,31.36,0,0,0,17,5"/></g></g></svg>