<svg xmlns="http://www.w3.org/2000/svg" viewBox="0 0 54 54"><defs><style>.cls-1{fill:none;}</style></defs><title>YT_BW</title><g id="Layer_2" data-name="Layer 2"><g id="Layer_1-2" data-name="Layer 1"><path d="M52.87,13.92A6.8,6.8,0,0,0,48.1,9.11C43.89,8,27,8,27,8S10.11,8,5.9,9.11a6.8,6.8,0,0,0-4.77,4.81C0,18.16,0,27,0,27s0,8.84,1.13,13.08A6.8,6.8,0,0,0,5.9,44.89C10.11,46,27,46,27,46s16.89,0,21.1-1.13a6.8,6.8,0,0,0,4.77-4.81C54,35.84,54,27,54,27S54,18.16,52.87,13.92ZM21.48,35V19l14.11,8Z"/><rect id="_Transparent_Rectangle_" data-name=" Transparent Rectangle " class="cls-1" width="54" height="54"/></g></g></svg>